<?xml version="1.0" encoding="utf-8"?>
<!-- Generator: Adobe Illustrator 19.2.0, SVG Export Plug-In . SVG Version: 6.00 Build 0)  -->
<svg version="1.1" id="Layer_1" xmlns="http://www.w3.org/2000/svg" xmlns:xlink="http://www.w3.org/1999/xlink" x="0px" y="0px"
	 viewBox="0 0 1054.6 342.6" style="enable-background:new 0 0 1054.6 342.6;" xml:space="preserve">
<style type="text/css">
	.st0{fill:#9F5328;}
	.st1{fill:#82A43E;}
	.st2{fill:#07253C;}
	.st3{fill:#C39876;}
	.st4{fill:#D6AD83;}
	.st5{fill:#BE9C8A;}
	.st6{fill:#F5F6F6;}
	.st7{fill:#293333;}
	.st8{fill:#D3D17F;}
	.st9{fill:#525557;}
	.st10{fill:#ABB0B3;}
	.st11{fill:#5A6164;}
	.st12{opacity:0.81;}
	.st13{fill:#E1B896;}
	.st14{fill:#E9C1A2;}
	.st15{fill:#3E3E3E;}
	.st16{fill:#040303;}
	.st17{fill:#FFFFFF;}
	.st18{fill:#3A3D44;}
	.st19{fill:#CDCCCC;}
	.st20{fill:#030405;}
	.st21{fill:#07659C;}
	.st22{fill:#1C81AE;}
	.st23{fill:#873D1D;}
	.st24{fill:#FFC943;}
	.st25{fill:#FBAE48;}
	.st26{fill:#F596A9;}
	.st27{fill:#BBBBBB;}
	.st28{fill:#AF8C68;}
	.st29{fill:#383938;}
	.st30{fill:#8F8F8E;}
	.st31{fill:#656869;}
	.st32{fill:#969696;}
	.st33{fill:#939799;}
	.st34{fill:#7C7C7C;}
	.st35{fill:#D1D2D2;}
	.st36{fill:#D28C69;}
	.st37{fill:#FAA540;}
	.st38{fill:#BCBCBC;}
	.st39{fill:#3A3B3B;}
	.st40{clip-path:url(#SVGID_2_);}
	.st41{fill:#C9C6C2;}
	.st42{clip-path:url(#SVGID_4_);}
	.st43{clip-path:url(#SVGID_7_);}
	.st44{fill:#CECAC6;}
	.st45{clip-path:url(#SVGID_9_);}
	.st46{fill:#D3CFCA;}
	.st47{clip-path:url(#SVGID_11_);}
	.st48{fill:#D6D3CD;}
	.st49{clip-path:url(#SVGID_13_);}
	.st50{fill:#D9D5CF;}
	.st51{clip-path:url(#SVGID_15_);}
	.st52{fill:#DDD9D3;}
	.st53{clip-path:url(#SVGID_17_);}
	.st54{fill:#E0DBD5;}
	.st55{clip-path:url(#SVGID_19_);}
	.st56{fill:#E1DCD5;}
	.st57{clip-path:url(#SVGID_21_);}
	.st58{fill:#E2DED7;}
	.st59{clip-path:url(#SVGID_23_);}
	.st60{fill:#E5DFD8;}
	.st61{clip-path:url(#SVGID_25_);}
	.st62{fill:#E6E1DA;}
	.st63{clip-path:url(#SVGID_27_);}
	.st64{fill:#E7E2DB;}
	.st65{clip-path:url(#SVGID_29_);}
	.st66{fill:#E9E3DB;}
	.st67{clip-path:url(#SVGID_31_);}
	.st68{fill:#E9E4DC;}
	.st69{clip-path:url(#SVGID_33_);}
	.st70{fill:#EAE4DD;}
	.st71{clip-path:url(#SVGID_35_);}
	.st72{fill:#EAE4DC;}
	.st73{clip-path:url(#SVGID_37_);}
	.st74{fill:#EAE5DE;}
	.st75{clip-path:url(#SVGID_39_);}
	.st76{fill:#EBE6DE;}
	.st77{clip-path:url(#SVGID_41_);}
	.st78{clip-path:url(#SVGID_43_);}
	.st79{clip-path:url(#SVGID_45_);}
	.st80{fill:#EBE6DF;}
	.st81{clip-path:url(#SVGID_47_);}
	.st82{fill:#ECE7DF;}
	.st83{clip-path:url(#SVGID_49_);}
	.st84{clip-path:url(#SVGID_51_);}
	.st85{clip-path:url(#SVGID_53_);}
	.st86{clip-path:url(#SVGID_55_);}
	.st87{clip-path:url(#SVGID_57_);}
	.st88{clip-path:url(#SVGID_59_);}
	.st89{clip-path:url(#SVGID_61_);}
	.st90{clip-path:url(#SVGID_63_);}
	.st91{clip-path:url(#SVGID_65_);}
	.st92{clip-path:url(#SVGID_67_);}
	.st93{clip-path:url(#SVGID_69_);}
	.st94{clip-path:url(#SVGID_71_);}
	.st95{clip-path:url(#SVGID_73_);}
	.st96{clip-path:url(#SVGID_75_);}
	.st97{fill:#C4C4C4;}
	.st98{fill:#3CA9DA;}
	.st99{fill:#F9F9FA;}
	.st100{fill:#737F85;}
	.st101{fill:#A7C639;}
	.st102{fill:#A9B838;}
	.st103{clip-path:url(#SVGID_77_);}
	.st104{clip-path:url(#SVGID_79_);}
	.st105{clip-path:url(#SVGID_81_);}
	.st106{clip-path:url(#SVGID_83_);}
	.st107{clip-path:url(#SVGID_85_);}
	.st108{clip-path:url(#SVGID_87_);}
	.st109{fill:#4369B2;}
	.st110{fill:#F7F8F8;}
	.st111{fill:#050605;}
	.st112{fill:#C2C1C1;}
	.st113{fill:#E5E5E5;}
	.st114{fill:#898989;}
	.st115{fill:#7656A4;}
	.st116{fill:#83C341;}
	.st117{fill:#F4AA4A;}
	.st118{fill:#FEF383;}
	.st119{fill:#F1F6F2;}
	.st120{fill:#51C5D1;}
	.st121{fill:#374949;}
	.st122{fill:#AEAEAE;}
	.st123{fill:#BCE6FB;}
	.st124{fill:#3E2111;}
	.st125{fill:#DE0F79;}
	.st126{fill:#6D7D7D;}
	.st127{clip-path:url(#SVGID_89_);}
	.st128{clip-path:url(#SVGID_91_);}
	.st129{clip-path:url(#SVGID_93_);}
	.st130{clip-path:url(#SVGID_95_);}
	.st131{clip-path:url(#SVGID_97_);}
	.st132{clip-path:url(#SVGID_99_);}
	.st133{clip-path:url(#SVGID_101_);}
	.st134{clip-path:url(#SVGID_103_);}
	.st135{clip-path:url(#SVGID_105_);}
	.st136{clip-path:url(#SVGID_107_);}
	.st137{clip-path:url(#SVGID_109_);}
	.st138{clip-path:url(#SVGID_111_);}
	.st139{clip-path:url(#SVGID_113_);}
	.st140{clip-path:url(#SVGID_115_);}
	.st141{clip-path:url(#SVGID_117_);}
	.st142{clip-path:url(#SVGID_119_);}
	.st143{clip-path:url(#SVGID_121_);}
	.st144{clip-path:url(#SVGID_123_);}
	.st145{clip-path:url(#SVGID_125_);}
	.st146{clip-path:url(#SVGID_127_);}
	.st147{clip-path:url(#SVGID_129_);}
	.st148{clip-path:url(#SVGID_131_);}
	.st149{clip-path:url(#SVGID_133_);}
	.st150{clip-path:url(#SVGID_135_);}
	.st151{clip-path:url(#SVGID_137_);}
	.st152{clip-path:url(#SVGID_139_);}
	.st153{clip-path:url(#SVGID_141_);}
	.st154{clip-path:url(#SVGID_143_);}
	.st155{clip-path:url(#SVGID_145_);}
	.st156{clip-path:url(#SVGID_147_);}
	.st157{clip-path:url(#SVGID_149_);}
	.st158{clip-path:url(#SVGID_151_);}
	.st159{clip-path:url(#SVGID_153_);}
	.st160{clip-path:url(#SVGID_155_);}
	.st161{clip-path:url(#SVGID_157_);}
	.st162{clip-path:url(#SVGID_159_);}
	.st163{clip-path:url(#SVGID_161_);}
	.st164{fill:#DEDEDD;}
	.st165{fill:#F7BF2F;}
	.st166{fill:#010101;}
</style>
<g>
	<g>
		<g>
			<rect y="315" class="st0" width="1054.6" height="27.2"/>
		</g>
	</g>
	<g>
		<g>
			<g>
				<path class="st1" d="M487.6,203.3l-62.5-28.6l-9.9,21.1l62.5,32.1c0,0,21.5,10.7,24.7-6.6C505,207.5,487.6,203.3,487.6,203.3z"
					/>
			</g>
		</g>
		<g>
			<g>
				<path class="st2" d="M620.4,301.2l-134.7,0.5l3.4-125.8c0-17.2,23.8-35.4,41.1-35.4h49c17.2,0,37.1,13.2,37.1,30.5L620.4,301.2z
					"/>
			</g>
		</g>
		<g>
			<g>
				<path class="st3" d="M570.9,141.8c0,7.9-6.4,14.3-14.3,14.3l0,0c-7.9,0-14.3-6.4-14.3-14.3v-19.5c0-7.9,6.4-14.3,14.3-14.3l0,0
					c7.9,0,14.3,6.4,14.3,14.3V141.8z"/>
			</g>
		</g>
		<g>
			<g>
				<path class="st4" d="M651.9,146.1c0,0,3.6-12.3,6.3-20.8c3.4-10.5,6.5-13.5,8.2-9.3s0.5,15.2,0.5,15.2s12.8-13.7,16.9-6
					c8.1,15.2,5.7,25.2-9.2,31.8c-4.2,1.8-10.7,4.7-10.7,4.7S645.2,154.2,651.9,146.1z"/>
			</g>
		</g>
		<g>
			<g>
				<path class="st2" d="M611.2,200.6l40.6-55.5l19,13.5L632,217.3c0,0-13.5,19.8-24.8,6.4C598.1,212.8,611.2,200.6,611.2,200.6z"/>
			</g>
		</g>
		<g>
			<g>
				<g>
					
						<rect x="404.4" y="97.2" transform="matrix(0.9274 -0.3741 0.3741 0.9274 -25.1594 175.9442)" class="st5" width="72.5" height="111.1"/>
				</g>
			</g>
			<g>
				<g>
					
						<rect x="404.3" y="96.8" transform="matrix(0.9274 -0.3741 0.3741 0.9274 -24.858 175.5108)" class="st6" width="70.8" height="109.9"/>
				</g>
			</g>
			<g>
				<g>
					
						<rect x="403.8" y="97.2" transform="matrix(0.9274 -0.3741 0.3741 0.9274 -24.5094 174.9563)" class="st5" width="69.3" height="106.8"/>
				</g>
			</g>
			<g>
				<g>
					
						<rect x="403.4" y="96.5" transform="matrix(0.9274 -0.3741 0.3741 0.9274 -24.1786 174.7453)" class="st0" width="69.3" height="106.3"/>
				</g>
			</g>
			<g>
				<g>
					<path class="st7" d="M428.3,205.6c-0.1-0.2-0.3-0.3-0.7-0.4c0-0.1,0-0.1-0.1-0.2c-0.4-0.9-1.1-1.6-2.1-1.9
						c0.1,0,0.3-0.1,0.4-0.1c0.7-0.3,1.1-0.8,0.9-1.2c-0.1-0.2-0.4-0.3-0.7-0.4c0-0.1,0-0.1-0.1-0.2c-0.4-1-1.2-1.6-2.2-2
						c0.1,0,0.3-0.1,0.4-0.1c0.7-0.3,1.1-0.8,0.9-1.2c-0.1-0.2-0.3-0.3-0.7-0.4c0-0.1,0-0.1-0.1-0.2c-0.4-0.9-1.1-1.6-2.1-2
						c0.1,0,0.3-0.1,0.4-0.1c0.7-0.3,1.1-0.8,0.9-1.2c-0.1-0.2-0.3-0.3-0.7-0.4c0-0.1,0-0.1-0.1-0.2c-0.4-1-1.2-1.6-2.2-2
						c0.1,0,0.3-0.1,0.4-0.1c0.7-0.3,1.1-0.8,0.9-1.2c-0.1-0.2-0.4-0.3-0.7-0.4c0-0.1,0-0.1-0.1-0.2c-0.4-0.9-1.1-1.6-2.1-1.9
						c0.1,0,0.3-0.1,0.4-0.1c0.7-0.3,1.1-0.8,0.9-1.2c-0.1-0.2-0.3-0.3-0.7-0.4c0-0.1,0-0.1-0.1-0.2c-0.4-1-1.2-1.6-2.2-2
						c0.1,0,0.3-0.1,0.4-0.1c0.7-0.3,1.1-0.8,0.9-1.2c-0.1-0.2-0.4-0.3-0.7-0.4c0-0.1,0-0.1-0.1-0.2c-0.4-0.9-1.1-1.6-2.1-2
						c0.1,0,0.3-0.1,0.4-0.1c0.7-0.3,1.1-0.8,0.9-1.2c-0.1-0.2-0.3-0.3-0.7-0.4c0-0.1,0-0.1-0.1-0.2c-0.4-0.9-1.1-1.6-2.1-1.9
						c0.1,0,0.2-0.1,0.4-0.1c0.7-0.3,1.1-0.8,0.9-1.2c-0.1-0.2-0.3-0.3-0.7-0.4c0-0.1,0-0.1-0.1-0.2c-0.4-0.9-1.1-1.6-2.1-1.9
						c0.1,0,0.3-0.1,0.4-0.1c0.7-0.3,1.1-0.8,0.9-1.2c-0.1-0.2-0.3-0.3-0.7-0.4c0-0.1,0-0.1-0.1-0.2c-0.4-1-1.2-1.6-2.2-2
						c0.1,0,0.3-0.1,0.4-0.1c0.7-0.3,1.1-0.8,0.9-1.2c-0.1-0.2-0.3-0.3-0.7-0.4c0-0.1,0-0.1-0.1-0.2c-0.4-0.9-1.1-1.6-2.1-1.9
						c0.1,0,0.3-0.1,0.4-0.1c0.7-0.3,1.1-0.8,0.9-1.2c-0.1-0.2-0.4-0.3-0.7-0.4c0-0.1,0-0.1-0.1-0.2c-0.4-1-1.2-1.6-2.2-2
						c0.1,0,0.3-0.1,0.4-0.1c0.7-0.3,1.1-0.8,0.9-1.2c-0.1-0.2-0.3-0.3-0.7-0.4c0-0.1,0-0.1-0.1-0.2c-0.4-0.9-1.1-1.6-2.1-2
						c0.1,0,0.3-0.1,0.4-0.1c0.7-0.3,1.1-0.8,0.9-1.2c-0.1-0.2-0.3-0.3-0.7-0.4c0-0.1,0-0.1-0.1-0.2c-0.4-1-1.2-1.6-2.2-2
						c0.1,0,0.3-0.1,0.4-0.1c0.7-0.3,1.1-0.8,0.9-1.2c-0.1-0.2-0.4-0.3-0.7-0.4c0-0.1,0-0.1-0.1-0.2c-0.4-0.9-1.1-1.6-2.1-1.9
						c0.1,0,0.3-0.1,0.4-0.1c0.7-0.3,1.1-0.8,0.9-1.2c-0.1-0.2-0.3-0.3-0.7-0.4c0-0.1,0-0.1-0.1-0.2c-0.4-0.9-1.1-1.6-2.1-1.9
						c0.1,0,0.2-0.1,0.4-0.1c0.7-0.3,1.1-0.8,0.9-1.2c-0.1-0.2-0.3-0.3-0.7-0.4c0-0.1,0-0.1-0.1-0.2c-0.4-0.9-1.1-1.6-2.1-2
						c0.1,0,0.3-0.1,0.4-0.1c0.7-0.3,1.1-0.8,0.9-1.2c-0.1-0.2-0.4-0.3-0.7-0.4c0-0.1,0-0.1-0.1-0.2c-0.4-1-1.2-1.6-2.2-2
						c0.1,0,0.3-0.1,0.4-0.1c0.7-0.3,1.1-0.8,0.9-1.2c-0.1-0.2-0.3-0.3-0.7-0.4c0-0.1,0-0.1-0.1-0.2c-0.4-0.9-1.1-1.6-2.1-2
						c0.1,0,0.3-0.1,0.4-0.1c0.7-0.3,1.1-0.8,0.9-1.2c-0.1-0.2-0.3-0.3-0.7-0.4c0-0.1,0-0.1-0.1-0.2c-0.4-1-1.2-1.6-2.2-2
						c0.1,0,0.3-0.1,0.4-0.1c0.7-0.3,1.1-0.8,0.9-1.2c-0.1-0.2-0.4-0.3-0.7-0.4c0-0.1,0-0.1-0.1-0.2c-0.4-0.9-1.1-1.6-2.1-1.9
						c0.1,0,0.3-0.1,0.4-0.1c0.7-0.3,1.1-0.8,0.9-1.2c-0.1-0.2-0.3-0.3-0.7-0.4c0-0.1,0-0.1-0.1-0.2c-0.4-1-1.2-1.6-2.2-2
						c0.1,0,0.3-0.1,0.4-0.1c0.7-0.3,1.1-0.8,0.9-1.2c-0.1-0.2-0.4-0.3-0.7-0.4c0-0.1,0-0.1-0.1-0.2c-0.4-0.9-1.1-1.6-2.1-1.9
						c0.1,0,0.3-0.1,0.4-0.1c0.7-0.3,1.1-0.8,0.9-1.2c-0.1-0.2-0.3-0.3-0.7-0.4c0-0.1,0-0.1-0.1-0.2c-0.8-2-3.3-2.8-5.6-1.9
						c-2.3,0.9-3.5,3.3-2.7,5.2c0.3,0.7,0.8,1.3,1.4,1.6c-0.2,0.7-0.2,1.5,0.1,2.2c0.3,0.7,0.8,1.3,1.4,1.6
						c-0.2,0.7-0.2,1.5,0.1,2.2c0.3,0.7,0.8,1.3,1.4,1.6c-0.2,0.7-0.2,1.5,0.1,2.2c0.3,0.7,0.8,1.3,1.4,1.6
						c-0.2,0.7-0.2,1.5,0.1,2.2c0.3,0.7,0.8,1.3,1.4,1.6c-0.2,0.7-0.2,1.5,0.1,2.1c0.3,0.7,0.8,1.3,1.4,1.6
						c-0.2,0.7-0.2,1.5,0.1,2.2c0.3,0.7,0.8,1.3,1.4,1.6c-0.2,0.7-0.2,1.5,0.1,2.2c0.3,0.7,0.8,1.2,1.4,1.6
						c-0.2,0.7-0.2,1.4,0.1,2.1c0.3,0.7,0.8,1.3,1.4,1.6c-0.2,0.7-0.2,1.5,0.1,2.2c0.3,0.7,0.8,1.3,1.4,1.6
						c-0.2,0.7-0.2,1.5,0.1,2.2c0.3,0.7,0.8,1.3,1.4,1.6c-0.2,0.7-0.2,1.5,0.1,2.1c0.3,0.7,0.8,1.3,1.4,1.6
						c-0.2,0.7-0.2,1.5,0.1,2.2c0.3,0.7,0.8,1.3,1.4,1.6c-0.2,0.7-0.2,1.5,0.1,2.2c0.3,0.7,0.8,1.3,1.4,1.6
						c-0.2,0.7-0.2,1.5,0.1,2.2c0.3,0.7,0.8,1.3,1.4,1.6c-0.2,0.7-0.2,1.5,0.1,2.2c0.3,0.7,0.8,1.2,1.4,1.6
						c-0.2,0.7-0.2,1.4,0.1,2.1c0.3,0.7,0.8,1.3,1.4,1.6c-0.2,0.7-0.2,1.5,0.1,2.2c0.3,0.7,0.8,1.3,1.4,1.6
						c-0.2,0.7-0.2,1.5,0.1,2.2c0.3,0.7,0.8,1.3,1.4,1.6c-0.2,0.7-0.2,1.5,0.1,2.2c0.3,0.7,0.8,1.3,1.4,1.6
						c-0.2,0.7-0.2,1.5,0.1,2.2c0.3,0.7,0.8,1.3,1.4,1.6c-0.2,0.7-0.2,1.5,0.1,2.2c0.3,0.7,0.8,1.3,1.4,1.6
						c-0.2,0.7-0.2,1.5,0.1,2.2c0.3,0.7,0.8,1.3,1.4,1.6c-0.2,0.7-0.2,1.5,0.1,2.2c0.7,1.9,3.1,2.7,5.3,2l0.3-0.1l-0.6-1.5l-0.2,0.1
						c-1.4,0.5-2.8,0-3.3-1.1c-0.1-0.3-0.1-0.7-0.1-1c0.7,0.1,1.6,0.1,2.3-0.2l0.3-0.1l-0.6-1.5l-0.2,0.1c-0.3,0.1-0.5,0.1-0.8,0.1
						c0.3-0.2,0.5-0.4,0.9-0.5c1.5-0.6,3-0.2,3.5,1c0,0,0,0.1,0.1,0.2c-0.2,0.2-0.3,0.5-0.2,0.7c0.2,0.4,0.8,0.5,1.5,0.2
						C428.1,206.5,428.5,205.9,428.3,205.6z M385.5,120.3c-0.5-1.1,0.4-2.5,1.8-3.1c1.5-0.6,3-0.2,3.5,1c0,0,0,0.1,0.1,0.2
						c-0.2,0.2-0.3,0.5-0.2,0.7l0.1,0.1c-0.8-0.1-1.7,0-2.5,0.3c-0.9,0.4-1.6,0.9-2.1,1.6C385.9,120.8,385.6,120.6,385.5,120.3z
						 M387,124.1c-0.1-0.3-0.1-0.7-0.1-1c0.7,0.1,1.6,0.1,2.3-0.2l0.3-0.1l-0.6-1.5l-0.2,0.1c-0.3,0.1-0.5,0.1-0.8,0.1
						c0.3-0.2,0.5-0.4,0.9-0.5c1.5-0.6,3-0.2,3.5,1c0,0,0,0.1,0.1,0.2c-0.2,0.2-0.3,0.5-0.2,0.7c0,0.1,0.1,0.1,0.1,0.1
						c-0.8-0.1-1.7,0-2.5,0.3c-0.9,0.4-1.6,0.9-2.1,1.6C387.4,124.6,387.2,124.4,387,124.1z M388.6,127.9c-0.1-0.3-0.1-0.7,0-1.1
						c0.7,0.1,1.5,0.1,2.3-0.2l0.3-0.1l-0.6-1.5l-0.2,0.1c-0.2,0.1-0.4,0.1-0.6,0.1c0.2-0.2,0.5-0.3,0.8-0.4c1.5-0.6,3-0.2,3.5,1
						c0,0,0,0.1,0.1,0.2c-0.2,0.2-0.3,0.5-0.2,0.7l0.1,0.1c-0.8-0.1-1.7,0-2.5,0.3c-0.9,0.4-1.6,0.9-2.1,1.6
						C388.9,128.5,388.7,128.2,388.6,127.9z M390.1,131.7c-0.1-0.3-0.1-0.7-0.1-1c0.7,0.1,1.6,0.1,2.3-0.2l0.3-0.1l-0.6-1.5
						l-0.2,0.1c-0.3,0.1-0.5,0.1-0.8,0.1c0.3-0.2,0.5-0.4,0.9-0.5c1.5-0.6,3-0.2,3.5,1c0,0,0,0.1,0.1,0.2c-0.2,0.2-0.3,0.5-0.2,0.7
						c0,0.1,0.1,0.1,0.1,0.1c-0.8-0.1-1.7,0-2.5,0.3c-0.9,0.4-1.6,0.9-2.1,1.6C390.5,132.3,390.2,132,390.1,131.7z M391.6,135.5
						c-0.1-0.3-0.1-0.7-0.1-1.1c0.7,0.1,1.5,0.1,2.3-0.2l0.3-0.1l-0.6-1.5l-0.2,0.1c-0.2,0.1-0.4,0.1-0.6,0.1
						c0.2-0.2,0.5-0.3,0.8-0.4c1.5-0.6,3-0.2,3.5,1c0,0,0,0.1,0.1,0.2c-0.2,0.2-0.3,0.5-0.2,0.7l0.1,0.1c-0.8-0.1-1.7,0-2.5,0.3
						c-0.9,0.4-1.6,0.9-2.1,1.6C392,136.1,391.8,135.8,391.6,135.5z M393.2,139.3c-0.1-0.3-0.1-0.7-0.1-1c0.7,0.1,1.6,0.1,2.3-0.2
						l0.3-0.1l-0.6-1.5l-0.2,0.1c-0.3,0.1-0.5,0.1-0.8,0.1c0.3-0.2,0.5-0.4,0.9-0.5c1.5-0.6,3-0.2,3.5,1c0,0,0,0.1,0.1,0.2
						c-0.2,0.2-0.3,0.5-0.2,0.7c0,0.1,0.1,0.1,0.1,0.1c-0.8-0.1-1.7,0-2.5,0.3c-0.9,0.4-1.6,0.9-2.1,1.6
						C393.6,139.9,393.3,139.6,393.2,139.3z M394.7,143.1c-0.1-0.3-0.1-0.7,0-1.1c0.7,0.1,1.5,0.1,2.3-0.2l0.3-0.1l-0.6-1.5
						l-0.2,0.1c-0.2,0.1-0.4,0.1-0.6,0.1c0.2-0.2,0.5-0.3,0.8-0.4c1.5-0.6,3-0.2,3.5,1c0,0,0,0.1,0.1,0.2c-0.2,0.2-0.3,0.5-0.2,0.7
						l0.1,0.1c-0.8-0.1-1.7,0-2.5,0.3c-0.9,0.4-1.6,0.9-2.1,1.6C395.1,143.7,394.8,143.5,394.7,143.1z M396.2,146.9
						c-0.1-0.3-0.1-0.7-0.1-1c0.7,0.1,1.6,0.1,2.3-0.2l0.3-0.1l-0.6-1.5l-0.2,0.1c-0.3,0.1-0.5,0.1-0.8,0.1c0.3-0.2,0.5-0.4,0.9-0.5
						c1.5-0.6,3-0.2,3.5,1c0,0,0,0.1,0.1,0.2c-0.2,0.2-0.3,0.5-0.2,0.7c0,0,0,0,0.1,0.1c-0.8-0.1-1.6,0-2.5,0.3
						c-0.9,0.4-1.6,0.9-2.1,1.6C396.6,147.5,396.4,147.3,396.2,146.9z M397.8,150.7c-0.1-0.3-0.1-0.7-0.1-1c0.7,0.1,1.6,0.1,2.4-0.2
						l0.3-0.1l-0.6-1.5l-0.2,0.1c-0.3,0.1-0.5,0.1-0.8,0.1c0.3-0.2,0.6-0.4,0.9-0.5c1.5-0.6,3-0.2,3.5,1c0,0,0,0.1,0.1,0.2
						c-0.2,0.2-0.3,0.5-0.2,0.7l0.1,0.1c-0.8-0.1-1.7,0-2.5,0.3c-0.9,0.4-1.6,0.9-2.1,1.6C398.1,151.3,397.9,151,397.8,150.7z
						 M399.3,154.5c-0.1-0.3-0.1-0.7-0.1-1c0.7,0.1,1.6,0.1,2.3-0.2l0.3-0.1l-0.6-1.5l-0.2,0.1c-0.3,0.1-0.5,0.1-0.8,0.1
						c0.3-0.2,0.5-0.4,0.9-0.5c1.5-0.6,3-0.2,3.5,1c0,0,0,0.1,0.1,0.2c-0.2,0.2-0.3,0.5-0.2,0.7c0,0.1,0.1,0.1,0.1,0.1
						c-0.8-0.1-1.7,0-2.5,0.3c-0.9,0.4-1.6,0.9-2.1,1.6C399.7,155.1,399.4,154.8,399.3,154.5z M400.8,158.3c-0.1-0.3-0.1-0.7,0-1.1
						c0.7,0.1,1.5,0.1,2.3-0.2l0.3-0.1l-0.6-1.5l-0.2,0.1c-0.2,0.1-0.4,0.1-0.6,0.1c0.2-0.2,0.5-0.3,0.7-0.4c1.5-0.6,3-0.2,3.5,1
						c0,0,0,0.1,0.1,0.2c-0.2,0.2-0.3,0.5-0.2,0.7l0.1,0.1c-0.8-0.1-1.7,0-2.5,0.3c-0.9,0.4-1.6,0.9-2.1,1.6
						C401.2,158.9,401,158.6,400.8,158.3z M402.4,162.1c-0.1-0.3-0.1-0.7-0.1-1c0.7,0.1,1.6,0.1,2.3-0.2l0.3-0.1l-0.6-1.5l-0.2,0.1
						c-0.3,0.1-0.5,0.1-0.8,0.1c0.3-0.2,0.5-0.4,0.9-0.5c1.5-0.6,3-0.2,3.5,1c0,0,0,0.1,0.1,0.2c-0.2,0.2-0.3,0.5-0.2,0.7
						c0,0.1,0.1,0.1,0.1,0.1c-0.8-0.1-1.7,0-2.5,0.3c-0.9,0.4-1.6,0.9-2.1,1.6C402.8,162.7,402.5,162.4,402.4,162.1z M403.9,165.9
						c-0.1-0.3-0.1-0.7,0-1.1c0.7,0.1,1.5,0.1,2.3-0.2l0.3-0.1l-0.6-1.5l-0.2,0.1c-0.2,0.1-0.4,0.1-0.6,0.1c0.2-0.2,0.5-0.3,0.7-0.4
						c1.5-0.6,3-0.2,3.5,1c0,0,0,0.1,0.1,0.2c-0.2,0.2-0.3,0.5-0.2,0.7l0.1,0.1c-0.8-0.1-1.7,0-2.5,0.3c-0.9,0.4-1.6,0.9-2.1,1.6
						C404.3,166.5,404,166.3,403.9,165.9z M405.4,169.7c-0.1-0.3-0.1-0.7-0.1-1c0.7,0.1,1.5,0.1,2.3-0.2l0.3-0.1l-0.6-1.5l-0.2,0.1
						c-0.3,0.1-0.5,0.1-0.8,0.1c0.3-0.2,0.5-0.4,0.9-0.5c1.5-0.6,3-0.2,3.5,1c0,0,0,0.1,0.1,0.2c-0.2,0.2-0.3,0.5-0.2,0.7
						c0,0.1,0.1,0.1,0.1,0.1c-0.8-0.1-1.7,0-2.5,0.3c-0.9,0.4-1.6,0.9-2.1,1.6C405.8,170.3,405.6,170.1,405.4,169.7z M407,173.6
						c-0.1-0.3-0.1-0.7,0-1.1c0.7,0.1,1.5,0.1,2.3-0.2l0.3-0.1l-0.6-1.5l-0.2,0.1c-0.2,0.1-0.4,0.1-0.6,0.1c0.2-0.2,0.5-0.3,0.7-0.4
						c1.5-0.6,3-0.2,3.5,1c0,0,0,0.1,0.1,0.2c-0.2,0.2-0.3,0.5-0.2,0.7l0.1,0.1c-0.8-0.1-1.7,0-2.5,0.3c-0.9,0.4-1.6,0.9-2.1,1.6
						C407.4,174.1,407.1,173.9,407,173.6z M408.5,177.4c-0.1-0.3-0.1-0.7-0.1-1c0.7,0.1,1.6,0.1,2.3-0.2l0.3-0.1l-0.6-1.5l-0.2,0.1
						c-0.3,0.1-0.5,0.1-0.8,0.1c0.3-0.2,0.5-0.4,0.9-0.5c1.5-0.6,3-0.2,3.5,1c0,0,0,0.1,0.1,0.2c-0.2,0.2-0.3,0.5-0.2,0.7
						c0,0,0,0,0.1,0.1c-0.8-0.1-1.6,0-2.5,0.3c-0.9,0.4-1.6,0.9-2.1,1.6C408.9,177.9,408.6,177.7,408.5,177.4z M410,181.1
						c-0.1-0.3-0.1-0.7-0.1-1c0.7,0.1,1.6,0.1,2.4-0.2l0.3-0.1l-0.6-1.5l-0.2,0.1c-0.3,0.1-0.6,0.1-0.8,0.1c0.3-0.2,0.6-0.4,0.9-0.6
						c1.5-0.6,3-0.2,3.5,1c0,0,0,0.1,0.1,0.2c-0.2,0.2-0.3,0.5-0.2,0.7l0.1,0.1c-0.8-0.1-1.7,0-2.5,0.3c-0.9,0.4-1.6,0.9-2.1,1.6
						C410.4,181.7,410.2,181.4,410,181.1z M411.6,184.9c-0.1-0.3-0.1-0.7-0.1-1c0.7,0.1,1.6,0.1,2.3-0.2l0.3-0.1l-0.6-1.5l-0.2,0.1
						c-0.3,0.1-0.5,0.1-0.8,0.1c0.3-0.2,0.5-0.4,0.9-0.5c1.5-0.6,3-0.2,3.5,1c0,0,0,0.1,0.1,0.2c-0.2,0.2-0.3,0.5-0.2,0.7
						c0,0.1,0.1,0.1,0.1,0.1c-0.8-0.1-1.7,0-2.5,0.3c-0.9,0.4-1.6,0.9-2.1,1.6C412,185.5,411.7,185.2,411.6,184.9z M413.1,188.7
						c-0.1-0.3-0.1-0.7,0-1.1c0.7,0.1,1.5,0.1,2.3-0.2l0.3-0.1l-0.6-1.5l-0.2,0.1c-0.2,0.1-0.4,0.1-0.6,0.1c0.2-0.2,0.5-0.3,0.7-0.4
						c1.5-0.6,3-0.2,3.5,1c0,0,0,0.1,0.1,0.2c-0.2,0.2-0.3,0.5-0.2,0.7l0.1,0.1c-0.8-0.1-1.7,0-2.5,0.3c-0.9,0.4-1.6,0.9-2.1,1.6
						C413.5,189.3,413.2,189.1,413.1,188.7z M414.6,192.5c-0.1-0.3-0.1-0.7-0.1-1c0.7,0.1,1.6,0.1,2.3-0.2l0.3-0.1l-0.6-1.5
						l-0.2,0.1c-0.3,0.1-0.5,0.1-0.8,0.1c0.3-0.2,0.5-0.4,0.9-0.5c1.5-0.6,3-0.2,3.5,1c0,0,0,0.1,0.1,0.2c-0.2,0.2-0.3,0.5-0.2,0.7
						c0,0.1,0.1,0.1,0.1,0.1c-0.8-0.1-1.7,0-2.5,0.3c-0.9,0.4-1.6,0.9-2.1,1.6C415,193.1,414.8,192.9,414.6,192.5z M416.2,196.4
						c-0.1-0.3-0.1-0.7-0.1-1.1c0.7,0.1,1.5,0.1,2.3-0.2l0.3-0.1l-0.6-1.5l-0.2,0.1c-0.2,0.1-0.4,0.1-0.6,0.1
						c0.2-0.2,0.5-0.3,0.8-0.4c1.5-0.6,3-0.2,3.5,1c0,0,0,0.1,0.1,0.2c-0.2,0.2-0.3,0.5-0.2,0.7l0.1,0.1c-0.8-0.1-1.7,0-2.5,0.3
						c-0.9,0.4-1.6,0.9-2.1,1.6C416.6,196.9,416.3,196.7,416.2,196.4z M417.7,200.1c-0.1-0.3-0.1-0.7-0.1-1c0.7,0.1,1.5,0.1,2.3-0.2
						l0.3-0.1l-0.6-1.5l-0.2,0.1c-0.3,0.1-0.5,0.1-0.8,0.1c0.3-0.2,0.5-0.4,0.9-0.5c1.5-0.6,3-0.2,3.5,1c0,0,0,0.1,0.1,0.2
						c-0.2,0.2-0.3,0.5-0.2,0.7c0,0.1,0.1,0.1,0.1,0.1c-0.8-0.1-1.7,0-2.5,0.3c-0.9,0.4-1.6,0.9-2.1,1.6
						C418.1,200.7,417.8,200.5,417.7,200.1z M422,203.1c-0.9,0.4-1.6,0.9-2.1,1.6c-0.3-0.2-0.5-0.4-0.7-0.8c-0.1-0.3-0.1-0.7,0-1.1
						c0.7,0.1,1.5,0.1,2.3-0.2l0.3-0.1l-0.6-1.5l-0.2,0.1c-0.2,0.1-0.4,0.1-0.6,0.1c0.2-0.2,0.5-0.3,0.7-0.4c1.5-0.6,3-0.2,3.5,1
						c0,0,0,0.1,0.1,0.2c-0.2,0.2-0.3,0.5-0.2,0.7l0.1,0.1C423.7,202.7,422.9,202.8,422,203.1z"/>
				</g>
			</g>
			<g>
				<g>
					
						<rect x="407.2" y="119.6" transform="matrix(0.9274 -0.3742 0.3742 0.9274 -15.8277 169.9923)" class="st6" width="45.3" height="12.4"/>
				</g>
			</g>
		</g>
		<g>
			<g>
				<g>
					<g>
						<path class="st8" d="M677.6,181.8c-0.7,0.1-1.2,1-1.1,2l0.5,4.9c0.1,0.7,1.3,5.5,1.3,5.5c0,0.5,0.3,0.8,0.6,0.8
							s0.5-0.4,0.5-0.9c0,0,0.3-4.9,0.2-5.6l-0.5-4.9C679,182.6,678.3,181.8,677.6,181.8z"/>
					</g>
				</g>
				<g>
					<g>
						<path class="st9" d="M681.3,181.1c0.3,3.1-1.2,5.8-3.4,6l0,0c-2.2,0.2-4.2-2.2-4.5-5.3l-8.8-93.5c-0.3-3.1,1.2-5.8,3.4-6l0,0
							c2.2-0.2,4.2,2.2,4.5,5.3L681.3,181.1z"/>
					</g>
				</g>
				<g>
					<g>
						<path class="st10" d="M670.8,153.7l2.6,28c0.3,3.1,2.3,5.5,4.5,5.3s3.7-2.9,3.4-6l-2.6-28L670.8,153.7z"/>
					</g>
				</g>
				<g>
					<g>
						<path class="st11" d="M676.7,186.5c0.4,0.1,0.7,0.2,1.1,0.1c0.5-0.1,1-0.3,1.5-0.6l-3-32.4l-2.6,0.2L676.7,186.5z"/>
					</g>
				</g>
				<g>
					<g>
						<path class="st9" d="M680.5,187.2c0.1,0.8-0.3,1.4-0.8,1.5l-3.1,0.3c-0.5,0.1-1-0.5-1.1-1.3l0,0c-0.1-0.8,0.3-1.4,0.8-1.5
							l3.1-0.3C680,185.8,680.5,186.4,680.5,187.2L680.5,187.2z"/>
					</g>
				</g>
				<g class="st12">
					<g>
						
							<rect x="672.9" y="174.4" transform="matrix(0.9956 -9.391213e-002 9.391213e-002 0.9956 -13.5279 64.343)" class="st10" width="7.9" height="3"/>
					</g>
				</g>
				<g>
					<g>
						
							<rect x="670.8" y="151.5" transform="matrix(0.9956 -9.323472e-002 9.323472e-002 0.9956 -11.3577 63.5749)" class="st0" width="7.9" height="3.7"/>
					</g>
				</g>
			</g>
			<g>
				<g>
					<path class="st0" d="M674,82.6c-0.4-4-3.1-7-6.2-6.7c-3,0.3-5.2,3.8-4.8,7.7l2.8,29.6l11-1L674,82.6z"/>
				</g>
			</g>
			<g>
				<g>
					
						<rect x="674.3" y="82.5" transform="matrix(0.9956 -9.418878e-002 9.418878e-002 0.9956 -5.1548 64.0029)" class="st9" width="2.2" height="8.2"/>
				</g>
			</g>
			<g>
				<g>
					<path class="st0" d="M681,115.2c0.1,0.6-0.4,1.1-1,1.2l0,0c-0.6,0.1-1.1-0.4-1.2-1l-3.1-32.7c-0.1-0.6,0.4-1.2,1-1.2l0,0
						c0.6-0.1,1.1,0.4,1.2,1L681,115.2z"/>
				</g>
			</g>
		</g>
		<g>
			<g>
				<g>
					<path class="st13" d="M603.7,77.5c0,29.9-29,54.2-45.6,54.2c-15.1,0-45.6-24.3-45.6-54.2s20.4-54.2,45.6-54.2
						C583.3,23.2,603.7,47.5,603.7,77.5z"/>
				</g>
			</g>
			<g>
				<g>
					<path class="st14" d="M557.7,23.4l-2.5,78.5l2.5,1.3v28.3c19.7,0,46-25.6,46-54C603.7,48.6,582.3,25,557.7,23.4z"/>
				</g>
			</g>
			<g>
				<g>
					<g>
						<path class="st15" d="M502.9,70c-0.2-1.4-3.8-33.8,14.4-54.2C526.6,5.3,540,0,557,0s30.5,5.3,40,15.8
							c18.6,20.4,15.8,52.8,15.6,54.1l-4.3-0.4c0-0.3,2.7-31.9-14.6-50.9c-8.6-9.5-21-14.3-36.7-14.3s-28,4.8-36.4,14.3
							c-16.9,19-13.4,50.6-13.4,50.9L502.9,70z"/>
					</g>
				</g>
			</g>
			<g>
				<g>
					<path class="st0" d="M509.3,42.8l2.6,39.7c0,0,5.9-31.6,17-34.6c11.2-3.1,19.2-2.3,19.2-2.3l24.6,3.8l-4.2-5.4
						c0,0,21.5,0,24.6,10.8s9.8,31.2,9.8,31.2s4.3-35,2.9-45c-1.2-8.3-4.2-21.5-15.8-26.2c-11.5-4.6-16.9-1.9-16.9-1.9l8.8-4.2h-21
						V5.1c0,0-28.2,3.8-38.6,11.5C512,24.4,510.1,32,509.3,42.8z"/>
				</g>
			</g>
			<g>
				<g>
					<path class="st16" d="M515.4,91.7c0,4.2-3.4,7.6-7.6,7.6l0,0c-4.2,0-7.6-3.4-7.6-7.6V66.2c0-4.2,3.4-7.6,7.6-7.6l0,0
						c4.2,0,7.6,3.4,7.6,7.6V91.7z"/>
				</g>
			</g>
			<g>
				<g>
					<path class="st15" d="M500.1,92.5L500.1,92.5c-2.1,0-3.8-1.7-3.8-3.8V68.5c0-2.1,1.7-3.8,3.8-3.8l0,0
						C502.2,64.8,502.2,92.5,500.1,92.5z"/>
				</g>
			</g>
			<g>
				<g>
					<path class="st16" d="M597.7,90.6c0,4.2,3.4,7.6,7.6,7.6l0,0c4.2,0,7.6-3.4,7.6-7.6V65.1c0-4.2-3.4-7.6-7.6-7.6l0,0
						c-4.2,0-7.6,3.4-7.6,7.6V90.6z"/>
				</g>
			</g>
			<g>
				<g>
					<path class="st15" d="M612.9,91.3L612.9,91.3c2.1,0,3.8-1.7,3.8-3.8V67.4c0-2.1-1.7-3.8-3.8-3.8l0,0
						C610.8,63.6,610.8,91.3,612.9,91.3z"/>
				</g>
			</g>
			<g>
				<g>
					<path class="st2" d="M604.6,98c-0.1,0.2-6.2,23.2-16.8,36.2c-12.9,15.8-28.7,24.4-31.2,25.7h-0.1c-2.1-1.2-13.6-8-23.6-19.8
						c-11-13-20.4-41.8-20.5-42.1l-1.2,0.4c0.1,0.3,9.6,29.4,20.8,42.6c9.7,11.5,20.9,18.4,23.6,20v12.2h1.9V161
						c3.3-1.8,18.7-10.4,31.3-25.9c10.8-13.3,17-36.5,17.1-36.7L604.6,98z"/>
				</g>
			</g>
			<g>
				<g>
					<path class="st0" d="M603,44.9c0,0-2.3-6.7-5.8-10.1c-3-2.9-6.4-6.4-10.1-8.3c-1.3-0.6-2.6-1.1-3.8-1.8c1.2-1.4,3.3-1.9,4.7-3
						c-2.4,0-5.2-1.4-7.4-2.2c-2-0.7-4.9-1-6.6-2.2c0.5-1.3,2.6-1.6,3.5-2.8c-8.4-0.3-16.8,1.8-24.6,5c-0.4-1.7,1.4-4.4,2.1-5.9
						c-0.8,0.9-2.4,1.6-3.5,2.4c-2.6,2-5,4.4-7.5,6.6c-3.3,3-7,6.2-9.4,9.8c3.7,0,7.5,0.5,11.3,0.5c-1.7,0.5-10.5,4.7-12.4,5.8
						c1,0.5,14.9,4.3,15.2,6.6h-0.2c1.8,1.1,28.5,6.7,30.3,6.5c-1-1.1-1.7-3.4-2.3-4.8c3.9,0.1,8,2.6,11.2,4.6
						c2.5,1.6,6.9,4.1,7.6,7.2c0.8-2.9,0.3-6.2,0.5-9.3c2,0.1,3.9,3.1,3.9,4.9c0.2-3.1-0.9-8.7-2.9-11.1C600,43.1,603,44.9,603,44.9
						z"/>
				</g>
			</g>
		</g>
		<g>
			<g>
				<path class="st4" d="M406.6,192.2c0,0-8.9-8.3-11.9-19.3s-6.1-28.2-1-24.1c2.9,2.4,4.2,6.1,4.8,9.7c1.6-3.6,2.1-8.5,5-11.7
					c1.3-1.5,2.7-2.5,4.8-2.9c1.1-0.2,4.6-1.1,5.3,0c1.5,2.3-2.8,5.9-4.5,8.1c3.2-1.1,6.1-5.2,9.9-4.9c2.7,0.3,3.7,3.1,1.6,5.5
					c4.4,0.1,8.3,1.6,5.7,5.9c-1.9,3.3-8.5,5.7-8.5,9.6c1.7-2.7,4.8-4.5,8-3.5c7.4,2.3-7.2,10.2-8,14.3c0,0-1.7,15.4-4,16.5
					C409.5,197.6,406.6,192.2,406.6,192.2z"/>
			</g>
		</g>
		<g>
			<g>
				<path class="st17" d="M548.4,113.3h19.2c0,0-4.4,5.4-9.6,5.3C552.8,118.4,548.4,113.3,548.4,113.3z"/>
			</g>
		</g>
		<g>
			<g>
				<path class="st18" d="M599.2,67.1c0,0-6.2,0.6-8.7,0s-9.9-2.3-16.6-2c-6.8,0.3-15.2,3.9-15.2,3.9h-1.5H556h-1.5
					c0,0-8.5-3.7-15.2-3.9c-6.8-0.3-14.1,1.4-16.6,2s-8.7,0-8.7,0v6.2h2.8c0,0-3.4,20.6,16.9,21.1c20.3,0.6,20.9-18.9,20.9-18.9h1.5
					h1.1h1.5c0,0,0.6,19.5,20.9,18.9c20.3-0.6,16.9-21.1,16.9-21.1h2.8v-6.2H599.2z M535.5,91.8c-13.1,0.2-16.9-11-15.4-16.8
					c1.1-4,6.2-7.1,17.5-6.8c11,0.3,13.2,3.4,13.2,7.3C550.9,79.5,548.7,91.5,535.5,91.8z M577.6,91.8
					c-13.1-0.2-15.4-12.3-15.4-16.2c0-3.9,2.2-7,13.2-7.3c11.3-0.3,16.4,2.8,17.5,6.8C594.5,80.7,590.7,92,577.6,91.8z"/>
			</g>
		</g>
		<g>
			<g>
				<rect x="529" y="78.6" class="st16" width="11.4" height="2"/>
			</g>
		</g>
		<g>
			<g>
				<circle class="st16" cx="534.7" cy="81.2" r="2.2"/>
			</g>
		</g>
		<g>
			<g>
				<rect x="572.5" y="78.2" class="st16" width="11.4" height="2"/>
			</g>
		</g>
		<g>
			<g>
				<circle class="st16" cx="578.2" cy="80.8" r="2.2"/>
			</g>
		</g>
	</g>
	<g>
		<g>
			<g>
				<path class="st6" d="M145.4,306l1.2-3.4V301c0,0-0.5-1,0-1.9s22.6-1.7,22.6-1.7l-21-1.2l0.2-6.6c0,0,20.8-8.3,52.1-5.7
					c31.4,2.6,59.4,13,59.4,13s33-21.9,57.1-23.3s41,2.4,41,2.4s-28.8-1.8-41.5-0.6c-15.5,1.4-38.7,14.3-38.7,14.3s30.9-12.8,61.2-8
					c30.3,4.7,31.3,9.7,31.3,9.7v5l-17.7,1.7h17.7v8.2l-101.9,1.5c0,0-2,5.9-8.5,5.4c-6.5-0.4-10.1-6.9-10.1-6.9H145.4V306z"/>
			</g>
		</g>
		<g>
			<g>
				<path class="st19" d="M260.1,313c6.2,0,8.2-5.2,8.7-7.2h101.5v-2.9h-104v2.6c-0.5,1.2-1.9,3-6.2,3c-3.9,0-5.8-1.6-6.6-2.8v-2.8
					H146.4l-0.9,2.5v0.4h105.2C251.7,308.1,254.3,313,260.1,313z"/>
			</g>
		</g>
		<g>
			<g>
				<path class="st0" d="M379.8,306h-113v2.6c-0.5,1.2-2,3-6.5,3c-4.1,0-6-1.6-6.9-2.8V306h-113v2.9h110.1c1,2.3,3.8,5.3,9.8,5.3
					c6.5,0,8.4-3.3,9.1-5.3h110.4V306z"/>
			</g>
		</g>
	</g>
	<g>
		<g>
			<g>
				<g>
					<g>
						<path class="st20" d="M836.5,292.8l-5.6-1.8l12-39.8L850,229c0.6-2,2.8-3.2,4.8-2.5l0,0c2,0.6,3.1,2.8,2.5,4.8L850,254
							L836.5,292.8z"/>
					</g>
				</g>
				<g>
					<g>
						<polygon class="st8" points="850.4,253.3 843,251 843.9,247.9 851.3,250.4 						"/>
					</g>
				</g>
			</g>
			<g>
				<g>
					<path class="st20" d="M858.7,228.5c1-3.1-0.1-6.1-2.5-6.9c-2.3-0.7-5,1.1-6,4.2l-7.2,22.7l8.5,2.7L858.7,228.5z"/>
				</g>
			</g>
			<g>
				<g>
					
						<rect x="855.3" y="230.9" transform="matrix(0.3037 -0.9528 0.9528 0.3037 376.9692 979.4633)" class="st20" width="6.6" height="1.8"/>
				</g>
			</g>
			<g>
				<g>
					<path class="st8" d="M853.7,254.7c-0.4,1.2-1.9,0.3-2.2-0.5c-0.1-0.4-0.1-0.8-0.1-1.2c0.1-0.4,0.3-0.7,0.6-0.9
						c0.2-0.2,0.7-0.4,0.9-0.6c0.2-0.3,0.3-0.9,0.4-1.2c0.3-0.9,0.6-1.9,0.9-2.8c0.9-2.7,1.7-5.4,2.6-8.1c0.8-2.4,1.5-4.8,2.3-7.2
						c0.3-1,0.7-2.1,1-3.1c0.1-0.5,0.6-0.7,1.1-0.6c0.5,0.1,0.7,0.6,0.6,1.1C861.7,229.6,853.7,254.7,853.7,254.7z"/>
				</g>
			</g>
			<g>
				<g>
					<path class="st8" d="M831.1,291.1c-0.1,1.3,0.6,2.6,1.9,3c1.3,0.4,2.6-0.2,3.3-1.4L831.1,291.1z"/>
				</g>
			</g>
		</g>
		<g>
			<g>
				<g>
					<g>
						<path class="st8" d="M827.2,297.8c-0.6,0.1-0.9,0.8-0.8,1.7l0.6,3.9c0.1,0.6,1.2,4.3,1.2,4.3c0.1,0.4,0.3,0.6,0.5,0.6
							c0.3,0,0.4-0.4,0.4-0.7c0,0,0-3.9,0-4.5l-0.6-3.9C828.3,298.4,827.8,297.8,827.2,297.8z"/>
					</g>
				</g>
				<g>
					<g>
						<path class="st0" d="M830.1,297.1c0.4,2.5-0.8,4.7-2.5,5l0,0c-1.7,0.2-3.4-1.6-3.8-4.1l-10.6-74.4c-0.4-2.5,0.8-4.7,2.5-5l0,0
							c1.7-0.2,3.4,1.6,3.8,4.1L830.1,297.1z"/>
					</g>
				</g>
				<g>
					<g>
						<path class="st10" d="M820.6,275.6l3.2,22.3c0.4,2.5,2.1,4.3,3.8,4.1c1.7-0.2,2.8-2.5,2.5-5l-3.2-22.3L820.6,275.6z"/>
					</g>
				</g>
				<g>
					<g>
						<path class="st11" d="M826.7,301.6c0.3,0.1,0.6,0.1,0.9,0.1c0.4-0.1,0.8-0.2,1.2-0.5l-3.7-25.8l-2.1,0.3L826.7,301.6z"/>
					</g>
				</g>
				<g>
					<g>
						<path class="st21" d="M829.7,302c0.1,0.6-0.2,1.2-0.6,1.2l-2.4,0.4c-0.4,0.1-0.8-0.4-0.9-1l0,0c-0.1-0.6,0.2-1.2,0.6-1.2
							l2.4-0.4C829.2,300.9,829.6,301.4,829.7,302L829.7,302z"/>
					</g>
				</g>
				<g class="st12">
					<g>
						
							<rect x="823.2" y="291.9" transform="matrix(0.99 -0.1414 0.1414 0.99 -33.1401 119.7901)" class="st10" width="6.3" height="2.4"/>
					</g>
				</g>
				<g>
					<g>
						
							<rect x="820.6" y="273.7" transform="matrix(0.99 -0.1414 0.1414 0.99 -30.6352 119.2432)" class="st22" width="6.3" height="3"/>
					</g>
				</g>
			</g>
			<g>
				<g>
					<path class="st23" d="M820.4,218.7c-0.5-3.2-2.8-5.5-5.2-5.1c-2.4,0.3-4,3.2-3.6,6.4l3.4,23.6l8.8-1.3L820.4,218.7z"/>
				</g>
			</g>
			<g>
				<g>
					<polygon class="st23" points="823.1,224.9 821.3,225.2 820.4,218.7 822.2,218.4 					"/>
				</g>
			</g>
			<g>
				<g>
					<path class="st0" d="M827.3,244.4c0.1,0.5-0.3,0.9-0.7,1l0,0c-0.5,0.1-0.9-0.3-1-0.8l-3.7-26.1c-0.1-0.5,0.3-0.9,0.8-1l0,0
						c0.5-0.1,0.9,0.3,1,0.8L827.3,244.4z"/>
				</g>
			</g>
		</g>
		<g>
			<g>
				<g>
					
						<rect x="794.7" y="249.1" transform="matrix(3.935998e-002 -0.9992 0.9992 3.935998e-002 549.2864 1074.7009)" class="st24" width="77.8" height="5.2"/>
				</g>
			</g>
			<g>
				<g>
					<polygon class="st25" points="834.6,290.7 832,290.6 835.1,212.8 837.7,212.9 					"/>
				</g>
			</g>
			<g>
				<g>
					
						<ellipse transform="matrix(3.929007e-002 -0.9992 0.9992 3.929007e-002 592.4227 1036.4069)" class="st26" cx="835.2" cy="210.1" rx="2.7" ry="2.6"/>
				</g>
			</g>
			<g>
				<g>
					
						<rect x="833.7" y="208.8" transform="matrix(4.031120e-002 -0.9992 0.9992 4.031120e-002 590.2908 1037.3334)" class="st27" width="2.9" height="5.2"/>
				</g>
			</g>
			<g>
				<g>
					<path class="st28" d="M829.5,290.4l1.5,4.9l0.8,2.6l1-2.6l1.8-4.7c0,0-0.4-0.9-1.3-0.9c-0.9,0-1.3,0.8-1.3,0.8
						s-0.4-0.8-1.2-0.9C830,289.5,829.5,290.4,829.5,290.4z"/>
				</g>
			</g>
			<g>
				<g>
					<polygon class="st29" points="831.7,299.1 831,295.1 832.8,295.2 					"/>
				</g>
			</g>
		</g>
		<g>
			<g>
				<polygon class="st23" points="845.1,314.4 816.6,314.4 814.5,267.4 847,267.4 				"/>
			</g>
		</g>
		<g>
			<g>
				<rect x="811.1" y="311.5" class="st30" width="38.9" height="3.5"/>
			</g>
		</g>
	</g>
	<g>
		<g>
			<g>
				<path class="st7" d="M692,307.9c0,3.9-3.7,7.1-8.3,7.1H418.8c-4.6,0-8.3-3.2-8.3-7.1l0,0C410.5,304,692,304,692,307.9L692,307.9
					z"/>
			</g>
		</g>
		<g>
			<g>
				<path class="st9" d="M673.9,301.4c0,4.8-4,8.6-9,8.6H437.3c-5,0-9-3.9-9-8.6V175.2c0-4.8,4-8.6,9-8.6h227.6c5,0,9,3.9,9,8.6
					V301.4z"/>
			</g>
		</g>
		<g>
			<g>
				<path class="st31" d="M443.6,303.2c-4.6,0-8.3-3.6-8.3-7.9V179c0-4.4,3.7-7.9,8.3-7.9h209.8c4.6,0,8.3,3.6,8.3,7.9L443.6,303.2z
					"/>
			</g>
		</g>
		<g>
			<g>
				<g>
					<path class="st32" d="M554.7,238.4c-6.2,0-11.2-5-11.2-11.2s5-11.2,11.2-11.2s11.2,5,11.2,11.2S560.9,238.4,554.7,238.4z
						 M554.7,218.6c-4.7,0-8.6,3.9-8.6,8.6c0,4.7,3.9,8.6,8.6,8.6c4.7,0,8.6-3.9,8.6-8.6S559.4,218.6,554.7,218.6z"/>
				</g>
			</g>
		</g>
		<g>
			<g>
				<polygon class="st32" points="558.1,232.7 554.6,230.7 551,232.5 551.7,228.6 548.9,225.8 552.9,225.3 554.8,221.7 556.4,225.3 
					560.4,226 557.5,228.7 				"/>
			</g>
		</g>
	</g>
	<g>
		<g>
			<g>
				<path class="st0" d="M192.4,45.6H262c6.7,0,12.2,5.4,12.2,12.2V103c0,6.7-5.5,12.2-12.2,12.2h-47l-20,11.2l3.1-11.2h-5.8
					c-6.7,0-12.2-5.5-12.2-12.2V57.7C180.3,51,185.7,45.6,192.4,45.6z"/>
			</g>
		</g>
		<g>
			<g>
				<g>
					<path class="st33" d="M294.2,29.3h-69.6c-6.7,0-12.2,5.5-12.2,12.2v45.2c0,6.7,5.4,12.2,12.2,12.2h47l20,11.2l-3.1-11.2h5.8
						c6.7,0,12.2-5.5,12.2-12.2V41.5C306.4,34.7,301,29.3,294.2,29.3z"/>
				</g>
			</g>
			<g>
				<g>
					<g>
						<rect x="227.2" y="44.9" class="st17" width="66.1" height="8.4"/>
					</g>
				</g>
				<g>
					<g>
						<rect x="227.2" y="62.1" class="st17" width="66.1" height="4.1"/>
					</g>
				</g>
				<g>
					<g>
						<rect x="227.2" y="74.8" class="st17" width="44.2" height="4.5"/>
					</g>
				</g>
			</g>
		</g>
	</g>
	<g>
		<g>
			<g>
				
					<rect x="726.4" y="240" transform="matrix(0.1363 -0.9907 0.9907 0.1363 414.2237 958.5481)" class="st34" width="60.8" height="3.5"/>
			</g>
		</g>
		<g>
			<g>
				<polygon class="st17" points="762.9,315 731,315 726.3,241.8 767.3,241.8 				"/>
			</g>
		</g>
		<g>
			<g>
				<rect x="721.5" y="238.3" class="st0" width="49.7" height="8.4"/>
			</g>
		</g>
		<g>
			<g>
				<rect x="726.3" y="233.2" class="st0" width="41" height="6.2"/>
			</g>
		</g>
		<g>
			<g>
				<polygon class="st34" points="763.4,306.4 730.5,306.4 727.6,262.7 765.9,262.7 				"/>
			</g>
		</g>
		<g>
			<g>
				<ellipse class="st35" cx="747.3" cy="282.4" rx="7.8" ry="7.5"/>
			</g>
		</g>
		<g>
			<g>
				<circle class="st34" cx="747.3" cy="282.4" r="4.5"/>
			</g>
		</g>
	</g>
	<g>
		<g>
			<g>
				<rect x="16.9" y="290" class="st0" width="115.9" height="25.1"/>
			</g>
		</g>
		<g>
			<g>
				<rect y="260.3" class="st21" width="132.8" height="29.6"/>
			</g>
		</g>
		<g>
			<g>
				<rect x="22.2" y="260.3" class="st36" width="12" height="29.6"/>
			</g>
		</g>
		<g>
			<g>
				<rect x="109.4" y="260.3" class="st36" width="5" height="29.6"/>
			</g>
		</g>
		<g>
			<g>
				<rect x="16.9" y="243.4" class="st37" width="120.5" height="16.9"/>
			</g>
		</g>
		<g>
			<g>
				<g>
					<path class="st31" d="M138.2,214.8V211h-100c-5.5,0-10,4.5-10,10v12.7c0,5.5,4.5,10,10,10h100.1v-2.8l-94.2-1.2l-0.3-23.1
						L138.2,214.8z"/>
				</g>
			</g>
			<g>
				<g>
					<path class="st38" d="M134.6,214.2H42c-5.1,0-9.2,3.6-9.2,8.1v10.3c0,4.4,4.1,8.1,9.2,8.1h92.6c0,0-3.1-7.1-3.1-12.6
						c0-2.6,3.1-12,3.1-12V214.2z"/>
				</g>
			</g>
			<g>
				<g>
					<path class="st36" d="M134.6,216H44.8c-4.9,0-8.9,3.3-8.9,7.3v9.3c0,4.1,4,7.3,8.9,7.3h89.8c0,0-1.7-6.5-1.7-12
						C132.9,222.9,134.6,216,134.6,216z"/>
				</g>
			</g>
		</g>
		<g>
			<g>
				<g>
					<path class="st39" d="M34.5,143.5v-4.7h85.4c4.7,0,8.5,5.5,8.5,12.2v15.5c0,6.7-3.8,12.2-8.5,12.2H34.5v-3.5l80.4-1.4l0.2-28.3
						L34.5,143.5z"/>
				</g>
			</g>
			<g>
				<g>
					<path class="st38" d="M37.6,142.8h79c4.3,0,7.9,4.4,7.9,9.9v12.6c0,5.4-3.5,9.9-7.9,9.9h-79c0,0,2.6-8.7,2.6-15.4
						c0-3.2-2.6-14.7-2.6-14.7V142.8z"/>
				</g>
			</g>
			<g>
				<g>
					<path class="st36" d="M37.6,145.1h76.6c4.2,0,7.6,4,7.6,9v11.4c0,5-3.4,9-7.6,9H37.6c0,0,1.4-8,1.4-14.7
						C39.1,153.5,37.6,145.1,37.6,145.1z"/>
				</g>
			</g>
		</g>
		<g>
			<g>
				<rect x="19.8" y="119" class="st0" width="113" height="19.8"/>
			</g>
		</g>
		<g>
			<g>
				<rect x="35.9" y="119" class="st37" width="6.7" height="19.8"/>
			</g>
		</g>
		<g>
			<g>
				<rect x="48.9" y="125.3" class="st37" width="60.5" height="6.4"/>
			</g>
		</g>
		<g>
			<g>
				<g>
					<path class="st2" d="M129.7,99.8v-2.6H51.3c-4.3,0-7.8,3-7.8,6.7v8.5c0,3.7,3.5,6.7,7.8,6.7h78.4v-1.9l-73.8-0.8l-0.2-15.5
						L129.7,99.8z"/>
				</g>
			</g>
			<g>
				<g>
					<path class="st38" d="M126.8,99.4H54.3c-4,0-7.2,2.4-7.2,5.4v6.9c0,3,3.2,5.4,7.2,5.4h72.5c0,0-2.4-4.7-2.4-8.4
						c0-1.7,2.4-8,2.4-8V99.4z"/>
				</g>
			</g>
			<g>
				<g>
					<path class="st33" d="M126.8,100.6H56.5c-3.9,0-7,2.2-7,4.9v6.2c0,2.7,3.1,4.9,7,4.9h70.3c0,0-1.3-4.4-1.3-8
						C125.5,105.2,126.8,100.6,126.8,100.6z"/>
				</g>
			</g>
		</g>
		<g>
			<g>
				<g>
					<path class="st0" d="M140.2,73.4V70H43.4c-5.3,0-9.6,3.9-9.6,8.7v11.1c0,4.8,4.3,8.7,9.6,8.7h96.8V96L49,95l-0.3-20.3
						L140.2,73.4z"/>
				</g>
			</g>
			<g>
				<g>
					<path class="st38" d="M136.7,72.9H47.1c-4.9,0-8.9,3.2-8.9,7.1v9c0,3.9,4,7.1,8.9,7.1h89.6c0,0-3-6.2-3-11c0-2.3,3-10.5,3-10.5
						V72.9z"/>
				</g>
			</g>
			<g>
				<g>
					<path class="st33" d="M136.7,74.5H49.8c-4.8,0-8.7,2.9-8.7,6.4v8.2c0,3.5,3.9,6.4,8.7,6.4h86.9c0,0-1.6-5.7-1.6-10.5
						C135.1,80.5,136.7,74.5,136.7,74.5z"/>
				</g>
			</g>
		</g>
		<g>
			<g>
				<rect x="23.8" y="178.7" class="st9" width="113" height="6.1"/>
			</g>
		</g>
		<g>
			<g>
				<rect x="23.8" y="204.9" class="st9" width="113" height="6.1"/>
			</g>
		</g>
		<g>
			<g>
				<rect x="23.8" y="184.8" class="st38" width="113" height="20"/>
			</g>
		</g>
		<g>
			<g>
				<rect x="23.8" y="186.8" class="st6" width="113" height="17.1"/>
			</g>
		</g>
	</g>
	<g>
		<g>
			<g>
				<polygon class="st33" points="812,27.7 756.4,61.7 756.4,121.3 869.7,121.3 869.7,61.7 				"/>
			</g>
		</g>
		<g>
			<g>
				<polygon class="st6" points="854.4,107.4 772,108 771.5,55.5 854.2,55.4 				"/>
			</g>
		</g>
		<g>
			<g>
				<g>
					<defs>
						<polygon id="SVGID_1_" points="869.8,122.1 756.4,122.1 756.4,62.5 813,87.8 869.7,61.7 						"/>
					</defs>
					<clipPath id="SVGID_2_">
						<use xlink:href="#SVGID_1_"  style="overflow:visible;"/>
					</clipPath>
					<g class="st40">
						<rect x="756.4" y="61.7" class="st41" width="113.4" height="60.4"/>
					</g>
				</g>
				<g>
					<defs>
						<polygon id="SVGID_3_" points="869.8,122.1 756.4,122.1 756.4,62.5 813,87.8 869.7,61.7 						"/>
					</defs>
					<clipPath id="SVGID_4_">
						<use xlink:href="#SVGID_3_"  style="overflow:visible;"/>
					</clipPath>
					<g class="st42">
						<ellipse class="st41" cx="813.1" cy="91.9" rx="47.2" ry="39.7"/>
					</g>
				</g>
				<g>
					<defs>
						<polygon id="SVGID_6_" points="869.8,122.1 756.4,122.1 756.4,62.5 813,87.8 869.7,61.7 						"/>
					</defs>
					<clipPath id="SVGID_7_">
						<use xlink:href="#SVGID_6_"  style="overflow:visible;"/>
					</clipPath>
					<g class="st43">
						<ellipse class="st44" cx="813.1" cy="91.9" rx="45.9" ry="38.6"/>
					</g>
				</g>
				<g>
					<defs>
						<polygon id="SVGID_8_" points="869.8,122.1 756.4,122.1 756.4,62.5 813,87.8 869.7,61.7 						"/>
					</defs>
					<clipPath id="SVGID_9_">
						<use xlink:href="#SVGID_8_"  style="overflow:visible;"/>
					</clipPath>
					<g class="st45">
						<ellipse class="st46" cx="813.1" cy="91.9" rx="44.6" ry="37.5"/>
					</g>
				</g>
				<g>
					<defs>
						<polygon id="SVGID_10_" points="869.8,122.1 756.4,122.1 756.4,62.5 813,87.8 869.7,61.7 						"/>
					</defs>
					<clipPath id="SVGID_11_">
						<use xlink:href="#SVGID_10_"  style="overflow:visible;"/>
					</clipPath>
					<g class="st47">
						<ellipse class="st48" cx="813.1" cy="91.9" rx="43.3" ry="36.4"/>
					</g>
				</g>
				<g>
					<defs>
						<polygon id="SVGID_12_" points="869.8,122.1 756.4,122.1 756.4,62.5 813,87.8 869.7,61.7 						"/>
					</defs>
					<clipPath id="SVGID_13_">
						<use xlink:href="#SVGID_12_"  style="overflow:visible;"/>
					</clipPath>
					<g class="st49">
						<ellipse class="st50" cx="813.1" cy="91.9" rx="42" ry="35.4"/>
					</g>
				</g>
				<g>
					<defs>
						<polygon id="SVGID_14_" points="869.8,122.1 756.4,122.1 756.4,62.5 813,87.8 869.7,61.7 						"/>
					</defs>
					<clipPath id="SVGID_15_">
						<use xlink:href="#SVGID_14_"  style="overflow:visible;"/>
					</clipPath>
					<g class="st51">
						<ellipse class="st52" cx="813.1" cy="91.9" rx="40.7" ry="34.3"/>
					</g>
				</g>
				<g>
					<defs>
						<polygon id="SVGID_16_" points="869.8,122.1 756.4,122.1 756.4,62.5 813,87.8 869.7,61.7 						"/>
					</defs>
					<clipPath id="SVGID_17_">
						<use xlink:href="#SVGID_16_"  style="overflow:visible;"/>
					</clipPath>
					<g class="st53">
						<ellipse class="st54" cx="813.1" cy="91.9" rx="39.5" ry="33.2"/>
					</g>
				</g>
				<g>
					<defs>
						<polygon id="SVGID_18_" points="869.8,122.1 756.4,122.1 756.4,62.5 813,87.8 869.7,61.7 						"/>
					</defs>
					<clipPath id="SVGID_19_">
						<use xlink:href="#SVGID_18_"  style="overflow:visible;"/>
					</clipPath>
					<g class="st55">
						<ellipse class="st56" cx="813.1" cy="91.9" rx="38.2" ry="32.1"/>
					</g>
				</g>
				<g>
					<defs>
						<polygon id="SVGID_20_" points="869.8,122.1 756.4,122.1 756.4,62.5 813,87.8 869.7,61.7 						"/>
					</defs>
					<clipPath id="SVGID_21_">
						<use xlink:href="#SVGID_20_"  style="overflow:visible;"/>
					</clipPath>
					<g class="st57">
						<ellipse class="st58" cx="813.1" cy="91.9" rx="36.9" ry="31"/>
					</g>
				</g>
				<g>
					<defs>
						<polygon id="SVGID_22_" points="869.8,122.1 756.4,122.1 756.4,62.5 813,87.8 869.7,61.7 						"/>
					</defs>
					<clipPath id="SVGID_23_">
						<use xlink:href="#SVGID_22_"  style="overflow:visible;"/>
					</clipPath>
					<g class="st59">
						<ellipse class="st60" cx="813.1" cy="91.9" rx="35.6" ry="29.9"/>
					</g>
				</g>
				<g>
					<defs>
						<polygon id="SVGID_24_" points="869.8,122.1 756.4,122.1 756.4,62.5 813,87.8 869.7,61.7 						"/>
					</defs>
					<clipPath id="SVGID_25_">
						<use xlink:href="#SVGID_24_"  style="overflow:visible;"/>
					</clipPath>
					<g class="st61">
						<ellipse class="st62" cx="813.1" cy="91.9" rx="34.3" ry="28.9"/>
					</g>
				</g>
				<g>
					<defs>
						<polygon id="SVGID_26_" points="869.8,122.1 756.4,122.1 756.4,62.5 813,87.8 869.7,61.7 						"/>
					</defs>
					<clipPath id="SVGID_27_">
						<use xlink:href="#SVGID_26_"  style="overflow:visible;"/>
					</clipPath>
					<g class="st63">
						<ellipse class="st64" cx="813.1" cy="91.9" rx="33" ry="27.8"/>
					</g>
				</g>
				<g>
					<defs>
						<polygon id="SVGID_28_" points="869.8,122.1 756.4,122.1 756.4,62.5 813,87.8 869.7,61.7 						"/>
					</defs>
					<clipPath id="SVGID_29_">
						<use xlink:href="#SVGID_28_"  style="overflow:visible;"/>
					</clipPath>
					<g class="st65">
						<ellipse class="st66" cx="813.1" cy="91.9" rx="31.7" ry="26.7"/>
					</g>
				</g>
				<g>
					<defs>
						<polygon id="SVGID_30_" points="869.8,122.1 756.4,122.1 756.4,62.5 813,87.8 869.7,61.7 						"/>
					</defs>
					<clipPath id="SVGID_31_">
						<use xlink:href="#SVGID_30_"  style="overflow:visible;"/>
					</clipPath>
					<g class="st67">
						<ellipse class="st68" cx="813.1" cy="91.9" rx="30.4" ry="25.6"/>
					</g>
				</g>
				<g>
					<defs>
						<polygon id="SVGID_32_" points="869.8,122.1 756.4,122.1 756.4,62.5 813,87.8 869.7,61.7 						"/>
					</defs>
					<clipPath id="SVGID_33_">
						<use xlink:href="#SVGID_32_"  style="overflow:visible;"/>
					</clipPath>
					<g class="st69">
						<ellipse class="st70" cx="813.1" cy="91.9" rx="29.2" ry="24.5"/>
					</g>
				</g>
				<g>
					<defs>
						<polygon id="SVGID_34_" points="869.8,122.1 756.4,122.1 756.4,62.5 813,87.8 869.7,61.7 						"/>
					</defs>
					<clipPath id="SVGID_35_">
						<use xlink:href="#SVGID_34_"  style="overflow:visible;"/>
					</clipPath>
					<g class="st71">
						<ellipse class="st72" cx="813.1" cy="91.9" rx="27.9" ry="23.5"/>
					</g>
				</g>
				<g>
					<defs>
						<polygon id="SVGID_36_" points="869.8,122.1 756.4,122.1 756.4,62.5 813,87.8 869.7,61.7 						"/>
					</defs>
					<clipPath id="SVGID_37_">
						<use xlink:href="#SVGID_36_"  style="overflow:visible;"/>
					</clipPath>
					<g class="st73">
						<ellipse class="st74" cx="813.1" cy="91.9" rx="26.6" ry="22.4"/>
					</g>
				</g>
				<g>
					<defs>
						<polygon id="SVGID_38_" points="869.8,122.1 756.4,122.1 756.4,62.5 813,87.8 869.7,61.7 						"/>
					</defs>
					<clipPath id="SVGID_39_">
						<use xlink:href="#SVGID_38_"  style="overflow:visible;"/>
					</clipPath>
					<g class="st75">
						<ellipse class="st76" cx="813.1" cy="91.9" rx="25.3" ry="21.3"/>
					</g>
				</g>
				<g>
					<defs>
						<polygon id="SVGID_40_" points="869.8,122.1 756.4,122.1 756.4,62.5 813,87.8 869.7,61.7 						"/>
					</defs>
					<clipPath id="SVGID_41_">
						<use xlink:href="#SVGID_40_"  style="overflow:visible;"/>
					</clipPath>
					<g class="st77">
						<ellipse class="st76" cx="813.1" cy="91.9" rx="24" ry="20.2"/>
					</g>
				</g>
				<g>
					<defs>
						<polygon id="SVGID_42_" points="869.8,122.1 756.4,122.1 756.4,62.5 813,87.8 869.7,61.7 						"/>
					</defs>
					<clipPath id="SVGID_43_">
						<use xlink:href="#SVGID_42_"  style="overflow:visible;"/>
					</clipPath>
					<g class="st78">
						<ellipse class="st76" cx="813.1" cy="91.9" rx="22.7" ry="19.1"/>
					</g>
				</g>
				<g>
					<defs>
						<polygon id="SVGID_44_" points="869.8,122.1 756.4,122.1 756.4,62.5 813,87.8 869.7,61.7 						"/>
					</defs>
					<clipPath id="SVGID_45_">
						<use xlink:href="#SVGID_44_"  style="overflow:visible;"/>
					</clipPath>
					<g class="st79">
						<ellipse class="st80" cx="813.1" cy="91.9" rx="21.4" ry="18"/>
					</g>
				</g>
				<g>
					<defs>
						<polygon id="SVGID_46_" points="869.8,122.1 756.4,122.1 756.4,62.5 813,87.8 869.7,61.7 						"/>
					</defs>
					<clipPath id="SVGID_47_">
						<use xlink:href="#SVGID_46_"  style="overflow:visible;"/>
					</clipPath>
					<g class="st81">
						<ellipse class="st82" cx="813.1" cy="91.9" rx="20.2" ry="17"/>
					</g>
				</g>
				<g>
					<defs>
						<polygon id="SVGID_48_" points="869.8,122.1 756.4,122.1 756.4,62.5 813,87.8 869.7,61.7 						"/>
					</defs>
					<clipPath id="SVGID_49_">
						<use xlink:href="#SVGID_48_"  style="overflow:visible;"/>
					</clipPath>
					<g class="st83">
						<ellipse class="st82" cx="813.1" cy="91.9" rx="18.9" ry="15.9"/>
					</g>
				</g>
				<g>
					<defs>
						<polygon id="SVGID_50_" points="869.8,122.1 756.4,122.1 756.4,62.5 813,87.8 869.7,61.7 						"/>
					</defs>
					<clipPath id="SVGID_51_">
						<use xlink:href="#SVGID_50_"  style="overflow:visible;"/>
					</clipPath>
					<g class="st84">
						<ellipse class="st82" cx="813.1" cy="91.9" rx="17.6" ry="14.8"/>
					</g>
				</g>
				<g>
					<defs>
						<polygon id="SVGID_52_" points="869.8,122.1 756.4,122.1 756.4,62.5 813,87.8 869.7,61.7 						"/>
					</defs>
					<clipPath id="SVGID_53_">
						<use xlink:href="#SVGID_52_"  style="overflow:visible;"/>
					</clipPath>
					<g class="st85">
						<ellipse class="st82" cx="813.1" cy="91.9" rx="16.3" ry="13.7"/>
					</g>
				</g>
				<g>
					<defs>
						<polygon id="SVGID_54_" points="869.8,122.1 756.4,122.1 756.4,62.5 813,87.8 869.7,61.7 						"/>
					</defs>
					<clipPath id="SVGID_55_">
						<use xlink:href="#SVGID_54_"  style="overflow:visible;"/>
					</clipPath>
					<g class="st86">
						<ellipse class="st82" cx="813.1" cy="91.9" rx="15" ry="12.6"/>
					</g>
				</g>
				<g>
					<defs>
						<polygon id="SVGID_56_" points="869.8,122.1 756.4,122.1 756.4,62.5 813,87.8 869.7,61.7 						"/>
					</defs>
					<clipPath id="SVGID_57_">
						<use xlink:href="#SVGID_56_"  style="overflow:visible;"/>
					</clipPath>
					<g class="st87">
						<ellipse class="st82" cx="813.1" cy="91.9" rx="13.7" ry="11.5"/>
					</g>
				</g>
				<g>
					<defs>
						<polygon id="SVGID_58_" points="869.8,122.1 756.4,122.1 756.4,62.5 813,87.8 869.7,61.7 						"/>
					</defs>
					<clipPath id="SVGID_59_">
						<use xlink:href="#SVGID_58_"  style="overflow:visible;"/>
					</clipPath>
					<g class="st88">
						<ellipse class="st82" cx="813.1" cy="91.9" rx="12.4" ry="10.5"/>
					</g>
				</g>
				<g>
					<defs>
						<polygon id="SVGID_60_" points="869.8,122.1 756.4,122.1 756.4,62.5 813,87.8 869.7,61.7 						"/>
					</defs>
					<clipPath id="SVGID_61_">
						<use xlink:href="#SVGID_60_"  style="overflow:visible;"/>
					</clipPath>
					<g class="st89">
						<ellipse class="st82" cx="813.1" cy="91.9" rx="11.2" ry="9.4"/>
					</g>
				</g>
				<g>
					<defs>
						<polygon id="SVGID_62_" points="869.8,122.1 756.4,122.1 756.4,62.5 813,87.8 869.7,61.7 						"/>
					</defs>
					<clipPath id="SVGID_63_">
						<use xlink:href="#SVGID_62_"  style="overflow:visible;"/>
					</clipPath>
					<g class="st90">
						<ellipse class="st82" cx="813.1" cy="91.9" rx="9.9" ry="8.3"/>
					</g>
				</g>
				<g>
					<defs>
						<polygon id="SVGID_64_" points="869.8,122.1 756.4,122.1 756.4,62.5 813,87.8 869.7,61.7 						"/>
					</defs>
					<clipPath id="SVGID_65_">
						<use xlink:href="#SVGID_64_"  style="overflow:visible;"/>
					</clipPath>
					<g class="st91">
						<ellipse class="st82" cx="813.1" cy="91.9" rx="8.6" ry="7.2"/>
					</g>
				</g>
				<g>
					<defs>
						<polygon id="SVGID_66_" points="869.8,122.1 756.4,122.1 756.4,62.5 813,87.8 869.7,61.7 						"/>
					</defs>
					<clipPath id="SVGID_67_">
						<use xlink:href="#SVGID_66_"  style="overflow:visible;"/>
					</clipPath>
					<g class="st92">
						<ellipse class="st82" cx="813.1" cy="91.9" rx="7.3" ry="6.1"/>
					</g>
				</g>
				<g>
					<defs>
						<polygon id="SVGID_68_" points="869.8,122.1 756.4,122.1 756.4,62.5 813,87.8 869.7,61.7 						"/>
					</defs>
					<clipPath id="SVGID_69_">
						<use xlink:href="#SVGID_68_"  style="overflow:visible;"/>
					</clipPath>
					<g class="st93">
						<ellipse class="st82" cx="813.1" cy="91.9" rx="6" ry="5.1"/>
					</g>
				</g>
				<g>
					<defs>
						<polygon id="SVGID_70_" points="869.8,122.1 756.4,122.1 756.4,62.5 813,87.8 869.7,61.7 						"/>
					</defs>
					<clipPath id="SVGID_71_">
						<use xlink:href="#SVGID_70_"  style="overflow:visible;"/>
					</clipPath>
					<g class="st94">
						<ellipse class="st82" cx="813.1" cy="91.9" rx="4.7" ry="4"/>
					</g>
				</g>
				<g>
					<defs>
						<polygon id="SVGID_72_" points="869.8,122.1 756.4,122.1 756.4,62.5 813,87.8 869.7,61.7 						"/>
					</defs>
					<clipPath id="SVGID_73_">
						<use xlink:href="#SVGID_72_"  style="overflow:visible;"/>
					</clipPath>
					<g class="st95">
						<ellipse class="st82" cx="813.1" cy="91.9" rx="3.4" ry="2.9"/>
					</g>
				</g>
				<g>
					<defs>
						<polygon id="SVGID_74_" points="869.8,122.1 756.4,122.1 756.4,62.5 813,87.8 869.7,61.7 						"/>
					</defs>
					<clipPath id="SVGID_75_">
						<use xlink:href="#SVGID_74_"  style="overflow:visible;"/>
					</clipPath>
					<g class="st96">
						<ellipse class="st82" cx="813.1" cy="91.9" rx="2.1" ry="1.8"/>
					</g>
				</g>
			</g>
		</g>
		<g>
			<g>
				<polygon class="st31" points="869.7,122 756.7,121.9 756.5,61.8 813,87.8 869.7,61.8 				"/>
			</g>
		</g>
		<g>
			<g>
				<polygon class="st33" points="756.7,121.9 813,87.8 869.8,122.1 				"/>
			</g>
		</g>
	</g>
	<g>
		<g>
			<g>
				<path class="st2" d="M260.6,174.9c0-5.8-5-11-13.1-14.9c3.6-11.5,3-21.2-2.6-25.3c-1.9-1.4-4.3-2.1-7-2.1
					c-6.5,0-14.7,4-22.7,10.8c-8-6.8-16.2-10.8-22.7-10.8c-2.8,0-5.1,0.7-7,2.1c-5.6,4.1-6.3,13.6-2.8,24.8
					c-8.7,3.9-14.2,9.3-14.2,15.3c0,5.8,4.9,11.2,13.7,15.2c1.2,0.5,2.4,1,3.6,1.5c-1.2,7.9,0.2,14.3,4.5,17.5
					c1.9,1.4,4.3,2.1,7,2.1c5.2,0,11.5-2.6,17.9-7.1c6.4,4.5,12.7,7.1,17.9,7.1l0,0c2.8,0,5.1-0.7,7-2.1c4.4-3.2,5.8-9.8,4.4-17.9
					C254.3,187.1,260.5,181.3,260.6,174.9z M237.8,133.8c2.5,0,4.6,0.6,6.3,1.9c5.2,3.9,5.8,13,2.3,23.8c-5.7-2.5-12.7-4.4-20.5-5.3
					c-3.2-3.8-6.5-7.2-9.8-10.1C223.7,137.7,231.5,133.8,237.8,133.8z M233.6,183.7c-2.9,3.9-5.9,7.5-9.1,10.7
					c-3.2,0.3-6.6,0.5-10,0.5v0.6l-0.1-0.6c-3,0-5.9-0.1-8.7-0.4c-3.2-3.2-6.3-6.8-9.2-10.8c-1.8-2.4-3.4-4.9-4.9-7.3
					c2.5-5.4,5.7-11,9.8-16.4c1.2-1.6,2.4-3.2,3.7-4.7c3-0.3,6.2-0.4,9.4-0.4c3.7,0,7.3,0.2,10.7,0.6c1.2,1.5,2.4,3,3.6,4.5
					c4,5.5,7.3,11.1,9.8,16.4C237,178.8,235.4,181.3,233.6,183.7z M239.1,177.8c1.9,4.4,3.2,8.6,4,12.5c-4.8,1.8-10.5,3.1-16.7,3.9
					c2.8-2.9,5.6-6.2,8.2-9.7C236.2,182.2,237.7,180,239.1,177.8z M223.1,195.8c-2.7,2.6-5.4,4.8-8,6.8c-2.6-1.9-5.3-4.2-8-6.7
					c2.4,0.2,4.8,0.3,7.3,0.3h0.1C217.4,196.1,220.3,196,223.1,195.8z M203.8,194.3c-6.1-0.7-11.8-1.9-16.9-3.7
					c0.7-4,2.1-8.3,4-12.8c1.4,2.2,2.9,4.5,4.5,6.7C198.1,188,200.9,191.3,203.8,194.3z M190.8,175.1c-3-5.1-5.3-10.2-6.9-15
					c5.4-2.2,12-3.9,19.3-4.7c-1,1.2-2,2.5-2.9,3.8C196.4,164.5,193.2,169.9,190.8,175.1z M206.1,153.9c2.9-3.3,5.9-6.3,8.9-9
					c3.1,2.6,6.1,5.7,9,9.1c-3.1-0.3-6.4-0.5-9.7-0.5C211.5,153.5,208.8,153.7,206.1,153.9z M229.8,159.2c-0.9-1.2-1.8-2.4-2.8-3.6
					c7.3,1,13.8,2.7,19,5c-1.6,4.6-3.8,9.5-6.7,14.5C236.8,169.9,233.6,164.5,229.8,159.2z M186,135.7c1.7-1.3,3.8-1.9,6.3-1.9
					c6.2,0,14,3.9,21.8,10.3c-3.3,2.9-6.6,6.2-9.7,9.9c-7.9,0.8-15,2.6-20.8,5C180.3,148.4,180.8,139.5,186,135.7z M182.5,188.9
					c-8.4-3.8-13-8.8-12.9-14.1c0-5.5,5.1-10.6,13.3-14.2c1.7,5.1,4.1,10.4,7.4,15.9c-2.1,4.8-3.6,9.5-4.4,13.7
					C184.6,189.8,183.5,189.3,182.5,188.9z M197.1,209.8c-2.5,0-4.6-0.6-6.3-1.9c-3.9-2.9-5.2-8.8-4.1-16.1
					c5.5,1.9,11.7,3.2,18.4,3.8c2.9,2.9,5.9,5.4,8.8,7.6C207.9,207.4,202,209.8,197.1,209.8z M239.2,208c-1.7,1.3-3.8,1.9-6.3,1.9
					c-4.9,0-10.8-2.4-16.8-6.6c3-2.2,6-4.8,9-7.7c6.8-0.7,13-2.2,18.2-4.1C244.5,199,243.2,205,239.2,208z M244.2,189.8
					c-0.8-4.1-2.2-8.7-4.3-13.4c3.1-5.2,5.5-10.4,7.2-15.3c7.6,3.6,12.2,8.4,12.2,13.7C259.3,180.8,253.4,186.2,244.2,189.8z"/>
			</g>
		</g>
		<g>
			<g>
				<circle class="st0" cx="215.2" cy="176.1" r="9.3"/>
			</g>
		</g>
		<g>
			<g>
				<path class="st6" d="M222.2,175.3c0,1.9-1.6,3.5-3.5,3.5s-3.5-1.6-3.5-3.5s1.6-3.5,3.5-3.5C220.6,171.8,222.2,173.4,222.2,175.3
					z"/>
			</g>
		</g>
		<g>
			<g>
				<circle class="st0" cx="248.7" cy="150.1" r="4.6"/>
			</g>
		</g>
		<g>
			<g>
				<circle class="st6" cx="250.5" cy="149.7" r="1.7"/>
			</g>
		</g>
		<g>
			<g>
				<circle class="st0" cx="178.2" cy="186.8" r="4.6"/>
			</g>
		</g>
		<g>
			<g>
				<ellipse class="st6" cx="179.9" cy="186.4" rx="1.7" ry="1.7"/>
			</g>
		</g>
		<g>
			<g>
				<circle class="st0" cx="235.4" cy="210.1" r="4.6"/>
			</g>
		</g>
		<g>
			<g>
				<circle class="st6" cx="237.2" cy="209.8" r="1.7"/>
			</g>
		</g>
	</g>
	<g>
		<g>
			<g>
				<g>
					<ellipse class="st34" cx="712.7" cy="40.7" rx="38.3" ry="35.9"/>
				</g>
			</g>
		</g>
		<g>
			<g>
				<g>
					<path class="st17" d="M723.4,26.6l-3.7,21.5c-0.1,0.4-0.1,0.8-0.1,1c0,0.3,0.1,0.6,0.3,0.8s0.5,0.3,0.9,0.3
						c0.9,0,1.9-0.4,3-1.1c1.7-1.1,3.1-2.7,4.1-4.7c1.1-2.1,1.6-4.5,1.6-7.5c0-4.8-1.5-8.5-4.4-11.3c-3-2.8-6.9-4.2-11.9-4.2
						c-3.7,0-7,0.8-10,2.4s-5.3,4-7,7.1c-1.6,3.1-2.4,6.5-2.4,10.3c0,5.8,1.8,10.5,5.3,13.9c3.6,3.4,8.1,5.1,13.8,5.1
						c2.7,0,5.4-0.4,7.9-1.3c2.5-0.9,5-2.1,7.3-3.8h6c-1.6,1.8-3.1,3.1-4.6,4.1c-2.1,1.5-4.6,2.7-7.4,3.6c-2.8,0.9-5.9,1.4-9.1,1.4
						c-4.5,0-8.6-1-12.2-2.9c-3.6-1.9-6.4-4.7-8.4-8.3s-3-7.5-3-11.8c0-4.5,1.1-8.6,3.2-12.3c2.1-3.7,4.9-6.5,8.4-8.5s7.6-3,12.4-3
						c6.2,0,11.2,1.8,15,5.4c3.9,3.6,5.8,8.3,5.8,14c0,3.4-0.8,6.5-2.3,9.3s-3.7,5.1-6.6,6.7c-2.2,1.3-4.4,1.9-6.3,1.9
						c-1.2,0-2.1-0.3-2.9-0.8c-0.7-0.5-1.3-1.3-1.6-2.4c-1.3,1.2-2.5,2-3.6,2.5s-2.2,0.7-3.5,0.7c-2.6,0-4.8-1-6.7-3
						s-2.8-4.9-2.8-8.6c0-4.4,1.2-8.4,3.6-12c2.4-3.6,5.4-5.4,9-5.4c1.4,0,2.6,0.3,3.7,0.9c1.1,0.6,2.1,1.6,3.2,3.1l0.5-3.1
						C717.9,26.6,723.4,26.6,723.4,26.6z M703.8,44.4c0,2.2,0.5,3.8,1.5,5c0.7,0.9,1.7,1.3,2.8,1.3c1.3,0,2.4-0.5,3.4-1.5
						s1.9-3,2.7-5.9c0.8-3,1.1-5.6,1.1-8c0-1.8-0.4-3.1-1.2-4c-0.8-0.9-1.8-1.4-2.9-1.4c-1.3,0-2.4,0.5-3.4,1.4
						c-1.3,1.2-2.3,3.1-3,5.8C704.2,39.8,703.8,42.2,703.8,44.4z"/>
				</g>
			</g>
		</g>
	</g>
	<g>
		<g>
			<g>
				<g>
					<g>
						<g>
							<path class="st9" d="M903.6,63.8V34.3h-19.1V63c-14,3.7-24.3,16.4-24.3,31.5c0,18,14.6,32.6,32.6,32.6s32.6-14.6,32.6-32.6
								C925.4,80.3,916.3,68.3,903.6,63.8z"/>
						</g>
					</g>
				</g>
				<g>
					<g>
						<g>
							<path class="st97" d="M892.8,128.8c-18.9,0-34.2-15.4-34.2-34.3c0-15.1,9.9-28.4,24.3-32.8v-29h22.4v30
								c13.1,5.1,21.8,17.8,21.8,31.9C927,113.5,911.6,128.8,892.8,128.8z M886.1,35.9v28.3l-1.2,0.3c-13.6,3.6-23.1,15.9-23.1,30
								c0,17.1,13.9,31,31,31s31-13.9,31-31c0-13.1-8.3-24.9-20.7-29.3l-1.1-0.4v-29h-15.9V35.9z"/>
						</g>
					</g>
				</g>
			</g>
			<g>
				<g>
					<g>
						<path class="st0" d="M862,92.8c-0.1,0.8-0.1,1.6-0.1,2.4c0,16.8,13.9,30.5,31,30.5s31-13.7,31-30.5c0-0.8,0-1.6-0.1-2.4H862z"
							/>
					</g>
				</g>
			</g>
			<g>
				<g>
					<g>
						<circle class="st98" cx="885.4" cy="112.5" r="5.3"/>
					</g>
				</g>
			</g>
			<g>
				<g>
					<g>
						<ellipse class="st98" cx="897.4" cy="101.3" rx="3.6" ry="3.6"/>
					</g>
				</g>
			</g>
			<g>
				<g>
					<g>
						<circle class="st98" cx="904.2" cy="110.4" r="3.2"/>
					</g>
				</g>
			</g>
			<g>
				<g>
					<g>
						<g>
							<path class="st6" d="M907.5,34.3c0,2.5-2.1,4.6-4.6,4.6h-18.2c-2.5,0-4.6-2.1-4.6-4.6l0,0c0-2.5,2.1-4.6,4.6-4.6h18.2
								C905.4,29.7,907.5,31.8,907.5,34.3L907.5,34.3z"/>
						</g>
					</g>
				</g>
				<g>
					<g>
						<g>
							<path class="st97" d="M902.9,40.5h-18.2c-3.4,0-6.2-2.8-6.2-6.2s2.8-6.2,6.2-6.2h18.2c3.4,0,6.2,2.8,6.2,6.2
								C909.1,37.7,906.3,40.5,902.9,40.5z M884.7,31.3c-1.6,0-3,1.3-3,3c0,1.6,1.3,3,3,3h18.2c1.6,0,3-1.3,3-3c0-1.6-1.3-3-3-3
								H884.7z"/>
						</g>
					</g>
				</g>
			</g>
		</g>
		<g>
			<g>
				<g>
					<g>
						<path class="st99" d="M938,105.1c0,2.5-2,4.5-4.5,4.5h-18.8c-2.5,0-4.5-2-4.5-4.5l0,0c0-2.5,2-4.5,4.5-4.5h18.8
							C935.9,100.6,938,102.6,938,105.1L938,105.1z"/>
					</g>
				</g>
				<g>
					<g>
						<path class="st97" d="M933.4,110.9h-18.8c-3.2,0-5.8-2.6-5.8-5.8c0-3.2,2.6-5.8,5.8-5.8h18.8c3.2,0,5.8,2.6,5.8,5.8
							C939.3,108.3,936.6,110.9,933.4,110.9z M914.6,101.9c-1.8,0-3.2,1.4-3.2,3.2c0,1.8,1.5,3.2,3.2,3.2h18.8
							c1.8,0,3.2-1.4,3.2-3.2c0-1.8-1.5-3.2-3.2-3.2H914.6z"/>
					</g>
				</g>
			</g>
			<g>
				<g>
					<g>
						<path class="st99" d="M915.5,109c-1,0-1.9-0.2-2.8-0.4v70.9c0,6.8,5.1,12.3,11.3,12.3c6.3,0,11.3-5.5,11.3-12.3V109H915.5z"/>
					</g>
				</g>
				<g>
					<g>
						<path class="st97" d="M924,193.2c-7,0-12.6-6.1-12.6-13.6V107l1.6,0.4c0.9,0.2,1.7,0.4,2.4,0.4h21.2v71.8
							C936.7,187.1,931,193.2,924,193.2z M914,110.2v69.3c0,6.1,4.5,11,10,11s10-4.9,10-11v-69.2h-18.6
							C915,110.3,914.5,110.3,914,110.2z"/>
					</g>
				</g>
			</g>
			<g>
				<g>
					<g>
						<path class="st31" d="M914,135.7V179c0,6.5,4.5,11.8,10,11.8s10-5.3,10-11.8v-43.3H914z"/>
					</g>
				</g>
			</g>
			<g>
				<g>
					<rect x="914" y="121.1" class="st100" width="10" height="2.4"/>
				</g>
			</g>
			<g>
				<g>
					<rect x="914" y="129" class="st100" width="7.1" height="2.4"/>
				</g>
			</g>
			<g>
				<g>
					<rect x="914" y="137" class="st100" width="10" height="2.4"/>
				</g>
			</g>
			<g>
				<g>
					<rect x="914" y="144.8" class="st100" width="7.1" height="2.4"/>
				</g>
			</g>
			<g>
				<g>
					<rect x="914" y="152.4" class="st100" width="10" height="2.4"/>
				</g>
			</g>
			<g>
				<g>
					<rect x="914" y="159.8" class="st100" width="7.1" height="2.4"/>
				</g>
			</g>
			<g>
				<g>
					<rect x="914" y="167.6" class="st100" width="10" height="2.4"/>
				</g>
			</g>
		</g>
	</g>
	<g>
		<g>
			<g>
				<g>
					<path class="st101" d="M210.6,256.5c0,0-9.4-14.9,5.1-28.6c14.5-13.7,43.2-10.4,43.2-10.4l-51.4,56.2l-1.7-2l8.9-9.7
						L210.6,256.5z"/>
				</g>
			</g>
		</g>
		<g>
			<g>
				<g>
					<path class="st1" d="M224.4,269.1c0,0,15.7,8,28-7.7c12.3-15.7,6.5-44,6.5-44l-51.4,56.2l2.2,1.6l8.9-9.7L224.4,269.1z"/>
				</g>
			</g>
		</g>
		<g>
			<g>
				<g>
					<polygon class="st102" points="242,236 244.9,223.1 246.7,223.5 244.5,233.3 254.4,230.4 254.9,232.2 					"/>
				</g>
			</g>
		</g>
		<g>
			<g>
				<g>
					<polygon class="st102" points="230.8,248.4 230.9,228.6 232.8,228.6 232.6,246.2 249.2,243.7 249.5,245.5 					"/>
				</g>
			</g>
		</g>
		<g>
			<g>
				<g>
					<polygon class="st102" points="218.4,262.2 218.9,238.6 220.8,238.7 220.3,260.1 242,258.1 242.2,259.9 					"/>
				</g>
			</g>
		</g>
		<g>
			<g>
				<path class="st2" d="M271.3,269.6c8.4-12.5,5.2-29.5-7.3-37.9s-29.5-5.2-37.9,7.3c-7.5,11-5.8,25.6,3.4,34.7
					c-0.9,0.4-1.7,1.1-2.3,2l-15.9,23.4c-1.8,2.6-1.1,6.2,1.5,7.9c2.6,1.8,6.2,1.1,7.9-1.5l15.9-23.4c0.6-0.9,0.9-1.8,0.9-2.8
					C249.4,284.5,263.7,280.8,271.3,269.6z M236.2,272.6c-10.1-6.8-12.8-20.6-5.9-30.7c6.8-10.1,20.6-12.8,30.7-5.9
					c10.1,6.8,12.8,20.6,5.9,30.7C260.1,276.8,246.3,279.5,236.2,272.6z"/>
			</g>
		</g>
		<g>
			<g>
				<defs>
					
						<ellipse id="SVGID_76_" transform="matrix(0.5607 -0.828 0.828 0.5607 -101.4181 317.2217)" cx="248.3" cy="254.2" rx="22.7" ry="22.5"/>
				</defs>
				<clipPath id="SVGID_77_">
					<use xlink:href="#SVGID_76_"  style="overflow:visible;"/>
				</clipPath>
				<g class="st103">
					<g>
						<g>
							<path class="st101" d="M204.9,261.1c0,0-11.8-18.8,6.5-36c18.3-17.3,54.5-13.2,54.5-13.2l-64.7,70.8l-2.2-2.6l11.2-12.2
								L204.9,261.1z"/>
						</g>
					</g>
				</g>
			</g>
			<g>
				<defs>
					
						<ellipse id="SVGID_78_" transform="matrix(0.5607 -0.828 0.828 0.5607 -101.4181 317.2217)" cx="248.3" cy="254.2" rx="22.7" ry="22.5"/>
				</defs>
				<clipPath id="SVGID_79_">
					<use xlink:href="#SVGID_78_"  style="overflow:visible;"/>
				</clipPath>
				<g class="st104">
					<g>
						<g>
							<path class="st1" d="M222.4,277c0,0,19.8,10.1,35.3-9.7s8.2-55.4,8.2-55.4l-64.7,70.8l2.8,2l11.2-12.2L222.4,277z"/>
						</g>
					</g>
				</g>
			</g>
			<g>
				<defs>
					
						<ellipse id="SVGID_80_" transform="matrix(0.5607 -0.828 0.828 0.5607 -101.4181 317.2217)" cx="248.3" cy="254.2" rx="22.7" ry="22.5"/>
				</defs>
				<clipPath id="SVGID_81_">
					<use xlink:href="#SVGID_80_"  style="overflow:visible;"/>
				</clipPath>
				<g class="st105">
					<g>
						<g>
							<polygon class="st102" points="244.5,235.2 248.2,219 250.5,219.5 247.7,231.8 260.1,228.2 260.7,230.5 							"/>
						</g>
					</g>
				</g>
			</g>
			<g>
				<defs>
					
						<ellipse id="SVGID_82_" transform="matrix(0.5607 -0.828 0.828 0.5607 -101.4181 317.2217)" cx="248.3" cy="254.2" rx="22.7" ry="22.5"/>
				</defs>
				<clipPath id="SVGID_83_">
					<use xlink:href="#SVGID_82_"  style="overflow:visible;"/>
				</clipPath>
				<g class="st106">
					<g>
						<g>
							<polygon class="st102" points="230.4,250.8 230.5,225.9 232.9,226 232.7,248.1 253.6,244.9 253.9,247.2 							"/>
						</g>
					</g>
				</g>
			</g>
			<g>
				<defs>
					
						<ellipse id="SVGID_84_" transform="matrix(0.5607 -0.828 0.828 0.5607 -101.4181 317.2217)" cx="248.3" cy="254.2" rx="22.7" ry="22.5"/>
				</defs>
				<clipPath id="SVGID_85_">
					<use xlink:href="#SVGID_84_"  style="overflow:visible;"/>
				</clipPath>
				<g class="st107">
					<g>
						<g>
							<polygon class="st102" points="214.7,268.2 215.4,238.6 217.8,238.6 217.1,265.6 244.5,263 244.7,265.4 							"/>
						</g>
					</g>
				</g>
			</g>
		</g>
	</g>
	<g>
		<g>
			<g>
				<path class="st23" d="M933.1,280.7c-1,1.1-2.7,1.3-3.8,0.3l0,0c-1.1-1-1.1-2.7-0.1-3.8l91.4-100.6c1-1.1,2.7-1.3,3.8-0.3l0,0
					c1.1,1,1.1,2.7,0.1,3.8L933.1,280.7z"/>
			</g>
		</g>
		<g>
			<g>
				<circle id="SVGID_5_" class="st0" cx="974.3" cy="228" r="51"/>
			</g>
			<g>
				<defs>
					<circle id="SVGID_86_" cx="974.3" cy="228" r="51"/>
				</defs>
				<clipPath id="SVGID_87_">
					<use xlink:href="#SVGID_86_"  style="overflow:visible;"/>
				</clipPath>
				<g class="st108">
					<g>
						<g>
							<path class="st17" d="M1012.9,187.3c-2.4-1.2-4.8-2.4-7.1-3.6c-2.5-1.4-5.1-1.3-7.8-2.1c-1.8-0.6-3.2-1-5.4-1
								c-0.1,0.2-0.1,0.3,0,0.5l-0.2-0.3c-1.9-0.2-1.5,0.6-2.5,1.4c-0.1,0.1-1.3,0.6-1.5,0.7c-0.6,0.3-0.8,0.4-1.5,0.6
								c-1,0.3-3.7,0.4-2.5,2.2c0.9,1.4,2.8,0.1,3.9,0.4c0.8,0.2,0.5,0.4,1.3,0.9c1,0.6,2.1,1.6,3.2,2.1c0.7,0.4,1.8,0.3,2.6,0.6
								s1,0.8,1.6,1.2c1.8,1,5.2,1,7.3,1.1c0.3,0,0.5,0.5,0.8,0.5s0.4-0.5,0.6-0.5c0.6-0.1,0.8-0.7,1.6-0.4c0-0.2,0.1-0.5,0.1-0.7
								c2.1-0.2,4.2,0.9,6.5,0.5c1.4-0.3,2.5-0.6,4.1-0.7C1016.1,189.7,1014.8,188.2,1012.9,187.3z"/>
						</g>
					</g>
					<g>
						<g>
							<path class="st109" d="M975.8,185.1L975.8,185.1C975.9,185.2,975.9,185.2,975.8,185.1z"/>
						</g>
					</g>
					<g>
						<g>
							<path class="st17" d="M1010,251.3c-0.4-1.7,1-2.2-0.1-3.6c-0.7-0.9-1.3-0.5-2.1-1c-0.6-0.4-3.6-3.8-4.4-1.7
								c0.1-3.3-0.5-4.9-3.3-6c-1.1-0.4-2.2-0.6-3.3-1.2c-1.4-0.8-2.1-2.5-3.9-2.9c-0.6-0.2-1.3,0-1.9-0.2c-0.6-0.2-1.3-0.8-2-1
								c-1.1-0.4-2.1-0.1-2.7-0.2c-0.3,0-0.9-0.4-1.4-0.5c-1.2-0.2-1.1,0.3-1.9,0.6c-0.9,0.3-2.3,0.3-3,0.8s-1.1,2.1-1.1,3
								c-0.8,0-1.9,0.5-2.5,0.1c-0.3-0.2-0.9-1.6-1.1-2c-0.6-0.8-0.9-1.1-1.1-2.2c-0.1-0.6-0.1-2.5-0.5-2.9s-1.7-0.7-2.3-1.2
								c-1.2-0.8-0.8-0.9-1.3-2.1c-1-2.2-3.5-1.3-5.8-1.5c-0.5-2.4-2.7-2.6-2.5-5.4c0.1-1.6,0.2-1.8,1.8-2c0.5-0.1,1,0.1,1.5,0
								c0.7-0.2,0.8-0.7,1.5-1c1.4-0.6,3.9-1.6,5.3-1.3c0.7,0.2,2,0.7,2.5,1.4c0.6,0.8,0.1,2.3,1.5,2.8c1.6-1.8-0.7-2.8-0.1-4.6
								c0.4-1.3,1.8-1.7,2.7-2.4c0.8-0.6,1.2-1.7,1.8-2.5c1-1.3,1.8-1.6,1.8-3.5c1-0.1,1.6-1.1,2.5-1.4c0.7-0.2,1.3,0,1.9-0.3
								c0.6-0.3,0.7-0.9,1.5-1.1c0.6-0.1,1.4,0.4,1.8,0.2c1.7-0.8-1.2-5.1-3-4.9c1.7-0.6,2.3,0.5,3.7,0.7c1.4,0.1,2.1-1.4,3.7-1.1
								c0,1.2,0.9,1.9,2.1,1.6c0.3-1.1-0.4-1.6-0.9-2.4c-0.3-0.5-0.6-0.2-0.9-1c-0.2-0.6,0-1.5,0-2.1c-0.7,0-2.3,0.3-3-0.1
								c-0.6-0.4-0.1-1-0.6-1.4c-0.4-0.4-0.9-0.4-1.4-0.7c-0.3-0.2-0.7-0.2-1.1-0.5c-0.4-0.3-0.2-0.9-0.9-1s-0.9,1.3-2.3,1.2
								c-1.5-0.2-4.8-3.2-6.7-1.1c-0.5,0.5-0.4,2.3-0.9,3.1c-0.5,0.7-2.6,2.3-3,0.4c-0.9-0.2-1.8,0.1-2.7,0.1c0,0.3-0.2,0.8-0.2,1
								c-1.2-0.3-4.2-1.4-4.9-2.5c-0.7-1.3,0.8-2.7,1.9-3c0.6-0.1,2.2,0.9,1.9-1.2c-0.4-0.1-0.7-0.4-1.1-0.3c-0.1-0.7,1-1.4,1.7-1.4
								c1.1,0,0.4,0.1,0.9,0.6c0.8,0.7,0.6,2,2.1,1.6c1.1-1.4-0.8-2.1-1.8-2.9c1.5-0.1,2,0.3,3.3,0.7c1,0.3,2.4-0.1,3.4,0.5
								c0.6,0.3,0.5,1,1.2,1.3c0.5,0.2,1.4-0.2,2,0c1.1,0.3,1.8,1.6,3.1,1.5c-0.3-0.6,0-0.5-0.8-0.7c-0.4-1.4-0.5-2.5-2.2-2.3
								c-0.2-1.3-1.1-2.1-2.2-1.5c0.7-3.1-3.8,0.3-4.7-1.4c0.1,0,0.1,0.1,0.1,0.1c-0.2-0.4-0.4-0.7-0.7-0.7c0.3-0.1,0.4-0.2,0.7-0.4
								l-0.1-0.1l1.1,0.3c-0.2-0.9-6.9-1.4-8.2-1.3c-0.3,0-1,0.5-1.5,0.6c-1,0.2-3.5,0.5-1.6,2.1c-0.2,0-0.8,0.2-1.2,0.2
								c-0.2,0.7,0.1,1.5,0.1,2.2c-1.3,0-1.5,1-2.2,1.9c0-0.2,0-0.4-0.1-0.6c-1.2-0.2-2.4-0.2-3.3,0.6c-0.3-2.1-1.9-0.6-2.7-1.7
								c-0.3-0.5,0.8-0.9,0.2-1.5c-0.5-0.6-1.5,0-2.1-0.2c-1.2-0.4-1.4-1.5-3.1-1.1c-0.8,0.2-3,0.8-3.5,1.7c0.9,0.5,1.3-0.1,2.1-0.1
								c0.5,0,1.1,0.5,1.8,0.4c-0.8,1.1-0.1,1.3,0.8,1.6c0.2,0.1,0.9-0.3,1.3-0.2c0.4,0.1,0.5,1,1.3,0.9c-0.1,2.4-1.8,0.9-2.8,0.6
								c-0.5-0.1-1.3,0.2-1.8-0.1c-1.1-0.9,0-1.4-1.5-1.8c-1.4-0.4-2.2,0.6-3.4,0.9c-0.7,0.2-2.3-0.1-2.5,0.7c0.6,0,4.1-0.2,2.4,1.1
								c-0.7,0.6-3.5-0.1-4.4,0c-1.4,0.1-2.2,0.4-3.5,0.3c-1.5-0.1-3.6-0.1-5,0.3c-1.9,0.5-3.6,2.3-5.6,2.9c-1.2,0.4-2.2,0-3.2,1
								c-0.5,0.5-1.7,2.7-1.8,3.3s0.2,1.3,0.1,1.8c-0.1,0.8-0.8,1.3-0.9,2.2c1.3-0.9,2.4-2.3,3.7-3c1.1-0.6,2.3-0.8,3.5-1.5
								c1.4-0.8,2.8-1.4,4.6-1.4c1.7,0,1.8,0.8,2.9,1.8c1,0.9,2.6,1.3,3.3,2.2c1,1.3,0.8,3.6,0.8,5.2c0,2,0.6,2.8,1.2,4.5
								c0.6,1.9-0.8,4.8,2.2,4.5c0.3,1.6,0.6,1.7,1.6,2.9c0.8,0.9,1.3,3.1,2.7,3.1c0.4-1.9-3.7-5.5-1-7c1.1,0.9,2.3,2.2,3.2,3.4
								c0.9,1.1,1,2.5,2,3.8s0.8,2.9,1.8,4.1c1.1,1.3,3.2,2.5,4.8,3c1.7,0.6,4,0.1,5.5,1.2c1,0.7,0.7,1,1.8,1.3c1.5,0.4,2,0.1,3.2,1
								c0.6,0.5,1.2,0.8,1.7,1.3c0.2,0.2,0.5,0,0.8,0.3c0.2,0.3,0.2,1.1,0.5,1.5c0.4,0.6,1.4,0.8,2,1.3s0.9,1.1,1.3,1.5
								c1.6,1.3,5.5-0.8,3.7,3.2c-0.6,1.4-1.8,1.5-2.7,2.9c-0.8,1.3-0.6,2.3-0.5,3.7c0.1,1.6-0.1,2.3,0.8,3.5c0.9,1.2,0.8,0.8,1,2.4
								c0.2,1.5,0.4,1.3,1.3,2.4c1.6,2,3.7,3.1,6.2,3.6c0.3,1,0.2,2,0,2.9c-0.1,0.8-0.3,2-0.5,2.9c-0.5,2.3-1.9,4.7-2.7,6.9
								c-0.6,1.5-1.3,3.4-1.6,5c-0.3,1.5-1.4,5.1,1.6,3.7c1.2-0.5,0.9-1.4,1.5-2.3c0.7-1,1.3-0.7,2.1-1.3c0.4-0.3,0.7-0.8,1.2-1.2
								c1-0.7,2.2-1.1,3.3-1.6c1-0.4,1.6-0.9,2.5-1.5c1.5-1,2.5-2.2,4-3.2c1.7-1.2,2.5-2.8,3.8-4.1c0.3-0.3,0.9-0.5,1.2-0.8
								c0.2-0.2,0.2-0.7,0.4-0.9c0.6-0.4,1.2,0,1.8-0.3c1-0.5,2.5-1.9,3.3-2.7c1.1-1.2,1-2.3,1.6-3.6
								C1009.4,256.3,1013.3,252.8,1010,251.3z"/>
						</g>
					</g>
				</g>
			</g>
		</g>
		<g>
			<g>
				<path class="st23" d="M1017.4,186.7c8.7,9.6,15.7,27.1,15.7,40.2c0,33.3-27.1,60.5-60.5,60.5c-14.2,0-27.2-4.9-37.5-13.1
					l-3.9,3.7c11.3,9.2,25.7,14.7,41.4,14.7c36.3,0,65.9-29.5,65.9-65.9c0-14.5-6.2-32.1-16.7-43.8L1017.4,186.7z"/>
			</g>
		</g>
		<g>
			<g>
				<rect x="968.6" y="290" class="st23" width="11" height="20.6"/>
			</g>
		</g>
		<g>
			<g>
				<path class="st23" d="M992.6,310.6h-36.4c-2.9,0-5.3,2.4-5.3,5.3h47C998,313,995.6,310.6,992.6,310.6z"/>
			</g>
		</g>
	</g>
	<g>
		<g>
			<g>
				<ellipse class="st31" cx="865.7" cy="165.9" rx="32.1" ry="30.1"/>
			</g>
		</g>
		<g>
			<g>
				<path class="st110" d="M865.7,151.1c-11.7,0-21.2,6-21.2,13.5c0,4.7,3.8,8.9,9.6,11.3l8.5,9.6v-7.6c1,0.1,2.1,0.2,3.2,0.2
					c11.7,0,21.2-6,21.2-13.5S877.4,151.1,865.7,151.1z"/>
			</g>
		</g>
		<g>
			<g>
				<rect x="852.5" y="159.2" class="st31" width="26.7" height="3.1"/>
			</g>
		</g>
		<g>
			<g>
				<rect x="852.3" y="166" class="st31" width="26.7" height="3.1"/>
			</g>
		</g>
	</g>
	<g>
		<g>
			<g>
				<rect x="307.9" y="269.6" class="st111" width="93" height="45.4"/>
			</g>
		</g>
		<g>
			<g>
				<path class="st39" d="M440.2,273.1c-2.2,0-84.7,25.8-84.7,25.8l-91.2-25.8l91.2-17.4L440.2,273.1z"/>
			</g>
		</g>
		<g>
			<g>
				<ellipse class="st111" cx="354.1" cy="274.4" rx="9.2" ry="2.9"/>
			</g>
		</g>
		<g>
			<g>
				<path class="st33" d="M288.7,330.4c0.5-2.5,1.1-6.4,1.5-8.8c-0.9-0.6-1.5-1.6-1.5-2.8c0-1.3,0.7-2.4,1.8-3v-36.3l63.4-6.8l0,0
					c0,0,0,0,0.1,0c1,0,1.8,0.8,1.8,1.8s-0.8,1.8-1.8,1.8c-0.2,0-60.2,6.3-60.2,6.3v33.3c1.1,0.6,1.8,1.7,1.8,3
					c0,1.2-0.6,2.2-1.5,2.8c0.1,4.9,0.3,14.1-0.1,15.9c-0.5,2.6-0.5,2.6-0.5,2.6H288c0,0,1.3-3.7,1.6-6c0.4-2.4,0.4-3.5,0.4-3.5
					s-2.4,7-2.9,7.9s-0.5,0.9-0.5,0.9l-2.6-0.9C284,338.5,287.9,334.3,288.7,330.4z"/>
			</g>
		</g>
	</g>
	<g>
		<g>
			<g>
				<g>
					<ellipse class="st39" cx="355.2" cy="47.6" rx="32.1" ry="30.1"/>
				</g>
			</g>
		</g>
		<g>
			<g>
				<g>
					<path class="st17" d="M346.6,56.9v4.3h-12.8c0.1-1.6,0.6-3.2,1.2-4.6c0.7-1.4,2.1-3.4,4.1-5.8c1.6-1.9,2.7-3.3,3-3.9
						c0.5-1,0.8-1.9,0.8-2.8c0-1-0.2-1.8-0.7-2.4c-0.4-0.6-1-0.8-1.8-0.8s-1.4,0.3-1.8,0.9c-0.4,0.6-0.7,1.5-0.8,2.9l-3.6-0.5
						c0.2-2.5,0.9-4.4,2-5.5s2.6-1.7,4.3-1.7c1.9,0,3.4,0.6,4.4,1.9c1.1,1.3,1.6,2.9,1.6,4.8c0,1.1-0.2,2.1-0.5,3.1s-0.8,2-1.5,3.1
						c-0.4,0.7-1.2,1.7-2.4,3.1s-1.9,2.2-2.2,2.7c-0.3,0.4-0.6,0.9-0.7,1.3L346.6,56.9L346.6,56.9z"/>
				</g>
			</g>
			<g>
				<g>
					<path class="st17" d="M356.2,61.2v-4.8h-7.8v-4l8.2-15.3h3.1v15.3h2.4v4.1h-2.4v4.8L356.2,61.2L356.2,61.2z M356.2,52.3v-8.2
						l-4.4,8.2H356.2z"/>
				</g>
			</g>
			<g>
				<g>
					<path class="st17" d="M368.2,37.1V46c1.2-1.7,2.6-2.6,4.2-2.6c0.8,0,1.6,0.2,2.3,0.6c0.7,0.4,1.2,0.9,1.5,1.5s0.6,1.3,0.7,2
						s0.2,1.9,0.2,3.5v10.2h-3.6V52c0-1.8-0.1-3-0.2-3.5s-0.4-0.9-0.7-1.2c-0.3-0.3-0.8-0.4-1.3-0.4c-0.6,0-1.1,0.2-1.6,0.6
						c-0.5,0.4-0.8,0.9-1,1.7s-0.3,1.9-0.3,3.3v8.7h-3.6V37.1H368.2z"/>
				</g>
			</g>
		</g>
	</g>
	<g>
		<g>
			<g>
				<path class="st112" d="M312,127.9c0.4,1.4-0.5,2.9-1.9,3.3l-36,9.4c-1.4,0.4-2.9-0.5-3.3-1.9L257,86.4c-0.4-1.4,0.5-2.9,1.9-3.3
					l36-9.4c1.4-0.4,2.9,0.5,3.3,1.9L312,127.9z"/>
			</g>
		</g>
		<g>
			<g>
				<g>
					<path class="st113" d="M314.9,139.2c0.4,1.7-0.4,3.4-1.8,3.8l-36,9.4c-1.4,0.4-3-0.7-3.4-2.4l-16.3-62.1
						c-0.4-1.7,0.4-3.4,1.8-3.8l36-9.4c1.4-0.4,3,0.7,3.4,2.4L314.9,139.2z"/>
				</g>
			</g>
		</g>
		<g>
			<g>
				<g>
					
						<rect x="267.4" y="81.1" transform="matrix(0.9675 -0.253 0.253 0.9675 -18.9481 75.9681)" class="st31" width="37" height="61.1"/>
				</g>
			</g>
		</g>
		<g>
			<g>
				<g>
					<path class="st114" d="M278.4,80.4c0.1,0.5-0.2,0.9-0.6,1s-0.9-0.1-1-0.6s0.1-0.9,0.6-1C277.8,79.7,278.3,80,278.4,80.4z"/>
				</g>
			</g>
		</g>
		<g>
			<g>
				<g>
					<path class="st114" d="M296.2,144.1c0.2,0.8-0.3,1.6-1,1.8c-0.8,0.2-1.6-0.3-1.8-1c-0.2-0.8,0.3-1.6,1.1-1.8
						C295.2,142.8,296,143.3,296.2,144.1z"/>
				</g>
			</g>
		</g>
		<g>
			<g>
				<g>
					<polygon class="st9" points="275.5,145.9 260.1,86.8 295.9,77.4 					"/>
				</g>
			</g>
		</g>
		<g>
			<g>
				<g>
					<path class="st115" d="M273.8,94.6c0.1,0.5-0.2,1-0.7,1.2l-4.4,1.2c-0.5,0.1-1-0.2-1.2-0.7l-1.2-4.4c-0.1-0.5,0.2-1,0.7-1.2
						l4.4-1.2c0.5-0.1,1,0.2,1.2,0.7L273.8,94.6z"/>
				</g>
			</g>
		</g>
		<g>
			<g>
				<g>
					<path class="st116" d="M284,92c0.1,0.5-0.2,1-0.7,1.2l-4.4,1.2c-0.5,0.1-1-0.2-1.2-0.7l-1.2-4.4c-0.1-0.5,0.2-1,0.7-1.2
						l4.4-1.2c0.5-0.1,1,0.2,1.2,0.7L284,92z"/>
				</g>
			</g>
		</g>
		<g>
			<g>
				<g>
					<path class="st117" d="M294,89.4c0.1,0.5-0.2,1-0.7,1.2l-4.4,1.2c-0.5,0.1-1-0.2-1.2-0.7l-1.2-4.4c-0.1-0.5,0.2-1,0.7-1.2
						l4.4-1.2c0.5-0.1,1,0.2,1.2,0.7L294,89.4z"/>
				</g>
			</g>
		</g>
		<g>
			<g>
				<g>
					<path class="st118" d="M276.5,104.6c0.1,0.5-0.2,1-0.7,1.2l-4.4,1.2c-0.5,0.1-1-0.2-1.2-0.7l-1.2-4.4c-0.1-0.5,0.2-1,0.7-1.2
						l4.4-1.2c0.5-0.1,1,0.2,1.2,0.7L276.5,104.6z"/>
				</g>
			</g>
		</g>
		<g>
			<g>
				<g>
					<path class="st119" d="M286.8,101.9c0.1,0.5-0.2,1-0.7,1.2l-4.4,1.2c-0.5,0.1-1-0.2-1.2-0.7l-1.2-4.4c-0.1-0.5,0.2-1,0.7-1.2
						l4.4-1.2c0.5-0.1,1,0.2,1.2,0.7L286.8,101.9z"/>
				</g>
			</g>
		</g>
		<g>
			<g>
				<g>
					<path class="st6" d="M296.7,99.3c0.1,0.5-0.2,1-0.7,1.2l-4.4,1.2c-0.5,0.1-1-0.2-1.2-0.7l-1.2-4.4c-0.1-0.5,0.2-1,0.7-1.2
						l4.4-1.2c0.5-0.1,1,0.2,1.2,0.7L296.7,99.3z"/>
				</g>
			</g>
		</g>
		<g>
			<g>
				<g>
					<path class="st120" d="M279.2,114.4c0.1,0.5-0.2,1-0.7,1.2l-4.4,1.2c-0.5,0.1-1-0.2-1.2-0.7l-1.2-4.4c-0.1-0.5,0.2-1,0.7-1.2
						l4.4-1.2c0.5-0.1,1,0.2,1.2,0.7L279.2,114.4z"/>
				</g>
			</g>
		</g>
		<g>
			<g>
				<g>
					<g>
						<path class="st121" d="M289.5,111.8c0.1,0.5-0.2,1-0.7,1.2l-4.4,1.2c-0.5,0.1-1-0.2-1.2-0.7L282,109c-0.1-0.5,0.2-1,0.7-1.2
							l4.4-1.2c0.5-0.1,1,0.2,1.2,0.7L289.5,111.8z"/>
					</g>
				</g>
				<g>
					<g>
						<path class="st122" d="M288.8,113.1l-4.4,1.2c-0.6,0.2-1.2-0.2-1.4-0.8l-1.2-4.4c-0.2-0.6,0.2-1.2,0.8-1.4l4.4-1.2
							c0.6-0.2,1.2,0.2,1.4,0.8l1.2,4.4C289.8,112.3,289.4,113,288.8,113.1z M282.8,108c-0.4,0.1-0.6,0.5-0.5,0.9l1.2,4.4
							c0.1,0.4,0.5,0.6,0.9,0.5l4.4-1.2c0.4-0.1,0.6-0.5,0.5-0.9l-1.2-4.4c-0.1-0.4-0.5-0.6-0.9-0.5L282.8,108z"/>
					</g>
				</g>
			</g>
		</g>
		<g>
			<g>
				<g>
					<path class="st123" d="M299.4,109.2c0.1,0.5-0.2,1-0.7,1.2l-4.4,1.2c-0.5,0.1-1-0.2-1.2-0.7l-1.2-4.4c-0.1-0.5,0.2-1,0.7-1.2
						l4.4-1.2c0.5-0.1,1,0.2,1.2,0.7L299.4,109.2z"/>
				</g>
			</g>
		</g>
		<g>
			<g>
				<g>
					<path class="st17" d="M280,88.8c-1.3,0.3-2.2,1.3-2,2.1c0.1,0.5,0.6,0.8,1.2,0.9v0.8l0.7-0.7c0.3,0,0.6-0.1,0.8-0.1
						c1.3-0.4,2.2-1.3,2-2.1C282.5,88.8,281.3,88.5,280,88.8z"/>
				</g>
			</g>
		</g>
		<g>
			<g>
				<g>
					<path class="st17" d="M271,91.1l-1.9,1l0.7,2.5c-0.1,0-0.3,0-0.4,0c-0.3,0.1-0.6,0.3-0.5,0.5s0.4,0.3,0.7,0.2
						c0.3-0.1,0.6-0.3,0.5-0.5l0,0l-0.7-2.6l1.5-0.8l0.6,2.2c-0.1,0-0.3,0-0.4,0c-0.3,0.1-0.6,0.3-0.5,0.5s0.4,0.3,0.7,0.2
						c0.3-0.1,0.5-0.3,0.5-0.5l0,0L271,91.1z"/>
				</g>
			</g>
		</g>
		<g>
			<g>
				<g>
					<path class="st124" d="M290.8,88c0.1-0.2,0.1-0.5,0-0.8c-0.1-0.5-0.5-0.9-0.8-0.8s-0.5,0.6-0.4,1.1c0.1,0.3,0.2,0.5,0.4,0.7
						c-0.5,0.3-0.8,0.9-0.6,1.5l2.7-0.7C292,88.4,291.4,88.1,290.8,88z"/>
				</g>
			</g>
		</g>
		<g>
			<g>
				<g>
					<path class="st124" d="M275.7,101.2l-0.3-1.1c-0.1-0.5-0.7-0.8-1.2-0.7l-4.4,1.2c-0.5,0.1-0.8,0.7-0.7,1.2l0.3,1.1L275.7,101.2
						z"/>
				</g>
			</g>
		</g>
		<g>
			<g>
				<g>
					<path class="st125" d="M295.8,95.9l-0.3-1.1c-0.1-0.5-0.7-0.8-1.2-0.7l-4.4,1.2c-0.5,0.1-0.8,0.7-0.7,1.2l0.3,1.1L295.8,95.9z"
						/>
				</g>
			</g>
		</g>
		<g>
			<g>
				<g>
					<path class="st126" d="M283.6,103c-1.3,0.3-2.6-0.4-3-1.7c-0.3-1.3,0.4-2.6,1.7-3c1.3-0.3,2.6,0.4,3,1.7
						C285.7,101.3,284.9,102.6,283.6,103z M282.5,98.5c-1.2,0.3-1.9,1.5-1.6,2.7s1.5,1.9,2.7,1.6s1.9-1.5,1.6-2.7
						C284.9,98.9,283.7,98.2,282.5,98.5z"/>
				</g>
			</g>
		</g>
		<g>
			<g>
				<g>
					<polygon class="st126" points="284.5,100.4 282.9,100.8 282.5,99.1 282.7,99.1 283.1,100.5 284.4,100.1 					"/>
				</g>
			</g>
		</g>
		<g>
			<g>
				<g>
					<path class="st6" d="M285.1,113.3L285.1,113.3c-0.1-0.2-0.1-0.4-0.1-0.5l0.7,0.1c0,0.1,0,0.1,0,0.2v0.1l0.3-0.1c0,0,0,0,0-0.1
						c-0.1-0.3,0.1-0.5,0.3-0.6c0.3-0.1,0.5,0.1,0.6,0.4c0,0,0,0,0,0.1l0.3-0.1c0,0,0,0,0-0.1s0-0.1-0.1-0.1l0.6-0.4
						c0.1,0.1,0.1,0.2,0.2,0.4v0.1l0.6-0.2v-0.1c0,0,0,0,0-0.1l-0.3,0.1c0-0.1-0.1-0.2-0.1-0.2l0.2-0.1c0-0.1-0.1-0.1-0.1-0.2
						L288,112c-0.1-0.1-0.1-0.2-0.2-0.2l0.2-0.2c-0.1-0.1-0.1-0.1-0.2-0.2l-0.2,0.2c-0.1-0.1-0.1-0.1-0.2-0.2l0.1-0.2
						c-0.1,0-0.1-0.1-0.2-0.1l-0.1,0.2c-0.1,0-0.2-0.1-0.2-0.1l0.1-0.3c-0.1,0-0.1,0-0.2-0.1l-0.1,0.3c-0.1,0-0.2,0-0.3,0v-0.3
						c-0.1,0-0.1,0-0.2,0v0.3c-0.1,0-0.2,0-0.3,0l-0.1-0.3h-0.1h-0.1l0.1,0.3c-0.1,0-0.2,0.1-0.2,0.1l-0.1-0.2
						c-0.1,0-0.1,0.1-0.2,0.1l0.1,0.2c-0.1,0-0.1,0.1-0.2,0.2l-0.2-0.2c-0.1,0.1-0.1,0.1-0.2,0.2l0.2,0.2c-0.1,0.1-0.1,0.1-0.2,0.2
						l-0.2-0.1c0,0.1-0.1,0.1-0.1,0.2l0.2,0.1c0,0.1-0.1,0.1-0.1,0.2l-0.3-0.1c0,0.1,0,0.1-0.1,0.2l0.3,0.1c0,0.1,0,0.2,0,0.3h-0.3
						c0,0.1,0,0.2,0,0.2h0.3c0,0.1,0,0.2,0,0.3l-0.3,0.1v0.1c0,0,0,0,0,0.1L285.1,113.3z M286.3,111.4c0.5-0.1,1.1,0.1,1.4,0.5
						l-0.6,0.4c-0.2-0.2-0.4-0.3-0.7-0.2L286.3,111.4z M286,111.5l0.2,0.7c-0.2,0.1-0.3,0.3-0.4,0.5l-0.7-0.1
						C285.2,112.1,285.5,111.7,286,111.5z"/>
				</g>
			</g>
		</g>
		<g>
			<g>
				<g>
					<g>
						<polygon class="st122" points="275,111 273,113.1 273.6,115.7 278.5,114.4 277.8,111.8 						"/>
					</g>
				</g>
			</g>
			<g>
				<g>
					<g>
						<polygon class="st17" points="277.7,114 274.1,114.9 273.5,112.7 277.1,111.7 						"/>
					</g>
				</g>
			</g>
			<g>
				<g>
					<g>
						<defs>
							<polygon id="SVGID_88_" points="278.5,114.4 273.6,115.7 273,113.2 275.7,113.6 277.8,111.8 							"/>
						</defs>
						<clipPath id="SVGID_89_">
							<use xlink:href="#SVGID_88_"  style="overflow:visible;"/>
						</clipPath>
						<g class="st127">
							<g>
								
									<rect x="273.2" y="112.4" transform="matrix(0.9671 -0.2542 0.2542 0.9671 -19.8616 73.8183)" class="st41" width="5" height="2.7"/>
							</g>
						</g>
					</g>
					<g>
						<defs>
							<polygon id="SVGID_90_" points="278.5,114.4 273.6,115.7 273,113.2 275.7,113.6 277.8,111.8 							"/>
						</defs>
						<clipPath id="SVGID_91_">
							<use xlink:href="#SVGID_90_"  style="overflow:visible;"/>
						</clipPath>
						<g class="st128">
							<g>
								
									<ellipse transform="matrix(0.9677 -0.2523 0.2523 0.9677 -19.793 73.2426)" class="st41" cx="275.7" cy="113.8" rx="2.1" ry="1.8"/>
							</g>
						</g>
					</g>
					<g>
						<defs>
							<polygon id="SVGID_92_" points="278.5,114.4 273.6,115.7 273,113.2 275.7,113.6 277.8,111.8 							"/>
						</defs>
						<clipPath id="SVGID_93_">
							<use xlink:href="#SVGID_92_"  style="overflow:visible;"/>
						</clipPath>
						<g class="st129">
							<g>
								
									<ellipse transform="matrix(0.9672 -0.2539 0.2539 0.9672 -19.8631 73.7315)" class="st44" cx="275.7" cy="113.8" rx="2" ry="1.7"/>
							</g>
						</g>
					</g>
					<g>
						<defs>
							<polygon id="SVGID_94_" points="278.5,114.4 273.6,115.7 273,113.2 275.7,113.6 277.8,111.8 							"/>
						</defs>
						<clipPath id="SVGID_95_">
							<use xlink:href="#SVGID_94_"  style="overflow:visible;"/>
						</clipPath>
						<g class="st130">
							<g>
								
									<ellipse transform="matrix(0.9673 -0.2537 0.2537 0.9673 -19.8513 73.6703)" class="st46" cx="275.7" cy="113.8" rx="2" ry="1.7"/>
							</g>
						</g>
					</g>
					<g>
						<defs>
							<polygon id="SVGID_96_" points="278.5,114.4 273.6,115.7 273,113.2 275.7,113.6 277.8,111.8 							"/>
						</defs>
						<clipPath id="SVGID_97_">
							<use xlink:href="#SVGID_96_"  style="overflow:visible;"/>
						</clipPath>
						<g class="st131">
							<g>
								
									<ellipse transform="matrix(0.9675 -0.253 0.253 0.9675 -19.8235 73.4565)" class="st48" cx="275.7" cy="113.8" rx="1.9" ry="1.6"/>
							</g>
						</g>
					</g>
					<g>
						<defs>
							<polygon id="SVGID_98_" points="278.5,114.4 273.6,115.7 273,113.2 275.7,113.6 277.8,111.8 							"/>
						</defs>
						<clipPath id="SVGID_99_">
							<use xlink:href="#SVGID_98_"  style="overflow:visible;"/>
						</clipPath>
						<g class="st132">
							<g>
								
									<ellipse transform="matrix(0.9675 -0.2528 0.2528 0.9675 -19.8125 73.3954)" class="st50" cx="275.7" cy="113.8" rx="1.9" ry="1.6"/>
							</g>
						</g>
					</g>
					<g>
						<defs>
							<polygon id="SVGID_100_" points="278.5,114.4 273.6,115.7 273,113.2 275.7,113.6 277.8,111.8 							"/>
						</defs>
						<clipPath id="SVGID_101_">
							<use xlink:href="#SVGID_100_"  style="overflow:visible;"/>
						</clipPath>
						<g class="st133">
							<g>
								
									<ellipse transform="matrix(0.9676 -0.2524 0.2524 0.9676 -19.7955 73.2732)" class="st52" cx="275.7" cy="113.8" rx="1.8" ry="1.5"/>
							</g>
						</g>
					</g>
					<g>
						<defs>
							<polygon id="SVGID_102_" points="278.5,114.4 273.6,115.7 273,113.2 275.7,113.6 277.8,111.8 							"/>
						</defs>
						<clipPath id="SVGID_103_">
							<use xlink:href="#SVGID_102_"  style="overflow:visible;"/>
						</clipPath>
						<g class="st134">
							<g>
								
									<ellipse transform="matrix(0.9678 -0.2519 0.2519 0.9678 -19.7736 73.1205)" class="st54" cx="275.7" cy="113.8" rx="1.7" ry="1.5"/>
							</g>
						</g>
					</g>
					<g>
						<defs>
							<polygon id="SVGID_104_" points="278.5,114.4 273.6,115.7 273,113.2 275.7,113.6 277.8,111.8 							"/>
						</defs>
						<clipPath id="SVGID_105_">
							<use xlink:href="#SVGID_104_"  style="overflow:visible;"/>
						</clipPath>
						<g class="st135">
							<g>
								
									<ellipse transform="matrix(0.9672 -0.2539 0.2539 0.9672 -19.8616 73.7315)" class="st56" cx="275.7" cy="113.8" rx="1.7" ry="1.4"/>
							</g>
						</g>
					</g>
					<g>
						<defs>
							<polygon id="SVGID_106_" points="278.5,114.4 273.6,115.7 273,113.2 275.7,113.6 277.8,111.8 							"/>
						</defs>
						<clipPath id="SVGID_107_">
							<use xlink:href="#SVGID_106_"  style="overflow:visible;"/>
						</clipPath>
						<g class="st136">
							<g>
								<path class="st58" d="M277.3,113.4c0.2,0.7-0.4,1.5-1.2,1.7c-0.9,0.2-1.7-0.2-1.9-0.9c-0.2-0.7,0.4-1.5,1.2-1.7
									C276.2,112.2,277.1,112.6,277.3,113.4z"/>
							</g>
						</g>
					</g>
					<g>
						<defs>
							<polygon id="SVGID_108_" points="278.5,114.4 273.6,115.7 273,113.2 275.7,113.6 277.8,111.8 							"/>
						</defs>
						<clipPath id="SVGID_109_">
							<use xlink:href="#SVGID_108_"  style="overflow:visible;"/>
						</clipPath>
						<g class="st137">
							<g>
								
									<ellipse transform="matrix(0.9674 -0.2532 0.2532 0.9674 -19.8299 73.5176)" class="st60" cx="275.7" cy="113.8" rx="1.6" ry="1.3"/>
							</g>
						</g>
					</g>
					<g>
						<defs>
							<polygon id="SVGID_110_" points="278.5,114.4 273.6,115.7 273,113.2 275.7,113.6 277.8,111.8 							"/>
						</defs>
						<clipPath id="SVGID_111_">
							<use xlink:href="#SVGID_110_"  style="overflow:visible;"/>
						</clipPath>
						<g class="st138">
							<g>
								
									<ellipse transform="matrix(0.9672 -0.2542 0.2542 0.9672 -19.8703 73.823)" class="st62" cx="275.7" cy="113.8" rx="1.5" ry="1.3"/>
							</g>
						</g>
					</g>
					<g>
						<defs>
							<polygon id="SVGID_112_" points="278.5,114.4 273.6,115.7 273,113.2 275.7,113.6 277.8,111.8 							"/>
						</defs>
						<clipPath id="SVGID_113_">
							<use xlink:href="#SVGID_112_"  style="overflow:visible;"/>
						</clipPath>
						<g class="st139">
							<g>
								
									<ellipse transform="matrix(0.9672 -0.2539 0.2539 0.9672 -19.8612 73.7314)" class="st64" cx="275.7" cy="113.8" rx="1.5" ry="1.2"/>
							</g>
						</g>
					</g>
					<g>
						<defs>
							<polygon id="SVGID_114_" points="278.5,114.4 273.6,115.7 273,113.2 275.7,113.6 277.8,111.8 							"/>
						</defs>
						<clipPath id="SVGID_115_">
							<use xlink:href="#SVGID_114_"  style="overflow:visible;"/>
						</clipPath>
						<g class="st140">
							<g>
								
									<ellipse transform="matrix(0.9678 -0.2517 0.2517 0.9678 -19.7689 73.0594)" class="st66" cx="275.7" cy="113.8" rx="1.4" ry="1.2"/>
							</g>
						</g>
					</g>
					<g>
						<defs>
							<polygon id="SVGID_116_" points="278.5,114.4 273.6,115.7 273,113.2 275.7,113.6 277.8,111.8 							"/>
						</defs>
						<clipPath id="SVGID_117_">
							<use xlink:href="#SVGID_116_"  style="overflow:visible;"/>
						</clipPath>
						<g class="st141">
							<g>
								
									<ellipse transform="matrix(0.9674 -0.2531 0.2531 0.9674 -19.824 73.4868)" class="st68" cx="275.7" cy="113.8" rx="1.3" ry="1.1"/>
							</g>
						</g>
					</g>
					<g>
						<defs>
							<polygon id="SVGID_118_" points="278.5,114.4 273.6,115.7 273,113.2 275.7,113.6 277.8,111.8 							"/>
						</defs>
						<clipPath id="SVGID_119_">
							<use xlink:href="#SVGID_118_"  style="overflow:visible;"/>
						</clipPath>
						<g class="st142">
							<g>
								<path class="st70" d="M277,113.5c0.2,0.6-0.3,1.2-1,1.4c-0.7,0.2-1.4-0.1-1.5-0.7s0.3-1.2,1-1.4
									C276.1,112.5,276.8,112.9,277,113.5z"/>
							</g>
						</g>
					</g>
					<g>
						<defs>
							<polygon id="SVGID_120_" points="278.5,114.4 273.6,115.7 273,113.2 275.7,113.6 277.8,111.8 							"/>
						</defs>
						<clipPath id="SVGID_121_">
							<use xlink:href="#SVGID_120_"  style="overflow:visible;"/>
						</clipPath>
						<g class="st143">
							<g>
								
									<ellipse transform="matrix(0.9674 -0.2534 0.2534 0.9674 -19.8368 73.5787)" class="st72" cx="275.7" cy="113.8" rx="1.2" ry="1"/>
							</g>
						</g>
					</g>
					<g>
						<defs>
							<polygon id="SVGID_122_" points="278.5,114.4 273.6,115.7 273,113.2 275.7,113.6 277.8,111.8 							"/>
						</defs>
						<clipPath id="SVGID_123_">
							<use xlink:href="#SVGID_122_"  style="overflow:visible;"/>
						</clipPath>
						<g class="st144">
							<g>
								<path class="st74" d="M276.9,113.5c0.1,0.5-0.3,1.1-0.9,1.3s-1.3-0.1-1.4-0.7c-0.1-0.5,0.3-1.1,0.9-1.3
									C276.1,112.7,276.7,112.9,276.9,113.5z"/>
							</g>
						</g>
					</g>
					<g>
						<defs>
							<polygon id="SVGID_124_" points="278.5,114.4 273.6,115.7 273,113.2 275.7,113.6 277.8,111.8 							"/>
						</defs>
						<clipPath id="SVGID_125_">
							<use xlink:href="#SVGID_124_"  style="overflow:visible;"/>
						</clipPath>
						<g class="st145">
							<g>
								
									<ellipse transform="matrix(0.9678 -0.2519 0.2519 0.9678 -19.775 73.1205)" class="st76" cx="275.7" cy="113.8" rx="1.1" ry="0.9"/>
							</g>
						</g>
					</g>
					<g>
						<defs>
							<polygon id="SVGID_126_" points="278.5,114.4 273.6,115.7 273,113.2 275.7,113.6 277.8,111.8 							"/>
						</defs>
						<clipPath id="SVGID_127_">
							<use xlink:href="#SVGID_126_"  style="overflow:visible;"/>
						</clipPath>
						<g class="st146">
							<g>
								
									<ellipse transform="matrix(0.9679 -0.2513 0.2513 0.9679 -19.7482 72.9374)" class="st76" cx="275.7" cy="113.8" rx="1.1" ry="0.9"/>
							</g>
						</g>
					</g>
					<g>
						<defs>
							<polygon id="SVGID_128_" points="278.5,114.4 273.6,115.7 273,113.2 275.7,113.6 277.8,111.8 							"/>
						</defs>
						<clipPath id="SVGID_129_">
							<use xlink:href="#SVGID_128_"  style="overflow:visible;"/>
						</clipPath>
						<g class="st147">
							<g>
								
									<ellipse transform="matrix(0.9669 -0.255 0.255 0.9669 -19.9064 74.0677)" class="st76" cx="275.7" cy="113.8" rx="1" ry="0.8"/>
							</g>
						</g>
					</g>
					<g>
						<defs>
							<polygon id="SVGID_130_" points="278.5,114.4 273.6,115.7 273,113.2 275.7,113.6 277.8,111.8 							"/>
						</defs>
						<clipPath id="SVGID_131_">
							<use xlink:href="#SVGID_130_"  style="overflow:visible;"/>
						</clipPath>
						<g class="st148">
							<g>
								
									<ellipse transform="matrix(0.9671 -0.2544 0.2544 0.9671 -19.883 73.8843)" class="st80" cx="275.7" cy="113.8" rx="0.9" ry="0.8"/>
							</g>
						</g>
					</g>
					<g>
						<defs>
							<polygon id="SVGID_132_" points="278.5,114.4 273.6,115.7 273,113.2 275.7,113.6 277.8,111.8 							"/>
						</defs>
						<clipPath id="SVGID_133_">
							<use xlink:href="#SVGID_132_"  style="overflow:visible;"/>
						</clipPath>
						<g class="st149">
							<g>
								
									<ellipse transform="matrix(0.9673 -0.2537 0.2537 0.9673 -19.8535 73.6703)" class="st82" cx="275.7" cy="113.8" rx="0.9" ry="0.7"/>
							</g>
						</g>
					</g>
					<g>
						<defs>
							<polygon id="SVGID_134_" points="278.5,114.4 273.6,115.7 273,113.2 275.7,113.6 277.8,111.8 							"/>
						</defs>
						<clipPath id="SVGID_135_">
							<use xlink:href="#SVGID_134_"  style="overflow:visible;"/>
						</clipPath>
						<g class="st150">
							<g>
								
									<ellipse transform="matrix(0.9676 -0.2525 0.2525 0.9676 -19.8042 73.3037)" class="st82" cx="275.7" cy="113.8" rx="0.8" ry="0.7"/>
							</g>
						</g>
					</g>
					<g>
						<defs>
							<polygon id="SVGID_136_" points="278.5,114.4 273.6,115.7 273,113.2 275.7,113.6 277.8,111.8 							"/>
						</defs>
						<clipPath id="SVGID_137_">
							<use xlink:href="#SVGID_136_"  style="overflow:visible;"/>
						</clipPath>
						<g class="st151">
							<g>
								
									<ellipse transform="matrix(0.9677 -0.252 0.252 0.9677 -19.7795 73.1511)" class="st82" cx="275.7" cy="113.8" rx="0.8" ry="0.7"/>
							</g>
						</g>
					</g>
					<g>
						<defs>
							<polygon id="SVGID_138_" points="278.5,114.4 273.6,115.7 273,113.2 275.7,113.6 277.8,111.8 							"/>
						</defs>
						<clipPath id="SVGID_139_">
							<use xlink:href="#SVGID_138_"  style="overflow:visible;"/>
						</clipPath>
						<g class="st152">
							<g>
								<path class="st82" d="M276.4,113.6c0.1,0.3-0.2,0.7-0.5,0.8c-0.4,0.1-0.8-0.1-0.8-0.4c-0.1-0.3,0.2-0.7,0.5-0.8
									C276,113.1,276.3,113.3,276.4,113.6z"/>
							</g>
						</g>
					</g>
					<g>
						<defs>
							<polygon id="SVGID_140_" points="278.5,114.4 273.6,115.7 273,113.2 275.7,113.6 277.8,111.8 							"/>
						</defs>
						<clipPath id="SVGID_141_">
							<use xlink:href="#SVGID_140_"  style="overflow:visible;"/>
						</clipPath>
						<g class="st153">
							<g>
								<path class="st82" d="M276.4,113.6c0.1,0.3-0.1,0.6-0.5,0.7s-0.7-0.1-0.8-0.4c-0.1-0.3,0.1-0.6,0.5-0.7
									C275.9,113.1,276.3,113.3,276.4,113.6z"/>
							</g>
						</g>
					</g>
					<g>
						<defs>
							<polygon id="SVGID_142_" points="278.5,114.4 273.6,115.7 273,113.2 275.7,113.6 277.8,111.8 							"/>
						</defs>
						<clipPath id="SVGID_143_">
							<use xlink:href="#SVGID_142_"  style="overflow:visible;"/>
						</clipPath>
						<g class="st154">
							<g>
								
									<ellipse transform="matrix(0.9669 -0.2552 0.2552 0.9669 -19.9156 74.1288)" class="st82" cx="275.7" cy="113.8" rx="0.6" ry="0.5"/>
							</g>
						</g>
					</g>
					<g>
						<defs>
							<polygon id="SVGID_144_" points="278.5,114.4 273.6,115.7 273,113.2 275.7,113.6 277.8,111.8 							"/>
						</defs>
						<clipPath id="SVGID_145_">
							<use xlink:href="#SVGID_144_"  style="overflow:visible;"/>
						</clipPath>
						<g class="st155">
							<g>
								<path class="st82" d="M276.3,113.6c0.1,0.2-0.1,0.5-0.4,0.6s-0.6-0.1-0.7-0.3c-0.1-0.2,0.1-0.5,0.4-0.6
									C275.9,113.2,276.2,113.4,276.3,113.6z"/>
							</g>
						</g>
					</g>
					<g>
						<defs>
							<polygon id="SVGID_146_" points="278.5,114.4 273.6,115.7 273,113.2 275.7,113.6 277.8,111.8 							"/>
						</defs>
						<clipPath id="SVGID_147_">
							<use xlink:href="#SVGID_146_"  style="overflow:visible;"/>
						</clipPath>
						<g class="st156">
							<g>
								
									<ellipse transform="matrix(0.9677 -0.2519 0.2519 0.9677 -19.7793 73.1206)" class="st82" cx="275.7" cy="113.8" rx="0.5" ry="0.4"/>
							</g>
						</g>
					</g>
					<g>
						<defs>
							<polygon id="SVGID_148_" points="278.5,114.4 273.6,115.7 273,113.2 275.7,113.6 277.8,111.8 							"/>
						</defs>
						<clipPath id="SVGID_149_">
							<use xlink:href="#SVGID_148_"  style="overflow:visible;"/>
						</clipPath>
						<g class="st157">
							<g>
								
									<ellipse transform="matrix(0.9682 -0.2501 0.2501 0.9682 -19.7001 72.5712)" class="st82" cx="275.7" cy="113.8" rx="0.4" ry="0.4"/>
							</g>
						</g>
					</g>
					<g>
						<defs>
							<polygon id="SVGID_150_" points="278.5,114.4 273.6,115.7 273,113.2 275.7,113.6 277.8,111.8 							"/>
						</defs>
						<clipPath id="SVGID_151_">
							<use xlink:href="#SVGID_150_"  style="overflow:visible;"/>
						</clipPath>
						<g class="st158">
							<g>
								<path class="st82" d="M276.1,113.7c0,0.2-0.1,0.4-0.3,0.4c-0.2,0.1-0.4,0-0.4-0.2s0.1-0.4,0.3-0.4
									C275.8,113.4,276,113.5,276.1,113.7z"/>
							</g>
						</g>
					</g>
					<g>
						<defs>
							<polygon id="SVGID_152_" points="278.5,114.4 273.6,115.7 273,113.2 275.7,113.6 277.8,111.8 							"/>
						</defs>
						<clipPath id="SVGID_153_">
							<use xlink:href="#SVGID_152_"  style="overflow:visible;"/>
						</clipPath>
						<g class="st159">
							<g>
								<path class="st82" d="M276,113.7c0,0.1-0.1,0.3-0.2,0.4c-0.2,0-0.3,0-0.4-0.2c0-0.1,0.1-0.3,0.2-0.3
									C275.8,113.5,276,113.5,276,113.7z"/>
							</g>
						</g>
					</g>
					<g>
						<defs>
							<polygon id="SVGID_154_" points="278.5,114.4 273.6,115.7 273,113.2 275.7,113.6 277.8,111.8 							"/>
						</defs>
						<clipPath id="SVGID_155_">
							<use xlink:href="#SVGID_154_"  style="overflow:visible;"/>
						</clipPath>
						<g class="st160">
							<g>
								
									<ellipse transform="matrix(0.9666 -0.2564 0.2564 0.9666 -19.9604 74.4958)" class="st82" cx="275.7" cy="113.8" rx="0.3" ry="0.2"/>
							</g>
						</g>
					</g>
					<g>
						<defs>
							<polygon id="SVGID_156_" points="278.5,114.4 273.6,115.7 273,113.2 275.7,113.6 277.8,111.8 							"/>
						</defs>
						<clipPath id="SVGID_157_">
							<use xlink:href="#SVGID_156_"  style="overflow:visible;"/>
						</clipPath>
						<g class="st161">
							<g>
								
									<ellipse transform="matrix(0.9673 -0.2537 0.2537 0.9673 -19.8546 73.6703)" class="st82" cx="275.7" cy="113.8" rx="0.2" ry="0.2"/>
							</g>
						</g>
					</g>
					<g>
						<defs>
							<polygon id="SVGID_158_" points="278.5,114.4 273.6,115.7 273,113.2 275.7,113.6 277.8,111.8 							"/>
						</defs>
						<clipPath id="SVGID_159_">
							<use xlink:href="#SVGID_158_"  style="overflow:visible;"/>
						</clipPath>
						<g class="st162">
							<g>
								
									<ellipse transform="matrix(0.9681 -0.2504 0.2504 0.9681 -19.7114 72.6626)" class="st82" cx="275.7" cy="113.8" rx="0.2" ry="0.1"/>
							</g>
						</g>
					</g>
					<g>
						<defs>
							<polygon id="SVGID_160_" points="278.5,114.4 273.6,115.7 273,113.2 275.7,113.6 277.8,111.8 							"/>
						</defs>
						<clipPath id="SVGID_161_">
							<use xlink:href="#SVGID_160_"  style="overflow:visible;"/>
						</clipPath>
						<g class="st163">
							<g>
								
									<ellipse transform="matrix(0.9701 -0.2429 0.2429 0.9701 -19.3835 70.3776)" class="st82" cx="275.7" cy="113.8" rx="0.1" ry="0.1"/>
							</g>
						</g>
					</g>
				</g>
			</g>
			<g>
				<g>
					<g>
						<polygon class="st164" points="278.5,114.4 273.6,115.7 273,113.1 275.7,113.6 277.8,111.8 						"/>
					</g>
				</g>
			</g>
			<g>
				<g>
					<g>
						<polygon class="st97" points="273.6,115.7 275.7,113.6 278.5,114.4 						"/>
					</g>
				</g>
			</g>
		</g>
		<g>
			<g>
				<g>
					<g>
						<g>
							<path class="st165" d="M297.9,108c0,0-0.4-0.4-0.6-0.4h-0.1c0.2-0.1,0.5-0.4,0.5-0.4s-0.5-0.3-0.7-0.3c-0.1,0-0.1,0-0.2,0
								l0,0c0.1-0.2,0.1-0.7,0.1-0.7s-0.6,0.1-0.7,0.2c-0.2,0.2-0.1,0.4,0,0.6c0.1,0.1,0.3,0.1,0.4,0c-0.1,0.1-0.1,0.2-0.1,0.3
								c0,0.2,0.2,0.4,0.4,0.3c-0.2,0.1-0.3,0.2-0.3,0.3c0,0.1,0.1,0.3,0.2,0.3c-0.1,0-0.2,0-0.3,0.1c-0.1,0.1-0.1,0.4,0,0.6
								c0.2,0.2,0.7,0.2,0.7,0.2s0-0.6-0.2-0.7l-0.1-0.1l0,0C297.5,108.4,297.9,108,297.9,108z"/>
						</g>
					</g>
				</g>
				<g>
					<g>
						<g>
							<path class="st165" d="M296.3,108.8c-0.1,0.1-0.2,0.2-0.2,0.4c-0.1-0.1-0.1-0.2-0.2-0.2c-0.2,0-0.4,0.1-0.5,0.3
								c0,0.2,0.2,0.7,0.2,0.7s0.5-0.3,0.5-0.6c0-0.1,0-0.1,0-0.2l0,0c0.1,0.2,0.7,0.4,0.7,0.4s0.1-0.6,0-0.8
								C296.7,108.8,296.4,108.7,296.3,108.8z"/>
						</g>
					</g>
				</g>
				<g>
					<g>
						<g>
							<path class="st165" d="M294.8,109.8c0,0,0.5-0.2,0.6-0.4c0.1-0.2,0-0.4-0.1-0.5s-0.3,0-0.4,0.1c0.1-0.1,0.1-0.2,0-0.3
								c-0.1-0.2-0.3-0.3-0.5-0.2c-0.2,0.1-0.5,0.6-0.5,0.6s0.5,0.2,0.7,0.1c0.1,0,0.1,0,0.1-0.1l0,0
								C294.6,109.2,294.8,109.8,294.8,109.8z"/>
						</g>
					</g>
				</g>
				<g>
					<g>
						<g>
							<path class="st165" d="M293.7,108.1c0,0,0.5,0.3,0.7,0.3s0.4-0.2,0.4-0.4c0-0.1-0.1-0.3-0.3-0.3c0.1,0,0.2-0.1,0.3-0.1
								c0.1-0.1,0.1-0.3,0-0.5c0.1,0,0.3,0,0.3-0.1c0.1-0.1,0.1-0.2,0-0.3c0.1,0.1,0.2,0.1,0.3,0.1c0.1,0,0.2-0.2,0.3-0.3
								c0,0.1,0.1,0.2,0.2,0.3c0.2,0.1,0.4,0,0.5-0.2s0-0.8,0-0.8s-0.5,0.2-0.6,0.4v0.1l0,0c-0.1-0.2-0.5-0.5-0.5-0.5
								s-0.3,0.5-0.2,0.7l0,0l0,0c-0.2-0.1-0.7-0.1-0.7-0.1s0.1,0.4,0.2,0.6c-0.2,0-0.5,0-0.5,0s0.1,0.6,0.3,0.7l0.1,0.1l0,0
								C294,107.7,293.7,108.1,293.7,108.1z"/>
						</g>
					</g>
				</g>
			</g>
			<g>
				<g>
					<g>
						<path class="st124" d="M297.1,107.5c0.2,0.7-0.2,1.4-1,1.6c-0.7,0.2-1.4-0.2-1.6-1c-0.2-0.7,0.2-1.4,1-1.6
							C296.1,106.4,296.9,106.8,297.1,107.5z"/>
					</g>
				</g>
			</g>
		</g>
		<g>
			<g>
				<g>
					<path class="st166" d="M293.1,98.9c0.2,0.6,0,1.1-0.6,1.3c-0.6,0.2-0.9-0.3-1.1-0.8c-0.2-0.6,0-1.1,0.6-1.3
						C292.6,97.9,293,98.3,293.1,98.9z M292,99.2c0.1,0.5,0.3,0.7,0.5,0.6s0.2-0.3,0.1-0.8s-0.3-0.7-0.5-0.6
						C291.9,98.5,291.9,98.7,292,99.2z"/>
				</g>
			</g>
			<g>
				<g>
					<path class="st166" d="M293.9,98.1L293.9,98.1l-0.4,0.3l-0.2-0.3l0.5-0.4l0.4-0.1l0.5,2.1l-0.5,0.1L293.9,98.1z"/>
				</g>
			</g>
		</g>
	</g>
</g>
</svg>
