<?xml version="1.0" encoding="utf-8"?>
<!-- Generator: Adobe Illustrator 19.2.0, SVG Export Plug-In . SVG Version: 6.00 Build 0)  -->
<svg version="1.1" id="Layer_1" xmlns="http://www.w3.org/2000/svg" xmlns:xlink="http://www.w3.org/1999/xlink" x="0px" y="0px"
	 viewBox="0 0 293 493.7" style="enable-background:new 0 0 293 493.7;" xml:space="preserve">
<style type="text/css">
	.st0{fill:#BF897B;}
	.st1{fill:#AD7866;}
	.st2{fill:#676767;}
	.st3{fill:#32C0CC;}
	.st4{fill:#239BA6;}
	.st5{fill:#FCCAB4;}
	.st6{opacity:0.5;}
	.st7{fill:url(#SVGID_1_);}
	.st8{fill:#D1D3D4;}
	.st9{fill:#BCBEC0;}
	.st10{fill:#4E4E4E;}
	.st11{fill:none;}
	.st12{fill:#FFFFFF;}
</style>
<g>
	<g>
		<g>
			<path class="st0" d="M143,268.5l-21.3,16.3c0,0-3.9,4.9,3.5,9.4c7.3,4.4,29.8-2.2,29.8-2.2l3.7-8.2l-4.1-15.6L143,268.5z"/>
			<path class="st0" d="M145.5,262.2l-25.3,13.1c0,0-4.9,4.4,1.8,10.4c6.8,6,31.6,3.3,31.6,3.3l5.4-7.9l-1.3-17L145.5,262.2z"/>
			<path class="st0" d="M135.1,272.1c0,0,11.1,7,20.2,3.7c0,0-1.8,6,5.2,10.8c7,4.8,22.1-3,22.1-3l-15.4-25.7l-22.8-2.7l-7.4,3.3
				L135.1,272.1z"/>
			<path class="st1" d="M140.8,264.6c0,0,11.2,7,19.9,2.7c0,0-0.6,4.9,6.9,9c7.5,4,21.7-5.3,21.7-5.3L170,253.1l-22.8,0.1l-6-2.5
				L140.8,264.6z"/>
			<g>
				<polygon class="st2" points="163.6,367.8 129.7,321.4 129.7,155.9 163.6,155.9 				"/>
				<g>
					<path class="st3" d="M261.2,0H146.4H38.9C22.6,0,0,17.2,0,33.5v103.7C0,153.5,22.6,165,38.9,165h107.4h114.9
						c16.3,0,31.8-11.5,31.8-27.8V33.5C293,17.2,277.5,0,261.2,0z"/>
					<g>
						<path class="st4" d="M261.2,0H147v165h114.2c16.3,0,31.8-11.5,31.8-27.8V33.5C293,17.2,277.5,0,261.2,0z"/>
					</g>
				</g>
			</g>
			<g>
				<path class="st5" d="M199.3,283c-1.5-2.9-9.3-19.7-13.2-24.7c-3.9-5-10.1-12.2-10.1-12.2l0,0.1c-0.1-0.2-0.2-0.4-0.3-0.4
					c-0.8-0.2-10.6,1.7-12.2,1.8c-1.7,0-19.8,1-20.2,0.8c0,0-2.2,0.4-1.2,5.5c2.4,11.4,17.9,11.1,24.5,10.5l-0.2,0.3
					c-0.2,4.4,3.9,9.5,3.9,9.5c-5.2,6.2-11.5,14.9-11.5,14.9l-10.7,0.4c-2.2-5.2-8.2-13.6-8.2-13.6s0.4-0.4,2-6.7
					c2.8-11.2-0.2-16.4-4.3-18.2c-4.9-2.2-7.1,1.9-7.7,2.7c-0.8,1.2-5.8,11.1-6.9,13.3c-1.4,2.6-3.7,4.9-2.5,9.2
					c1.1,4.3,7.2,40,8.7,45.3c1.5,5.4,8.6,24.4,8.6,24.4l37.6-3.7c0.4-0.8,0.5-13.5,2.6-16.8C184.1,316.2,200.8,285.9,199.3,283z"/>
				<path class="st5" d="M175.8,342.1l-0.3,0C174.7,343.5,175.8,342.1,175.8,342.1z"/>
			</g>
			<g>
				<path class="st5" d="M138,345.8c0,0-7.1-19-8.6-24.4c-1.5-5.4-7.6-41.1-8.7-45.3c-1.1-4.3,1.1-6.6,2.5-9.2"/>
				<g>
					<path class="st5" d="M148.2,289.4l0.4,0l-1.8-2.9C147.4,287.5,147.9,288.5,148.2,289.4z"/>
					<path class="st5" d="M175.9,342.1l-0.1-0.2C174.7,343.6,175.9,342.1,175.9,342.1z"/>
					<path class="st5" d="M140.1,275.7l6.8,10.8C144.2,281.5,140.1,275.7,140.1,275.7z"/>
				</g>
			</g>
			<path class="st5" d="M123.2,266.8c1.2-2.2,6.1-12.1,6.9-13.3c0.6-0.8,2.8-4.8,7.7-2.7c4.1,1.8,7,7,4.3,18.2c-1.6,6.3-2,6.7-2,6.7
				"/>
			<g>
				<g class="st6">
					
						<linearGradient id="SVGID_1_" gradientUnits="userSpaceOnUse" x1="453.1957" y1="322.4194" x2="453.2216" y2="322.4194" gradientTransform="matrix(0.9646 0.2638 -0.2638 0.9646 -210.2058 -175.6793)">
						<stop  offset="0.2743" style="stop-color:#D8BAA7"/>
						<stop  offset="0.4385" style="stop-color:#DDC2B1"/>
						<stop  offset="0.7255" style="stop-color:#EBD9CD"/>
						<stop  offset="1" style="stop-color:#FFF7F2"/>
					</linearGradient>
					<path class="st7" d="M141.9,254.9L141.9,254.9C141.9,254.9,141.9,254.9,141.9,254.9z"/>
				</g>
				<path class="st5" d="M175.9,342.1l-0.3,0C174.8,343.5,175.9,342.1,175.9,342.1z"/>
			</g>
			<path class="st5" d="M175.6,342.1l0.3,0C175.9,342.1,174.8,343.5,175.6,342.1z"/>
			<polygon class="st2" points="156.8,244.5 141.8,247 141.4,252.8 145.4,264.4 163.3,269.9 163.5,243.9 			"/>
		</g>
		<polygon class="st8" points="185.5,360.1 128.5,362 127,343.3 186.2,340.1 		"/>
		<polygon class="st9" points="185.5,360.1 128.5,362 136.8,348 186.2,340.1 		"/>
		<polygon class="st10" points="195.5,493.7 192.3,355 120.8,358.5 124.1,493.7 		"/>
		<polygon class="st2" points="160.7,356.6 165.9,493.7 195.5,493.7 192.3,355 		"/>
	</g>
	<g>
		<path class="st12" d="M41.3,39.1h46.4v14.2H60.9v21.2h25.9v14.3H60.9v35.5H41.3V39.1z"/>
		<path class="st12" d="M123.3,39.1h22.6l26.5,85.2h-20.3l-4.9-19h-27.4l-5.2,19h-19L123.3,39.1z M134.3,55.9l-10.2,34.7h19.3
			L134.3,55.9z"/>
		<path class="st12" d="M239.6,121.4l15.2,19.7h-20.6l-10.8-15.2c-12.2,0-21.5-3.8-28-11.4c-6.5-7.6-9.7-18.5-9.7-32.8
			c0-13.9,3.2-24.7,9.5-32.5s15.2-11.6,26.6-11.6c11.4,0,20.2,3.9,26.6,11.6c6.4,7.8,9.5,18.6,9.5,32.4c0,9.8-1.5,18.1-4.6,24.7
			C250.3,113.1,245.7,118.1,239.6,121.4z M221.8,52c-4.9,0-8.7,2.6-11.4,7.7c-2.7,5.2-4,12.5-4,22c0,9.5,1.3,16.8,4,21.9
			c2.7,5.1,6.4,7.7,11.4,7.7s8.7-2.6,11.4-7.7c2.7-5.1,4-12.4,4-21.9c0-9.5-1.3-16.8-4-22C230.5,54.6,226.7,52,221.8,52z"/>
	</g>
</g>
</svg>
