<?xml version="1.0" encoding="utf-8"?>
<!-- Generator: Adobe Illustrator 19.2.0, SVG Export Plug-In . SVG Version: 6.00 Build 0)  -->
<svg version="1.1" id="Capa_1" xmlns="http://www.w3.org/2000/svg" xmlns:xlink="http://www.w3.org/1999/xlink" x="0px" y="0px"
	 viewBox="0 0 100 100" style="enable-background:new 0 0 100 100;" xml:space="preserve">
<style type="text/css">
	.st0{fill:#D7B7B1;}
</style>
<g>
	<path class="st0" d="M50.4,1.6c13.8,0,27.6,0,41.4,0c1.5,0,2.9,0,4.4,0.1c2.4,0.1,3.8,1.8,3.8,4.8c0,6.3,0,12.6,0,18.9
		c0,9.8,0,19.6,0,29.4c0,4.1-1.3,5.4-5.4,5.4c-29.7,0-59.5,0-89.2,0C1.2,60.2,0,59,0,54.8C0,39,0,23.3,0,7.5c0-5,1-6,5.9-6
		C20.7,1.6,35.6,1.6,50.4,1.6z M50,52.1c11.8,0,21.3-9.5,21.3-21.2c0-11.7-9.6-21.3-21.3-21.2c-11.8,0-21.3,9.5-21.3,21.3
		C28.7,42.6,38.2,52.1,50,52.1z"/>
	<path class="st0" d="M92.3,89.9l0,8.5l-86.2,0v-8.5c0,0,6.4-1.8,8.6-5c3.4-5.2,11.2-4.9,14.2,0.8c2.1,4,4.7,4.7,8.6,4.4
		c1.9-0.1,2.9-0.7,3.7-2.4c2.8-5.7,5.6-7.4,11.6-5.8c2.2,0.6,4.2,3.1,5.4,5.3c1.3,2.2,2.5,3.3,5,2.9c1.1-0.2,2.3,0.2,3.3-0.1
		c1-0.3,1.9-0.9,2.7-1.6c0.5-0.5,0.8-1.2,1.1-1.9c2.7-6.7,13.5-6.7,16.1,0C87.4,89.1,92.3,89.9,92.3,89.9z"/>
	<path class="st0" d="M78.3,79.3c-3.9,0-7.2-3.3-7.2-7.1c0-4,3.3-7.4,7.3-7.3c4,0,7.3,3.4,7.2,7.4C85.5,76,82.2,79.3,78.3,79.3z"/>
	<path class="st0" d="M28.8,71.9c0,4.1-3.3,7.4-7.2,7.4c-3.9,0-7.1-3.2-7.2-7.2c-0.1-4.1,3.2-7.3,7.2-7.3
		C25.5,64.8,28.7,68,28.8,71.9z"/>
	<path class="st0" d="M57.2,72.1c0,4-3.4,7.3-7.4,7.2c-3.9-0.1-7-3.3-7-7.3c0-4.1,3.3-7.3,7.4-7.2C54.1,64.9,57.2,68.1,57.2,72.1z"
		/>
	<path class="st0" d="M65,31c-0.1,8.4-6.9,15-15.3,14.9c-8.2-0.1-14.9-7-14.8-15.2c0.1-8.2,7-15,15.1-14.9
		C58.3,15.8,65.1,22.7,65,31z M59.9,30.9c-5.2-3.1-9.7-5.8-14.7-8.7c0,6.1,0,11.5,0,17.4C50.3,36.6,54.8,33.9,59.9,30.9z"/>
</g>
</svg>
