<?xml version="1.0" encoding="utf-8"?>
<!-- Generator: Adobe Illustrator 19.2.0, SVG Export Plug-In . SVG Version: 6.00 Build 0)  -->
<svg version="1.1" id="Capa_1" xmlns="http://www.w3.org/2000/svg" xmlns:xlink="http://www.w3.org/1999/xlink" x="0px" y="0px"
	 viewBox="0 0 100 100" style="enable-background:new 0 0 100 100;" xml:space="preserve">
<style type="text/css">
	.st0{fill:#D7B7B1;}
</style>
<g>
	<path class="st0" d="M56.9,43.3l2.6-13.9H35.7l2.7,13.9c1.1-0.5,2.3-0.8,3.6-0.9c-0.8-1.1-1.2-2.5-1.2-4c0-4,3.3-7.3,7.3-7.3
		c4,0,7.3,3.3,7.3,7.3c0,1.5-0.5,2.9-1.2,4C55,42.6,55.9,42.9,56.9,43.3z M32.1,23.7h31.1v4.6H32.1V23.7z M47.9,0
		c2.6,0,4.8,2.1,4.8,4.8s-2.1,4.8-4.8,4.8c-2.6,0-4.8-2.1-4.8-4.8S45.3,0,47.9,0z M36.3,22.8h4v-5.7h1.3l0,5.7h12V17l1.3,0v5.8h4
		v-6.6c-0.4-5.2-6.5-5.1-6.5-5.1h-3.2l-1.3,2.1l-1.3-2.1h-3.7c-6.8,0.1-6.6,5.1-6.6,5.1L36.3,22.8z M21.6,33.2c3,0,5.4,2.4,5.4,5.4
		c0,3-2.4,5.4-5.4,5.4s-5.4-2.4-5.4-5.4C16.2,35.6,18.6,33.2,21.6,33.2z M48,33.2c3,0,5.4,2.4,5.4,5.4c0,3-2.4,5.4-5.4,5.4
		s-5.4-2.4-5.4-5.4C42.6,35.6,45,33.2,48,33.2z M74.4,43.3c3,0,5.4-2.4,5.4-5.4c0-3-2.4-5.4-5.4-5.4c-3,0-5.4,2.4-5.4,5.4
		C69,40.9,71.4,43.3,74.4,43.3z M39.4,56.7h1.4h13.7H56h4.6v-5.1c-0.5-5.9-7.4-5.8-7.4-5.8H42.3c-7.8,0.1-7.5,5.8-7.5,5.8v5.1H39.4z
		 M8.4,56.7H13h1.4h13.7h1.5h4.6v-5.1c-0.5-5.9-7.4-5.8-7.4-5.8H15.9c-7.8,0.1-7.5,5.8-7.5,5.8L8.4,56.7L8.4,56.7z M95.4,68V59h-8.4
		h-4.6h-1.5H67.2h-1.4h-4.6h-0.7H56h-1.5H40.8h-1.4h-4.6h-0.7h-4.6h-1.5H14.4H13H8.4H0V68h9.9V95H6v5h82.8v-5h-3.3V68
		C85.5,68,95.4,68,95.4,68z M61.2,50.9v5.8h4.6h1.4h13.7h1.5h4.6v-5.8C86.5,45,79.6,45,79.6,45H68.7C61,45.2,61.2,50.9,61.2,50.9z"
		/>
</g>
</svg>
