<?xml version="1.0" encoding="utf-8"?>
<!-- Generator: Adobe Illustrator 19.2.0, SVG Export Plug-In . SVG Version: 6.00 Build 0)  -->
<svg version="1.1" id="Capa_1" xmlns="http://www.w3.org/2000/svg" xmlns:xlink="http://www.w3.org/1999/xlink" x="0px" y="0px"
	 viewBox="0 0 100 100" style="enable-background:new 0 0 100 100;" xml:space="preserve">
<style type="text/css">
	.st0{fill:#D7B7B1;}
</style>
<g>
	<path class="st0" d="M59,12c-8.1,4.2-16.3,8.3-24.5,12.5c0-0.3,0-0.4,0-0.6c0-6,0-12.1,0-18.1c0-1.5,0.5-2.8,1.5-4
		C37.2,0.5,38.6,0,40.2,0c6.5,0,13,0,19.5,0c3.5,0,6.9,0,10.4,0c0.4,0,0.8,0.1,1.2,0.1c1,0.1,1.8,0.5,2.5,1.2c1.3,1.1,2,2.5,2,4.2
		c0,5.1,0,10.3,0,15.4c0,4.9,0,9.9,0,14.8c0,1.2-0.3,2.3-1,3.2c-1.1,1.5-2.7,2.4-4.6,2.4c-4.6,0-9.2,0-13.7,0c-5.2,0-10.4,0-15.6,0
		c-0.7,0-1.4,0-2-0.2c-1.2-0.2-2.1-0.8-2.9-1.7c-0.7-0.9-1.2-1.8-1.4-2.9c0-0.3-0.1-0.6-0.1-0.9c0-2.6,0-5.2,0-7.8
		c0-0.3,0.1-0.5,0.3-0.7c1.1-0.7,2.2-1.4,3.3-2.1c1.5-0.9,3.1-1.9,4.6-2.8c1.4-0.8,2.7-1.7,4-2.6c1.1-0.7,2.2-1.3,3.3-2
		c0.7-0.5,1.4-1,2.2-1.4c1.1-0.7,2.2-1.3,3.2-2c0.7-0.4,1.3-0.9,2-1.3c0.5-0.3,1.1-0.6,1.6-0.9C59.1,12,59,12,59,12z"/>
	<path class="st0" d="M14.6,34.9c0,6.8,0,13.6,0,20.4c-4.8,0-9.7,0-14.5,0c0-0.2,0-0.3,0-0.5c0-6.2,0-12.3,0-18.5
		c0-1.7,0.6-3.1,1.8-4.2c1.5-1.5,3.4-2.1,5.5-2.1c3.8,0,7.5,0,11.3,0c0.4,0,0.9,0,1.3,0c0.7,0.1,1.3-0.1,1.9-0.4
		c2-1,3.9-1.9,5.9-2.8c0.7-0.3,1.4-0.6,2.1-0.9c0.9-0.4,1.8-0.2,2.5,0.4c0.8,0.6,0.8,1.4,0.7,2.3c-0.2,0.8-0.6,1.3-1.5,1.6
		c-0.8,0.3-1.6,0.8-2.4,1.1c-2.2,1-4.4,2-6.6,3.1c-0.9,0.4-1.7,0.6-2.7,0.6c-1.6,0-3.1,0-4.7,0C14.9,34.9,14.7,34.9,14.6,34.9z"/>
	<path class="st0" d="M30.1,97.9c0.7,0,1.4,0,2.1,0c0.4,0,0.5-0.1,0.5-0.5c0.1-1.7,0.2-3.5,0.4-5.2c0.2-1.8,1.2-3.1,2.9-3.9
		c1.2-0.6,2.4-0.8,3.7-0.8c2.2,0,4.4,0,6.6,0c1.3,0,2.5,0.3,3.5,1c1.3,0.9,2.3,2,2.3,3.8c0.1,1.8,0.3,3.6,0.4,5.5c0.8,0,1.7,0,2.5,0
		c0,0.7,0,1.4,0,2.1c-0.2,0-0.3,0-0.5,0c-7,0-14,0-21,0c-1,0-2.1,0-3.1,0c-0.4,0-0.5-0.2-0.5-0.5C30.1,98.9,30.1,98.4,30.1,97.9z
		 M36.1,97.8c0.5,0,0.9,0,1.4,0c-0.2-1.4-0.3-2.7-0.5-4c-0.1,0-0.2,0-0.2,0C36.6,95.1,36.4,96.4,36.1,97.8z M48.7,93.9
		c-0.1,0-0.1,0-0.2,0c-0.1,1.3-0.3,2.6-0.4,4c0.5,0,0.9,0,1.4,0C49.2,96.5,48.9,95.2,48.7,93.9z"/>
	<path class="st0" d="M81.8,97.8c0,0.7,0,1.4,0,2.1c-8.3,0-16.6,0-25,0c0-0.7,0-1.4,0-2.1c0.8,0,1.6,0,2.4,0
		c0.1-0.8,0.1-1.6,0.2-2.4c0.1-1.2,0.1-2.4,0.3-3.5c0.4-2.3,1.9-3.6,4.1-4.2c0.6-0.2,1.2-0.3,1.9-0.3c2.4,0,4.8,0,7.3,0
		c1.3,0,2.5,0.4,3.5,1c1.2,0.8,2.2,1.9,2.3,3.5c0.1,1.8,0.3,3.6,0.4,5.3c0,0.4,0.1,0.5,0.5,0.4C80.4,97.8,81.1,97.8,81.8,97.8z
		 M64.2,97.8c-0.2-1.4-0.3-2.7-0.5-4.1c-0.1,0-0.2,0-0.2,0c-0.3,1.3-0.5,2.7-0.8,4.1C63.3,97.8,63.7,97.8,64.2,97.8z M74.7,97.8
		c0.5,0,0.9,0,1.4,0c-0.3-1.4-0.5-2.7-0.8-4c-0.1,0-0.1,0-0.2,0C75,95.1,74.9,96.5,74.7,97.8z"/>
	<path class="st0" d="M43.6,74.6c0-0.7,0-1.4,0-2.1c0.8,0,1.7,0,2.5,0c0.1-1,0.2-2,0.3-3c0.1-1.1,0.2-2.1,0.3-3.2
		c0.1-1.1,0.8-2,1.7-2.7c0.9-0.8,2-1.3,3.2-1.5c0.3,0,0.6-0.1,0.9-0.1c2.4,0,4.8,0,7.2,0c1.3,0,2.5,0.4,3.6,1.1
		c1.6,1,2.4,2.5,2.5,4.4c0.1,1.6,0.3,3.2,0.4,4.8c0.8,0,1.6,0,2.4,0c0,0.7,0,1.4,0,2.1C60.3,74.6,52,74.6,43.6,74.6z M62.9,72.5
		c-0.3-1.4-0.2-2.7-0.7-4c-0.1,0-0.1,0-0.2,0c-0.2,1.3-0.3,2.6-0.5,4C62,72.5,62.4,72.5,62.9,72.5z M51,72.5c-0.2-1.3-0.3-2.6-0.5-4
		c-0.1,0-0.1,0-0.2,0c-0.2,1.3-0.5,2.6-0.7,3.9C50.1,72.5,50.5,72.5,51,72.5z"/>
	<path class="st0" d="M70.3,74.6c0-0.7,0-1.4,0-2.1c0.8,0,1.7,0,2.5,0c0.1-0.9,0.2-1.8,0.2-2.6c0.1-1,0.1-2.1,0.2-3.1
		c0.1-1.4,0.8-2.3,1.8-3.2c1.2-1,2.7-1.5,4.3-1.5c2.2,0,4.5,0.1,6.7,0c1.8,0,3.3,0.5,4.6,1.6c0.9,0.8,1.6,1.8,1.7,3.1
		c0.1,1.8,0.2,3.5,0.4,5.3c0,0.1,0,0.2,0,0.4c0.8,0,1.7,0,2.5,0c0,0.7,0,1.4,0,2.1C87,74.6,78.7,74.6,70.3,74.6z M89.5,72.5
		c0-1.3-0.4-3.6-0.8-4c-0.2,1.4-0.3,2.7-0.4,4C88.7,72.5,89.1,72.5,89.5,72.5z M77.2,68.5c-0.1,0-0.2,0-0.2,0
		c-0.2,1.3-0.4,2.6-0.7,4c0.5,0,0.9,0,1.3,0C77.5,71.2,77.4,69.8,77.2,68.5z"/>
	<path class="st0" d="M16.7,74.6c0-0.7,0-1.4,0-2.1c0.8,0,1.6,0,2.4,0c0.1-0.9,0.2-1.8,0.2-2.7c0.1-1,0.2-2.1,0.3-3.1
		c0.1-1.1,0.6-2.1,1.5-2.9c1.2-1.1,2.6-1.7,4.3-1.7c2.6,0,5.2,0,7.7,0c1.3,0,2.5,0.6,3.5,1.3c1.1,0.8,1.7,1.9,1.9,3.1
		c0.2,1.1,0.2,2.2,0.3,3.3c0.1,0.9,0.1,1.7,0.2,2.6c0.8,0,1.6,0,2.4,0c0,0.7,0,1.4,0,2.1C33.3,74.6,25,74.6,16.7,74.6z M34.5,72.5
		c0.5,0,1,0,1.4,0c0-1-0.6-3.6-0.9-4.1C34.8,69.9,34.6,71.2,34.5,72.5z M23.7,68.6c-0.1,0-0.2,0-0.3,0c-0.3,1.3-0.5,2.6-0.8,4
		c0.5,0,0.9,0,1.4,0C23.9,71.2,23.8,69.9,23.7,68.6z"/>
	<path class="st0" d="M7.7,28.4c-3.6,0.3-7.1-3.4-7-7.1c0.1-3.7,3.4-6.9,7-6.9c3.9,0,7,3.2,7,7.1C14.8,25.1,11.6,28.7,7.7,28.4z"/>
	<path class="st0" d="M34.1,56.7c0,2.6-2.3,4.9-5,4.9c-2.7,0-5-2.3-5-5c0-2.7,2.3-5,5-5C31.8,51.7,34.1,54,34.1,56.7z"/>
	<path class="st0" d="M56.2,51.7c2.4,0,4.9,2.1,4.9,5.1c0,2.8-2.6,4.9-5,4.9c-2.7-0.1-4.9-2.3-4.8-5C51.3,53.8,53.5,51.7,56.2,51.7z
		"/>
	<path class="st0" d="M87.7,56.7c0.1,2.9-2.4,5-4.9,5c-2.6,0-4.9-2.1-4.9-4.9c0-2.9,2.2-5,4.9-5C85.4,51.7,87.7,53.8,87.7,56.7z"/>
	<path class="st0" d="M64.4,82c-0.2-2.7,2.2-5,4.9-4.9c2.8,0,4.9,2.1,4.9,4.9c0,2.4-1.9,4.9-4.9,4.9C66.5,87,64.2,84.5,64.4,82z"/>
	<path class="st0" d="M42.6,86.9c-2.7,0.1-4.9-2.2-4.9-5c0.1-2.9,2.3-4.9,4.9-4.8c2.9,0,4.9,2.1,4.9,5C47.6,84.5,45.6,87,42.6,86.9z
		"/>
</g>
</svg>
