<?xml version="1.0" encoding="utf-8"?>
<!-- Generator: Adobe Illustrator 19.2.0, SVG Export Plug-In . SVG Version: 6.00 Build 0)  -->
<svg version="1.1" id="Capa_1" xmlns="http://www.w3.org/2000/svg" xmlns:xlink="http://www.w3.org/1999/xlink" x="0px" y="0px"
	 viewBox="0 0 100 100" style="enable-background:new 0 0 100 100;" xml:space="preserve">
<style type="text/css">
	.st0{fill:#D7B7B1;}
</style>
<g>
	<path class="st0" d="M50.1,65.3c-4.1,0-8.1,0-12.2,0c-1.2,0-1.5-0.4-1.2-1.5c0.6-2.3,2.6-2.7,4.4-3.1c1.2-0.3,1.5-0.8,1.4-1.9
		c-0.3-4.2-0.3-4.2-4.4-3.8c-6.8,0.7-13.6,1.5-20.4,2.3c-0.7,0.1-1.1,0-1.3-0.9c-0.7-3.8-1-7.6-1.4-11.5c-0.4-4.5-0.9-9.1-1.3-13.6
		c-0.3-3.5-0.5-6.9-0.8-10.4c-0.1-1.7-0.2-3.3-0.4-5c-0.1-1.1,0.3-1.7,1.4-1.7c0.8,0,1.2-0.4,1.6-1c0.6-1,1.4-1.7,2.6-2
		c6.5-1.8,13-3.6,19.8-3.2c4.2,0.2,8.3,1.1,11.4,4.5c0.3,0.4,0.6,0.6,1.1,0.1c4.4-4.6,10.1-4.9,15.9-4.5c5.5,0.4,10.8,1.7,16,3.3
		c0.8,0.2,1.3,0.6,1.7,1.3c0.5,0.9,1.1,1.7,2.4,1.6c1-0.1,1.3,0.7,1.2,1.7c-0.8,6.5-1.2,13.1-1.8,19.6c-0.6,6.7-1.4,13.4-2.1,20.1
		c-0.1,1.2-0.5,1.6-1.9,1.4c-4.8-0.6-9.6-1.3-14.4-1.6c-2.8-0.2-5.6-0.6-8.4-0.9c-1-0.1-1.4,0-1.3,1.1c0,1.4-0.6,2.9-0.1,4.1
		c0.5,1.2,2.4,0.8,3.5,1.4c0.7,0.4,1.4,0.8,1.8,1.5c1,1.8,0.6,2.5-1.4,2.5C57.7,65.3,53.9,65.3,50.1,65.3z M79.3,52.9
		c0.6-2.3,0.5-4.5,0.7-6.7c0.4-3.7,0.6-7.5,0.8-11.2c0.5-6.2,1.1-12.3,1.3-18.5c0-1-0.2-1.5-1.3-1.9C75,12.8,69,11.4,62.8,11.4
		c-4.4,0-8.5,0.8-11.5,4.4c-0.8,1-1.6,0.8-2.4-0.1c-2.2-2.3-5-3.8-8.2-4.1c-7.4-0.8-14.7,0.6-21.7,2.9c-0.9,0.3-1.2,0.8-1.1,1.6
		c0.2,2.2,0.3,4.5,0.4,6.7c0.4,5.9,0.9,11.7,1.3,17.6c0.3,3.7,0.7,7.3,0.9,11c0.1,1.5,0.7,1.2,1.7,1c6.7-1.9,13.5-3.9,20.6-3.4
		c2.7,0.2,5.4,0.5,7.2,3.1c0.9-1.6,2.5-2.2,4.1-2.6c3-0.8,6.1-0.7,9.1-0.3C68.7,49.9,73.9,51.4,79.3,52.9z"/>
	<path class="st0" d="M34.8,91.8c-10.6,0-21.3,0-31.9,0c-0.5,0-0.9,0-1.4,0c-1.4-0.1-1.8-0.7-1.2-2.1c1.2-2.8,2.4-5.6,3.6-8.4
		C5,78.5,6.2,75.8,7.4,73c0.5-1.2,1.3-1.7,2.6-1.7c18.4,0,36.7,0,55.1,0c1.6,0,2.2,0.7,2.4,2.1c0.8,5.1,1.6,10.2,2.4,15.3
		c0.4,2.6,0,3.1-2.8,3.1C56.3,91.8,45.6,91.8,34.8,91.8C34.8,91.8,34.8,91.8,34.8,91.8z M56.6,79C56.6,79,56.6,79,56.6,79
		c2.1,0,4.3,0,6.4,0c0.5,0,1.4,0.2,1.2-0.7c-0.1-0.7,0-1.7-1.3-1.7c-4.3,0-8.6,0-12.8,0c-0.9,0-1.1,0.6-1.1,1.4
		c0,0.9,0.4,1.1,1.1,1.1C52.3,79,54.5,79,56.6,79z M31.1,86.9C31.1,86.9,31.1,86.9,31.1,86.9c1.4,0,2.9,0.1,4.3,0
		c1.2,0,1.5-0.7,1.5-1.8c0-1.2-0.8-1-1.5-1c-0.8,0-1.6,0-2.4,0c-1.8,0-3.7,0.1-5.5,0c-1.6-0.1-1.8,1.1-1.9,2.1
		c-0.1,1.1,1.1,0.7,1.7,0.8C28.6,86.9,29.8,86.9,31.1,86.9z M58.6,82.8c1.6,0,3.1,0,4.7,0c0.6,0,1.5,0.2,1.4-0.8
		c-0.1-0.8-0.1-2-1.5-1.9c-3.1,0-6.2,0-9.3,0.1c-0.9,0-1.3,0.4-1.3,1.4c0,1,0.5,1.3,1.4,1.3C55.5,82.8,57.1,82.8,58.6,82.8z
		 M10.7,86.9C10.7,86.9,10.7,86.9,10.7,86.9c1.3,0,2.7,0,4,0c1.2,0,1.4-1,1.7-1.9c0.1-0.4,0-0.8-0.5-0.8c-2.9,0-5.8-0.1-8.6,0
		c-1.1,0-1.4,1.3-1.4,2.1c0,0.9,1,0.6,1.6,0.6C8.5,86.9,9.6,86.9,10.7,86.9z M12,82.8c1.3,0,2.7,0.1,4,0c1.1-0.1,1.5-1,1.5-2
		c0-1-0.9-0.6-1.5-0.6c-1.2-0.1-2.4-0.1-3.6-0.1c-1.2,0-2.3,0.1-3.5,0.2c-1.2,0.1-1.6,1-1.5,1.9c0.1,1,1,0.5,1.5,0.5
		C9.9,82.9,11,82.8,12,82.8z M11.7,79C11.7,79,11.7,79,11.7,79c0.8,0,1.6,0,2.4,0c1.1-0.1,0.8-1.1,1.1-1.7c0.2-0.4-0.2-0.7-0.5-0.7
		c-1.5,0-3-0.1-4.5,0c-0.9,0.1-1.5,1-1.4,1.9c0.1,0.8,1.1,0.3,1.6,0.4C10.9,79.1,11.3,79,11.7,79z M41.3,86.9
		c1.4,0.2,2.4,0.1,2.4-1.7c0-1.2-0.7-1.3-1.6-1.2c-1.2,0.2-3-0.9-3.1,1.5C38.9,87.5,40.4,86.7,41.3,86.9z M20.4,86.8
		c1.9,0.2,3.2,0.1,2.9-1.8c-0.2-1.8-1.8-0.8-2.7-1c-1.4-0.2-2.1,0.7-2,1.9C18.6,87.6,20.1,86.6,20.4,86.8z M21.5,82.8
		c0.5,0,0.8,0,1.2,0c1.2,0.1,1.6-0.8,1.7-1.7c0.1-1.3-1-1-1.7-1c-0.3,0-0.6,0-0.9,0c-1.6-0.2-2.2,0.9-2.1,2
		C19.7,83.4,21,82.5,21.5,82.8z M48.2,82.8c0.3,0,0.5,0,0.7,0c1,0.1,1.7,0,1.6-1.3c0-1.2-0.6-1.5-1.6-1.4c-0.6,0.1-1.3,0-1.9,0.1
		c-1,0.2-1.5,1.7-0.8,2.3C46.8,83.1,47.5,82.7,48.2,82.8z M28.1,82.8c1.7,0.3,2.9,0.1,2.9-1.7c0-1-0.8-1-1.5-1c-2.5,0-3.4,0.5-3.3,2
		C26.4,83.5,27.6,82.5,28.1,82.8z M34.8,82.8c1.3,0,2.6,0.4,2.6-1.6c0-1.2-0.7-1.1-1.4-1.1c-2.6,0-3.3,0.4-3.2,1.8
		C32.9,83.5,34.2,82.5,34.8,82.8z M41.5,82.9c1.1-0.1,2.5,0.5,2.4-1.5c0-1-0.5-1.4-1.4-1.2c-1.2,0.2-3-0.7-3.1,1.6
		C39.3,83.5,40.8,82.6,41.5,82.9z M25.5,79c0.4,0,0.6,0,0.8,0c1.3,0.2,1.9-0.6,1.9-1.6c0-1.1-1-0.7-1.7-0.8c-0.2,0-0.5,0-0.7,0
		c-1.3-0.2-2.2,0.4-2.1,1.8C23.7,79.8,25,78.6,25.5,79z M31.9,79c1.2,0,2.5,0.3,2.5-1.3c0.1-1.5-1.1-1-1.8-1.1
		c-1.2-0.1-2.6-0.3-2.6,1.6C30,79.9,31.4,78.6,31.9,79z M38.2,79.1c1.1-0.2,2.5,0.5,2.5-1.3c0-1.7-1.3-1.1-2.1-1.2
		c-1.1-0.1-2.3-0.1-2.3,1.5C36.2,79.8,37.6,78.7,38.2,79.1z M19.2,79c0.3,0,0.7,0,1,0c1,0,1.4-0.5,1.4-1.5c0.1-1.2-0.7-0.9-1.4-1
		c-0.4,0-0.8,0-1.2,0c-1.2,0-1.9,0.7-1.9,1.8c0,1.3,1.1,0.5,1.7,0.7C19,79.1,19.1,79,19.2,79z M44.8,79.1c0.8-0.4,2.3,0.7,2.2-1.3
		c0-1.7-1.3-1.1-2.1-1.2c-1.2-0.1-2.3,0-2.3,1.6C42.8,79.8,44.1,78.7,44.8,79.1z M61.8,75.8c2.2,0,2.6-0.4,1.9-1.7
		c-0.4-0.8-3.6-1-4-0.2c-0.5,0.8-0.3,1.6,0.7,1.9C60.9,75.9,61.3,75.8,61.8,75.8z M31.3,73.5c-0.3,0-0.6,0-0.8,0
		c-1.2-0.2-1.8,0.6-1.8,1.6c0,1.1,1,0.7,1.7,0.8c0.2,0,0.5,0,0.7,0c0.9-0.1,2,0,2-1.3C33.1,72.9,31.9,73.7,31.3,73.5z M48.1,89.9
		c0.8-0.5,2.5,0.8,2.4-1.2c-0.1-1.8-1.6-0.8-2.4-0.9c-0.9-0.1-2.4-0.7-2.4,1C45.7,90.6,47.3,89.4,48.1,89.9z M12.9,73.5
		c-1.4-0.1-2.6,0-2.7,1.5c-0.1,1.2,0.9,0.7,1.5,0.8c1.3,0.1,2.8,0.2,2.9-1.6C14.7,72.8,13.4,73.8,12.9,73.5z M43.3,73.4
		c-0.9,0.2-2.3-0.5-2.2,1.3c0.1,1.7,1.4,1,2.2,1c0.8,0.1,1.9,0.3,2-1.2C45.3,72.9,44.1,73.6,43.3,73.4z M24.4,75.8
		c1.1-0.1,2.5,0.3,2.4-1.5c-0.1-1.8-1.5-0.7-2.2-0.9c-1.3-0.3-2.1,0.4-2,1.6C22.6,76.4,23.8,75.5,24.4,75.8z M55.4,73.5
		c-0.5,0.2-1.6-0.5-1.8,0.7c-0.1,0.6-0.2,1.6,0.8,1.6c1.1,0,2.6,0.8,3.4-0.7c0.3-0.6-0.1-1.4-1-1.5C56.3,73.4,55.9,73.5,55.4,73.5z
		 M49.4,75.8c0.7-0.2,2,0.4,2.1-1.1c0.1-1.2-0.7-1.4-1.5-1.2c-0.9,0.2-2.5-0.9-2.6,1.1C47.2,76.2,48.4,75.7,49.4,75.8z M55,89.8
		c0.3,0,0.7,0,1,0c0.7,0,1.4,0.2,1.4-0.9c0-1.1-0.6-1.2-1.4-1.2c-0.7,0-1.5,0.1-2.2,0c-0.8,0-1.1,0.3-1,1c0,0.6,0.2,1.2,1,1.1
		C54.2,89.8,54.6,89.8,55,89.8z M62.2,89.8C62.2,89.8,62.2,89.8,62.2,89.8c0.5,0,0.9,0,1.4,0c1.3,0,1.3-0.7,0.8-1.6
		c-0.3-0.6-4.1-0.8-4.5-0.2c-0.4,0.7,0.1,1.7,0.9,1.8C61.3,89.8,61.8,89.8,62.2,89.8z M37.3,73.5c-1.2-0.1-2.4-0.1-2.4,1.4
		c0,1.3,1.1,0.9,1.8,0.9c1,0,2.4,0.5,2.4-1.4C39,72.9,37.8,73.7,37.3,73.5z M19.1,73.5c-1.4-0.1-2.6-0.2-2.7,1.5
		c-0.1,1.2,0.8,0.8,1.4,0.9c1.3,0,2.9,0.2,2.9-1.7C20.7,72.9,19.6,73.7,19.1,73.5z M54.9,86c0.4,0,0.7,0,1,0
		c0.6-0.1,1.5,0.2,1.5-0.9c0-0.9-0.7-1.1-1.4-1.1c-0.3,0-0.6-0.1-0.9,0c-0.9,0.2-2.4-0.6-2.4,1.1C52.7,86.6,54.2,85.8,54.9,86z"/>
	<path class="st0" d="M84,71.4c3.1-0.1,6.2-0.2,9,1.6c1.2,0.8,2,1.7,2.6,2.9c1.3,3,2.6,6,3.9,9c1.2,2.8,0.3,5.2-2.7,6
		c-5.5,1.5-11,1.4-16.1-1.5c-1.7-1-2.9-2.4-3.3-4.6c-0.4-2.6-1.2-5.2-1.9-7.8c-0.9-3.6,0.4-5.5,4.3-5.6C81.3,71.3,82.7,71.4,84,71.4
		z M96.2,79.7c-1.5,0-2.7,0-4,0c-1.2,0-2.4,0-3.6,0c-1,0-1.4-0.3-1.2-1.3c0.8-2.8-0.4-5.3-2.9-6.5c-0.4-0.2-0.7-0.1-1,0.3
		c-1.3,1.7-0.8,4.2,1.4,5.8c0.5,0.4,1.1,0.8,0.9,1.4c-0.2,0.5-0.9,0.2-1.4,0.2c-2.2,0-4.5,0-7.2,0C79.6,81.2,94.4,81.1,96.2,79.7z"
		/>
	<path class="st0" d="M47.8,43.1c-3.5-2.8-7.5-2.5-11.5-2.1c-4.1,0.5-8,1.5-11.9,2.7c-0.9,0.3-1.2,0.1-1.4-0.8
		c-0.4-2.8-0.3-3.1,2.5-3.9c5.5-1.6,11-2.9,16.8-2.4c0.9,0.1,1.8,0.2,2.7,0.6C48,38.2,48.5,39.4,47.8,43.1z"/>
	<path class="st0" d="M47.9,31.1c0,0.6,0.1,0.9,0.1,1.3c0,0.7-0.2,1.1-0.9,0.5c-3.4-2.7-7.4-2.1-11.3-1.7c-4.2,0.4-8.2,1.5-12.3,2.7
		c-0.8,0.2-1.2,0.1-1.2-0.8c0-0.1,0-0.2,0-0.3c-0.2-2.6-0.2-2.6,2.3-3.3c5.4-1.5,10.9-2.9,16.6-2.6c2,0.1,3.7,0.7,5.4,1.6
		C47.9,29.1,48.1,30.1,47.9,31.1z"/>
	<path class="st0" d="M52.3,43c-0.4-1.3,0-2.6-0.1-3.7c0-0.7,0.6-0.9,1.1-1.2c2.9-1.9,6.2-1.6,9.4-1.3c4.4,0.4,8.7,1.5,13,2.6
		c1.3,0.4,1.6,0.8,1.4,2.1c-0.5,2.5-0.4,2.5-2.9,1.8c-4.9-1.3-9.9-2.6-15-2.5C56.6,40.8,54.4,41.5,52.3,43z"/>
	<path class="st0" d="M52.3,33.3c-0.4-4.5,0.6-5.4,4.7-6.1c4.1-0.7,8,0.1,12,0.9c2.5,0.5,5,1.2,7.5,1.7c1.1,0.2,1.4,0.6,1.2,1.8
		c-0.4,2.4-0.3,2.5-2.7,1.9c-3.6-0.9-7.2-1.9-11-2.3C60.1,30.8,56,30.4,52.3,33.3z"/>
	<path class="st0" d="M52.3,23.8c-0.2-4.1,1.2-5.6,5.4-6c5-0.6,9.7,0.4,14.5,1.5c1.7,0.4,3.4,0.9,5.2,1.3c0.5,0.1,1,0.3,0.9,1
		c-0.1,1,0.3,2.1-0.4,3c-0.4,0.4-1-0.1-1.4-0.2c-5.5-1.5-11-3-16.8-2.8C56.5,21.7,56.4,21.7,52.3,23.8z"/>
	<path class="st0" d="M47.5,24c-3.7-3.2-8.2-2.5-12.4-2.1c-4.2,0.4-8.2,1.5-12.2,2.8c-0.7,0.2-0.9,0.1-1.1-0.6
		c-0.6-2.7-0.4-3,2.3-3.8c4.8-1.3,9.7-2.4,14.7-2.6c2-0.1,4,0.2,6,0.8C47.7,19.4,48.1,20.2,47.5,24z"/>
	<path class="st0" d="M86.6,76.1c0,0.3,0,0.5-0.4,0.6c-0.6,0.1-1.3,0.2-1.6-0.4c-0.4-0.7-0.6-1.5-0.8-2.2c-0.1-0.3,0.1-0.6,0.4-0.6
		c0.6,0,1.2-0.1,1.5,0.5C86.2,74.6,86.3,75.3,86.6,76.1z"/>
</g>
</svg>
