<?xml version="1.0" encoding="utf-8"?>
<!-- Generator: Adobe Illustrator 19.2.0, SVG Export Plug-In . SVG Version: 6.00 Build 0)  -->
<svg version="1.1" id="Capa_1" xmlns="http://www.w3.org/2000/svg" xmlns:xlink="http://www.w3.org/1999/xlink" x="0px" y="0px"
	 viewBox="0 0 100 100" style="enable-background:new 0 0 100 100;" xml:space="preserve">
<style type="text/css">
	.st0{fill:#D7B7B1;}
</style>
<g>
	<g>
		<path class="st0" d="M70.2,26.6H57V13.4c0-0.1-0.1-0.2-0.2-0.2c-7.5,0-13.6,6.1-13.6,13.5c0,1.2,0.2,2.3,0.5,3.4l7.8-6
			c0.6-0.5,1.5-0.4,2,0.2c0.5,0.6,0.4,1.5-0.2,2L44.8,33c2.3,4.3,6.8,7.3,12,7.3c7.5,0,13.6-6.1,13.6-13.5
			C70.4,26.7,70.3,26.6,70.2,26.6z"/>
		<path class="st0" d="M70.5,16c-0.1-0.1-0.3-0.2-0.5-0.2c-0.2,0-0.3,0.1-0.5,0.2l-7.7,8c-0.2,0.2-0.2,0.4-0.1,0.7
			c0.1,0.2,0.3,0.4,0.6,0.4h11.2c0,0,0,0,0,0c0.3,0,0.6-0.3,0.6-0.6c0,0,0-0.1,0-0.1C73.8,21.3,72.5,18.4,70.5,16z M63.8,23.9
			l6.2-6.5c1.5,1.9,2.5,4.1,2.8,6.5H63.8z"/>
		<path class="st0" d="M59.3,22.9c0.1,0,0.2,0,0.2,0c0.2,0,0.3-0.1,0.5-0.2l7.3-7.7c0.1-0.1,0.2-0.3,0.2-0.5c0-0.2-0.1-0.3-0.2-0.4
			c-2.2-1.7-4.9-2.7-7.7-3c-0.2,0-0.4,0-0.5,0.2c-0.1,0.1-0.2,0.3-0.2,0.5v10.6C58.9,22.6,59.1,22.9,59.3,22.9z M60.2,12.4
			c2.1,0.3,4,1.1,5.8,2.3l-5.8,6.1V12.4z"/>
		<path class="st0" d="M21.5,13.8c-3.6,0-6.5,2.9-6.5,6.4c0,3.6,2.9,6.4,6.5,6.4c3.6,0,6.5-2.9,6.5-6.4C28,16.7,25.1,13.8,21.5,13.8
			z"/>
		<path class="st0" d="M96.5,81l-4.5-4.2c-0.8,2.1-2.3,5.3-5.2,8.6c-2.5,2.8-5.7,5.3-9.5,7.4l4.8,4.4c4.4,4.1,11.2,3.7,15.2-0.8
			C101.2,91.9,100.9,85,96.5,81z"/>
		<path class="st0" d="M84.8,84c2.4-2.7,4.2-5.8,5.1-9L86,71.4c-4-3.7-8.1-2-12.3,1.5c0,0-0.1,0.1-0.2,0.2c0,0,0,0,0,0
			c-1.7-1.3-3.7-1.9-5.8-2.3c-1.8-0.4-4.3-0.8-5.4-2.4c-0.9-1.3,0-3,0.6-4.2c0.2-0.4,0.5-0.9,0.7-1.3l13.6,0c3.5,0,5.5-2.5,5.5-5.6
			V5.6c0-3.1-2.5-5.6-5.5-5.6H5.5C2.5,0,0,2.5,0,5.6v51.6c0,3.1,2.5,5.6,5.5,5.6H33c0,0,1.2,11.3-8.3,11.3v5.6H33h16.7H58v-5.6
			c-9.9,0-8.3-11.3-8.3-11.3l11.8,0c-1,1.9-1.9,3.9-1,6c0.8,1.9,3.4,2.8,5.2,3.2c2.3,0.6,4.6,0.9,6.6,2.3c-0.4,0.5-0.6,0.9-0.6,0.9
			c-2.9,4.5-4.7,8.1-0.8,11.7l4.5,4.2C77.7,90,81.5,87.7,84.8,84z M14.1,49.5h-1.7V35h1.7L14.1,49.5z M41.7,59.4
			c-1.9,0-3.4-1.5-3.4-3.4c0-1.9,1.5-3.4,3.4-3.4c1.9,0,3.4,1.5,3.4,3.4C45.1,57.9,43.6,59.4,41.7,59.4z M29.3,49.5l0-14.6H31v4.6
			c0,0,0,0,0,0c0,3.5,2.8,3,3.7,2.3c0.8-0.6,4.4-3,4.4-3l2.3-1.6c0,0,1.7-1.1,1.7-1.1c1.8-1.3,0.4-3.2,0.4-3.2l9.2-7.2
			c0.2-0.2,0.2-0.5,0.1-0.7c-0.2-0.2-0.5-0.2-0.7-0.1l-9.3,7.2l0,0c-0.4-0.3-0.7-0.5-1.2-0.5c-0.7,0-1.4,0.2-2.2,0.7l-0.3,0.3
			l-3,2.1v-0.9c-0.1-6.8-8.2-6.6-8.2-6.6h-3.3l-2.8,4.7l-2.8-4.7h-3.2c-8.1,0-8.2,5.8-8.2,8h0v14.3H5.9V6h70.9v43.5L29.3,49.5
			L29.3,49.5z M82.8,82.8c-0.3,0.4-0.8,0.6-1.3,0.5c-0.4,0-0.7-0.1-1-0.4L74,77.1c-0.7-0.6-0.7-1.6-0.1-2.2c0.6-0.7,1.6-0.7,2.2-0.1
			l6.6,5.8C83.3,81.1,83.4,82.1,82.8,82.8z"/>
	</g>
</g>
</svg>
