<?xml version="1.0" encoding="utf-8"?>
<!-- Generator: Adobe Illustrator 19.2.0, SVG Export Plug-In . SVG Version: 6.00 Build 0)  -->
<svg version="1.1" id="Layer_1" xmlns="http://www.w3.org/2000/svg" xmlns:xlink="http://www.w3.org/1999/xlink" x="0px" y="0px"
	 viewBox="0 0 865 668" style="enable-background:new 0 0 865 668;" xml:space="preserve">
<style type="text/css">
	.st0{fill:#F48260;}
	.st1{fill:#FFFFFF;}
	.st2{fill:#8E8B81;}
	.st3{fill:#ACDEE4;}
	.st4{fill:#304246;}
	.st5{fill:#FFD580;}
	.st6{fill:#B6945A;}
	.st7{fill:#527477;}
	.st8{fill:#246877;}
	.st9{fill:#1D5463;}
	.st10{fill:#13464F;}
	.st11{fill:#F0F1F1;}
	.st12{fill:#0B3135;}
	.st13{fill:#164B56;}
	.st14{fill:#34121E;}
	.st15{opacity:0.3;fill:#FFFFFF;}
	.st16{fill:#77233C;}
	.st17{fill:#A9A9A9;}
	.st18{fill:#020303;}
	.st19{fill:#631B2E;}
	.st20{fill:#4E1528;}
</style>
<g>
	<path class="st0" d="M527.4,227.4c0-22.3,4.8-43.7,14.4-63.5l125.7,72.6l26.4,136.8c-6.4,0.8-12.9,1.3-19.4,1.3
		C593.4,374.5,527.4,308.5,527.4,227.4z M705.9,371.1c67.3-14.6,115.7-74.4,115.7-143.7c0-80.1-64.4-145.5-144.1-147.1l1.4,149.7
		c0.1,0.4,0.2,0.9,0.3,1.2c0.2,1.1,0.5,2.7,0.9,4.7c0.8,4,1.9,9.7,3.2,16.5c2.6,13.7,6.1,31.9,9.6,50.1
		C698.4,331.5,703.9,360.4,705.9,371.1z M602.4,99.1c-22.8,12.8-41.7,31.3-54.9,53.9l110.7,63.7L602.4,99.1z M665.3,80.5
		c-18.3,1.1-35.8,5.6-52.4,13.2l53.6,112.7L665.3,80.5z"/>
	<g>
		<g>
			
				<rect x="71.7" y="175.7" transform="matrix(0.965 -0.2623 0.2623 0.965 -71.8631 51.1353)" class="st1" width="167.9" height="238.1"/>
			
				<rect x="82.9" y="207.2" transform="matrix(0.965 -0.2623 0.2623 0.965 -51.2301 43.3336)" class="st0" width="107.5" height="12.7"/>
			
				<rect x="141.2" y="226.9" transform="matrix(0.965 -0.2623 0.2623 0.965 -67.444 58.2394)" class="st2" width="86.5" height="109.7"/>
			<path class="st3" d="M205.9,287.4l2.3,33.1l-0.8,0.1l-2.3-33.2c-0.1,0-0.2,0-0.3,0l-8.9,34.7l-0.8-0.2l8.9-34.7
				c-1.1-0.4-2-1.4-2.3-2.6c-0.3-1-0.1-2.1,0.4-3l-22.3-24.8c-1,1.1-2.3,1.9-3.8,2.4c-1.6,0.4-3.2,0.3-4.7-0.2l-5.7,31.8
				c1.4,0.3,2.6,1.3,3,2.8c0.4,1.5-0.1,3.1-1.3,4l17.2,26.7l-0.7,0.4l-17.3-26.6c-0.2,0.1-0.4,0.2-0.6,0.2c-0.3,0.1-0.5,0.1-0.8,0.1
				l8.2,30.2l-0.8,0.2l-8.2-30.4c-0.4-0.1-0.7-0.2-1-0.3l-1.4,33.3l-0.8,0l1.4-33.7c-0.6-0.5-1.1-1.2-1.3-2
				c-0.6-2.1,0.7-4.2,2.7-4.7c0.3-0.1,0.6-0.1,0.9-0.1l5.7-32.1c-2-0.9-3.6-2.7-4.2-5c-1.1-4.2,1.3-8.5,5.5-9.6
				c4.2-1.1,8.5,1.3,9.6,5.5c0.6,2.4,0.1,4.8-1.2,6.7l22.3,24.8c0.5-0.5,1.1-0.9,1.8-1.1c2.1-0.6,4.2,0.7,4.7,2.7
				c0.4,1.5-0.1,3.1-1.3,4l23.5,25.6l-0.6,0.5L207.3,287c-0.1,0-0.2,0.1-0.2,0.1l13,29.4l-0.7,0.3l-13-29.5
				C206.2,287.4,206.1,287.4,205.9,287.4z"/>
			
				<ellipse transform="matrix(0.965 -0.2623 0.2623 0.965 -59.8868 54.5759)" class="st4" cx="174.5" cy="251.6" rx="16.4" ry="16.4"/>
			
				<ellipse transform="matrix(0.965 -0.2623 0.2623 0.965 -71.4312 53.7114)" class="st0" cx="165.5" cy="294.4" rx="10.9" ry="10.9"/>
			
				<ellipse transform="matrix(0.965 -0.2623 0.2623 0.965 -81.2292 53.8728)" class="st5" cx="161.2" cy="331.2" rx="4.8" ry="4.8"/>
			
				<ellipse transform="matrix(0.965 -0.2623 0.2623 0.965 -79.9998 56.7963)" class="st5" cx="172.8" cy="328.1" rx="4.8" ry="4.8"/>
			
				<ellipse transform="matrix(0.965 -0.2623 0.2623 0.965 -78.7704 59.7197)" class="st5" cx="184.3" cy="324.9" rx="4.8" ry="4.8"/>
			<ellipse transform="matrix(0.965 -0.2623 0.2623 0.965 -77.541 62.6432)" class="st5" cx="195.9" cy="321.8" rx="4.8" ry="4.8"/>
			
				<ellipse transform="matrix(0.965 -0.2623 0.2623 0.965 -76.3122 65.5673)" class="st5" cx="207.5" cy="318.6" rx="4.8" ry="4.8"/>
			<ellipse transform="matrix(0.965 -0.2623 0.2623 0.965 -75.0828 68.4908)" class="st5" cx="219" cy="315.5" rx="4.8" ry="4.8"/>
			
				<ellipse transform="matrix(0.965 -0.2623 0.2623 0.965 -73.8534 71.4143)" class="st5" cx="230.6" cy="312.4" rx="4.8" ry="4.8"/>
			
				<ellipse transform="matrix(0.965 -0.2623 0.2623 0.965 -67.2195 63.7227)" class="st0" cx="205.1" cy="283.7" rx="10.9" ry="10.9"/>
			<path class="st3" d="M179.6,356.4l65.8-17.9l0.9,3.5l-65.8,17.9L179.6,356.4z M182.4,366.9l65.8-17.9l-0.9-3.5l-65.8,17.9
				L182.4,366.9z M184.3,373.8l65.8-17.9l-0.9-3.5l-65.8,17.9L184.3,373.8z M186.2,380.8l65.8-17.9l-0.9-3.5l-65.8,17.9L186.2,380.8
				z M188.1,387.7l65.8-17.9l-0.9-3.5l-65.8,17.9L188.1,387.7z M99.1,378.3l65.8-17.9l0.9,3.5L100,381.8L99.1,378.3z M101.9,388.7
				l65.8-17.9l-0.9-3.5L101,385.2L101.9,388.7z M103.8,395.7l65.8-17.9l-0.9-3.5l-65.8,17.9L103.8,395.7z M105.7,402.6l65.8-17.9
				l-0.9-3.5l-65.8,17.9L105.7,402.6z M107.6,409.6l65.8-17.9l-0.9-3.5l-65.8,17.9L107.6,409.6z"/>
			
				<rect x="91.6" y="185.3" transform="matrix(0.965 -0.2623 0.2623 0.965 -46.0503 40.5191)" class="st6" width="74.3" height="15"/>
		</g>
		
			<rect x="64.8" y="249.2" transform="matrix(0.965 -0.2623 0.2623 0.965 -62.764 33.8473)" class="st4" width="61.2" height="5.6"/>
		
			<rect x="98.8" y="359.6" transform="matrix(0.965 -0.2623 0.2623 0.965 -90.5224 46.6338)" class="st4" width="61.2" height="5.6"/>
		
			<rect x="180.6" y="337.4" transform="matrix(0.965 -0.2623 0.2623 0.965 -81.8296 67.3061)" class="st4" width="61.2" height="5.6"/>
		<path class="st3" d="M67.9,267.5l59.1-16.1l0.6,2l-59.1,16.1L67.9,267.5z M70,275.2l59.1-16.1l-0.6-2l-59.1,16.1L70,275.2z
			 M71.5,280.9l59.1-16.1l-0.6-2L71,278.9L71.5,280.9z M73.1,286.6l59.1-16.1l-0.6-2l-59.1,16.1L73.1,286.6z M74.6,292.3l59.1-16.1
			l-0.6-2l-59.1,16.1L74.6,292.3z M76.2,298l59.1-16.1l-0.6-2L75.6,296L76.2,298z M77.7,303.7l59.1-16.1l-0.6-2l-59.1,16.1
			L77.7,303.7z M79.3,309.5l59.1-16.1l-0.6-2l-59.1,16.1L79.3,309.5z M80.8,315.2l59.1-16.1l-0.6-2l-59.1,16.1L80.8,315.2z
			 M82.4,320.9l59.1-16.1l-0.6-2l-59.1,16.1L82.4,320.9z M83.9,326.6l59.1-16.1l-0.6-2l-59.1,16.1L83.9,326.6z M85.5,332.3
			l59.1-16.1l-0.6-2l-59.1,16.1L85.5,332.3z M87,338l59.1-16.1l-0.6-2L86.5,336L87,338z M88.6,343.7l59.1-16.1l-0.6-2L88,341.7
			L88.6,343.7z M90.1,349.4l59.1-16.1l-0.6-2l-59.1,16.1L90.1,349.4z M91.7,355.1l59.1-16.1l-0.6-2l-59.1,16.1L91.7,355.1z
			 M93.2,360.8l59.1-16.1l-0.6-2l-59.1,16.1L93.2,360.8z"/>
	</g>
	<g>
		<g>
			<path class="st4" d="M304.1,365.5c3.1,0,6.1-0.2,9.2-0.6l-12.5-64.8l-59.5-34.4c-4.5,9.4-6.8,19.5-6.8,30.1
				C234.4,334.3,265.7,365.5,304.1,365.5z"/>
			<path class="st7" d="M318.9,363.9c31.9-6.9,54.8-35.2,54.8-68.1c0-37.9-30.5-68.9-68.3-69.7l0.7,70.9c0.1,0.2,0.1,0.4,0.1,0.6
				c0.1,0.5,0.3,1.3,0.4,2.2c0.4,1.9,0.9,4.6,1.5,7.8c1.2,6.5,2.9,15.1,4.5,23.7C315.4,345.2,318,358.9,318.9,363.9z"/>
		</g>
		<g>
			<path class="st0" d="M269.9,235.1c-10.8,6.1-19.7,14.8-26,25.5l52.4,30.2L269.9,235.1z"/>
			<path class="st6" d="M299.7,226.3c-8.6,0.5-17,2.6-24.8,6.2l25.4,53.4L299.7,226.3z"/>
		</g>
	</g>
	<g>
		<path class="st8" d="M426.3,294.9l-37.2-50.2c-8.4,2-17.5-1.1-22.9-8.4c-5.4-7.3-5.7-16.9-1.4-24.4l10.8,14.5
			c2.9,3.9,8.4,4.6,12.3,1.7c3.9-2.9,4.8-8.4,1.9-12.2L379,201.4c8.4-2,17.5,1.1,22.9,8.4c5.4,7.2,5.7,16.6,1.6,24l37.4,50.5
			c8.2-1.8,17.1,1.3,22.5,8.5c5.4,7.3,5.7,16.9,1.4,24.4L454,302.6c-2.9-3.9-8.4-4.6-12.3-1.7c-3.9,2.9-4.8,8.4-1.9,12.2l10.8,14.5
			c-8.4,2-17.5-1.1-22.9-8.4C422.3,311.9,422,302.3,426.3,294.9z"/>
		<path class="st9" d="M426.3,294.9l-37.2-50.2c-8.4,2-17.5-1.1-22.9-8.4c-5.4-7.3-5.7-16.9-1.4-24.4l10.8,14.5
			c2.8,3.8,8.3,4.6,12.2,1.8l53.9,72.7c-3.8,2.9-4.6,8.3-1.8,12.2l10.8,14.5c-8.4,2-17.5-1.1-22.9-8.4
			C422.3,311.9,422,302.3,426.3,294.9z"/>
		<path class="st10" d="M427.9,288.8c1.2,1.6,3.5,2,5.2,0.8l0,0c1.6-1.2,2-3.5,0.8-5.2L401,240.2c-1.2-1.6-3.5-2-5.2-0.8l0,0
			c-1.6,1.2-2,3.5-0.8,5.2L427.9,288.8z"/>
	</g>
	<g>
		<path class="st8" d="M398.7,290.6l49.4-38.3c7.5,4.1,17.1,3.7,24.3-1.9c7.2-5.6,10.1-14.8,7.9-23.1l-14.3,11.1
			c-3.8,2.9-9.3,2.2-12.3-1.6c-3-3.8-2.3-9.4,1.5-12.3l14.3-11.1c-7.5-4.1-17.1-3.7-24.3,1.9c-7.1,5.5-10,14.5-8,22.7l-49.7,38.5
			c-7.5-3.9-16.9-3.4-24,2.1c-7.2,5.6-10.1,14.8-7.9,23.1l14.3-11.1c3.8-2.9,9.3-2.2,12.3,1.6s2.3,9.4-1.5,12.3l-14.3,11.1
			c7.5,4.1,17.1,3.7,24.3-1.9C398,308.1,400.9,298.9,398.7,290.6z"/>
		<path class="st9" d="M398.7,290.6l49.4-38.3c7.5,4.1,17.1,3.7,24.3-1.9c7.2-5.6,10.1-14.8,7.9-23.1l-14.3,11.1
			c-3.8,2.9-9.2,2.2-12.2-1.5l-71.6,55.4c2.9,3.8,2.2,9.3-1.6,12.2l-14.3,11.1c7.5,4.1,17.1,3.7,24.3-1.9
			C398,308.1,400.9,298.9,398.7,290.6z"/>
		<path class="st10" d="M398.9,284.4c-1.6,1.3-3.9,1-5.2-0.7l0,0c-1.3-1.6-1-3.9,0.7-5.2l43.5-33.7c1.6-1.3,3.9-1,5.2,0.7l0,0
			c1.3,1.6,1,3.9-0.7,5.2L398.9,284.4z"/>
	</g>
	<g>
		<circle class="st6" cx="545.7" cy="471" r="71.9"/>
		<circle class="st11" cx="545.7" cy="471" r="68"/>
		<g>
			<path class="st0" d="M538.7,470.5c0.6,1,1.9,1.3,2.9,0.7l52.7-32.8c1-0.6,1.3-1.9,0.7-2.9l0,0c-0.6-1-1.9-1.3-2.9-0.7l-52.7,32.8
				C538.3,468.2,538,469.5,538.7,470.5L538.7,470.5z"/>
			<path class="st4" d="M544.3,472.4c0.5-0.3,0.9-0.8,1.2-1.3l1-1.8c0.5-0.8,0.5-1.8,0.3-2.7c-0.3-0.9-0.9-1.7-1.7-2.1l-29.9-16.2
				c-1.1-0.6-2.5-0.6-3.6,0.1c-0.5,0.3-0.9,0.8-1.2,1.3l-1,1.8c-0.5,0.8-0.6,1.8-0.3,2.7c0.3,0.9,0.9,1.7,1.7,2.1l29.9,16.2
				C541.9,473.1,543.3,473.1,544.3,472.4z"/>
			<path class="st4" d="M553.3,518.2c0.7-0.4,1.1-1.2,0.9-2.1l-9-49.6c-0.2-1.1-1.2-1.8-2.3-1.6c-0.3,0-0.5,0.1-0.7,0.3
				c-0.7,0.4-1.1,1.2-0.9,2.1l9,49.6c0.2,1.1,1.2,1.8,2.3,1.6C552.8,518.5,553.1,518.4,553.3,518.2z"/>
		</g>
	</g>
	<g>
		<path class="st12" d="M248.8,352l8.5-1.9c0.7-0.1,1.3,0.3,1.5,0.9l0.8,3.5c0.1,0.7-0.3,1.3-0.9,1.5l-1.1,0.2l9.4,16.8l2-0.4
			c0.7-0.1,1.3,0.3,1.5,0.9l0.8,3.5c0.1,0.7-0.3,1.3-0.9,1.5l-8.5,1.9c-0.7,0.1-1.3-0.3-1.5-0.9l-0.8-3.5c-0.1-0.7,0.3-1.3,0.9-1.5
			l1.1-0.2l-9.4-16.8l-1.9,0.4c-0.7,0.1-1.3-0.3-1.5-0.9l-0.8-3.5C247.7,352.8,248.1,352.2,248.8,352z"/>
		<path class="st12" d="M175.2,368l-8.5,1.9c-0.7,0.1-1.1,0.8-0.9,1.5l0.8,3.5c0.1,0.7,0.8,1.1,1.5,0.9l1.1-0.2l-1.6,19.2l-2,0.4
			c-0.7,0.1-1.1,0.8-0.9,1.5l0.8,3.5c0.1,0.7,0.8,1.1,1.5,0.9l8.5-1.9c0.7-0.1,1.1-0.8,0.9-1.5l-0.8-3.5c-0.1-0.7-0.8-1.1-1.5-0.9
			l-1.1,0.2l1.6-19.2l1.9-0.4c0.7-0.1,1.1-0.8,0.9-1.5l-0.8-3.5C176.6,368.3,175.9,367.9,175.2,368z"/>
		<path class="st9" d="M104,574.1c2,9.3,11.2,15.3,20.6,13.2l261.2-56.9c9.3-2,15.3-11.2,13.2-20.6l-30.9-139.1
			c-2-9.3-11.2-15.3-20.6-13.2L86.3,414.4c-9.3,2-15.3,11.2-13.2,20.6L104,574.1z"/>
		<path class="st13" d="M368.1,370.7l23,105.6c3.6,16.4-5.5,32.2-26,36.7L135,563.1c-20.5,4.5-35.4-6.2-38.9-22.5L73,435
			L368.1,370.7z"/>
		<path class="st8" d="M95.1,536.4c2,9.3,11.2,15.3,20.6,13.2L377,492.7c9.3-2,15.3-11.2,13.2-20.6l-22.1-101.4
			c-2-9.3-11.2-15.3-20.6-13.2L86.3,414.4c-9.3,2-15.3,11.2-13.2,20.6L95.1,536.4z"/>
		<g>
			<path class="st10" d="M285.5,370.6c-0.5-2.4,1-4.7,3.4-5.3l13.6-3c2.4-0.5,4.7,1,5.3,3.4l29.6,135.8c0.5,2.4-1,4.7-3.4,5.3
				l-13.6,3c-2.4,0.5-4.7-1-5.3-3.4L285.5,370.6z"/>
			<path class="st5" d="M309.5,501l2.7,12.4c0.9,4.1,5,6.8,9.1,5.9l15.4-3.4c4.1-0.9,6.8-5,5.9-9.1l-2.7-12.4
				c-0.9-4.1-5-6.8-9.1-5.9l-15.4,3.4C311.2,492.8,308.6,496.9,309.5,501z M313.4,500.2c-0.4-2,0.8-3.9,2.8-4.3l15.4-3.4
				c2-0.4,3.9,0.8,4.3,2.8l2.7,12.4c0.4,2-0.8,3.9-2.8,4.3l-15.4,3.4c-2,0.4-3.9-0.8-4.3-2.8L313.4,500.2z"/>
			<g>
				<g>
					<path class="st10" d="M313.8,500.6c-0.5-2.4,1-4.7,3.4-5.3l13.6-3c2.4-0.5,4.7,1,5.3,3.4l9.8,42.1c0.5,2.4-1,4.7-3.4,5.3
						l-13.6,3c-2.4,0.5-4.7-1-5.3-3.4L313.8,500.6z"/>
					<path class="st9" d="M338.9,539.6c0.2,1,1.2,1.7,2.3,1.5l0.6-0.1c1-0.2,1.7-1.2,1.5-2.3l-9.3-39.7c-0.2-1-1.2-1.7-2.3-1.5
						l-0.6,0.1c-1,0.2-1.7,1.2-1.5,2.3L338.9,539.6z"/>
				</g>
				<path class="st5" d="M323,503.6c0.2,1,1.2,1.7,2.3,1.5l1.8-0.4c1-0.2,1.7-1.2,1.5-2.3l-1.6-7.2c-0.2-1-1.2-1.7-2.3-1.5l-1.8,0.4
					c-1,0.2-1.7,1.2-1.5,2.3L323,503.6z"/>
			</g>
			<path class="st9" d="M326.4,485.2c0.2,1,1.2,1.7,2.3,1.5l1.3-0.3c1-0.2,1.7-1.2,1.5-2.3l-25.2-115.8c-0.2-1-1.2-1.7-2.3-1.5
				l-1.3,0.3c-1,0.2-1.7,1.2-1.5,2.3L326.4,485.2z"/>
		</g>
		<g>
			<path class="st10" d="M125.5,405.4c-0.5-2.4,1-4.7,3.4-5.3l13.6-3c2.4-0.5,4.7,1,5.3,3.4l29.6,135.8c0.5,2.4-1,4.7-3.4,5.3
				l-13.6,3c-2.4,0.5-4.7-1-5.3-3.4L125.5,405.4z"/>
			<path class="st5" d="M149.5,535.9l2.7,12.4c0.9,4.1,5,6.8,9.1,5.9l15.4-3.4c4.1-0.9,6.8-5,5.9-9.1l-2.7-12.4
				c-0.9-4.1-5-6.8-9.1-5.9l-15.4,3.4C151.2,527.6,148.6,531.7,149.5,535.9z M153.4,535c-0.4-2,0.8-3.9,2.8-4.3l15.4-3.4
				c2-0.4,3.9,0.8,4.3,2.8l2.7,12.4c0.4,2-0.8,3.9-2.8,4.3l-15.4,3.4c-2,0.4-3.9-0.8-4.3-2.8L153.4,535z"/>
			<g>
				<g>
					<path class="st10" d="M153.8,535.4c-0.5-2.4,1-4.7,3.4-5.3l13.6-3c2.4-0.5,4.7,1,5.3,3.4l9.8,42.1c0.5,2.4-1,4.7-3.4,5.3
						l-13.6,3c-2.4,0.5-4.7-1-5.3-3.4L153.8,535.4z"/>
					<path class="st9" d="M178.9,574.5c0.2,1,1.2,1.7,2.3,1.5l0.6-0.1c1-0.2,1.7-1.2,1.5-2.3l-9.3-39.7c-0.2-1-1.2-1.7-2.3-1.5
						l-0.6,0.1c-1,0.2-1.7,1.2-1.5,2.3L178.9,574.5z"/>
				</g>
				<path class="st5" d="M163,538.5c0.2,1,1.2,1.7,2.3,1.5l1.8-0.4c1-0.2,1.7-1.2,1.5-2.3l-1.6-7.2c-0.2-1-1.2-1.7-2.3-1.5l-1.8,0.4
					c-1,0.2-1.7,1.2-1.5,2.3L163,538.5z"/>
			</g>
			<path class="st9" d="M166.3,520c0.2,1,1.2,1.7,2.3,1.5l1.3-0.3c1-0.2,1.7-1.2,1.5-2.3l-25.2-115.8c-0.2-1-1.2-1.7-2.3-1.5
				l-1.3,0.3c-1,0.2-1.7,1.3-1.5,2.3L166.3,520z"/>
		</g>
		<path class="st9" d="M164.3,372.8c0.1,0.7,0.8,1.1,1.5,0.9l93.5-20.4c0.7-0.1,1.1-0.8,0.9-1.5l-2-9.2c-0.1-0.7-0.8-1.1-1.5-0.9
			l-93.5,20.4c-0.7,0.1-1.1,0.8-0.9,1.5L164.3,372.8z"/>
		<path class="st8" d="M163.7,366.2c0.1,0.7,0.8,1.1,1.5,0.9l92.3-20.1c0.7-0.1,1.1-0.8,0.9-1.5l-0.6-2.5c-0.1-0.7-0.8-1.1-1.5-0.9
			l-92.3,20.1c-0.7,0.1-1.1,0.8-0.9,1.5L163.7,366.2z"/>
	</g>
	<g>
		<path class="st14" d="M487.5,556c0,2.7,2.2,5,5,5l0,0c2.7,0,5-2.2,5-5V351c0-2.7-2.2-5-5-5l0,0c-2.7,0-5,2.2-5,5V556z"/>
		<path class="st14" d="M382.2,556c0,2.7,2.2,5,5,5l0,0c2.7,0,5-2.2,5-5V351c0-2.7-2.2-5-5-5l0,0c-2.7,0-5,2.2-5,5V556z"/>
		<g>
			<g>
				<path class="st3" d="M420.2,475.6c-8.7,10.4-18.7,22.3-18.7,38.3c0,14.3,3.7,24.3,11.2,30.4c6,4.9,14.3,7.2,26,7.2
					s20-2.3,26-7.2c7.5-6.1,11.2-16.1,11.2-30.4c0-16-9.9-27.9-18.7-38.3c-5.6-6.7-15.9-13.3-16.8-20.1c0.9-7,11.2-13.1,16.8-19.8
					c8.7-10.4,18.7-22.3,18.7-38.3c0-14.3-3.7-24.3-11.2-30.4c-6-4.9-14.3-7.2-26-7.2s-20,2.3-26,7.2c-7.5,6.1-11.2,16.1-11.2,30.4
					c0,16,9.9,27.9,18.7,38.3c5.6,6.7,15.9,13.3,16.8,20.1C436.2,462.8,425.9,468.9,420.2,475.6z M405.1,514
					c0-25,31.1-38.6,33.3-58.3c-2.2-19.3-33.3-33.4-33.3-58.3c0-28.4,15.1-34.1,33.7-34.1c18.6,0,33.7,5.7,33.7,34.1
					c0,25-31.1,38.6-33.3,58.3c2.2,19.3,33.3,33.4,33.3,58.3c0,28.4-15.1,34.1-33.7,34.1C420.2,548,405.1,542.4,405.1,514z"/>
				<path class="st6" d="M407.3,408.7h63c-7.1,18.2-29.2,30.4-31,46.9c0,9-0.1,46.5-0.1,53.7c0,12.2,30.3,25.1,26.2,29.8
					c-6.2,7.1-15.8,9-26.6,9c-10.6,0-20.1-1.8-26.3-8.7c-4.2-4.6,25.9-16.9,25.9-30c0-7.1-0.1-44.6-0.1-53.6
					C436.5,439.5,414.4,427,407.3,408.7z"/>
				<path class="st15" d="M438.3,359.8c0.2,0,0.3,0,0.5,0c11.8,0,20,2.3,26,7.2c7.5,6.1,11.2,16.1,11.2,30.4
					c0,16-9.9,27.9-18.7,38.3c-5.6,6.7-15.9,12.9-16.8,19.8c0.9,6.8,11.2,13.4,16.8,20.1c8.7,10.4,18.7,22.3,18.7,38.3
					c0,14.3-3.7,24.3-11.2,30.4c-6,4.9-14.3,7.2-26,7.2c-0.2,0-0.3,0-0.5,0V359.8z"/>
				<path class="st15" d="M432.4,485.7c-9.4,6.9-15.8,20.3-15.9,35.9c0,7.3,1.3,14.3,3.7,20.4c-7.5-5.8-12.5-14.8-13-24.9
					C406.6,501.3,417.5,488.1,432.4,485.7z"/>
				<path class="st15" d="M432.4,365.1c-9.4,6.9-15.8,20.3-15.9,35.9c0,7.3,1.3,14.3,3.7,20.4c-7.5-5.8-12.5-14.8-13-24.9
					C406.6,380.6,417.5,367.4,432.4,365.1z"/>
			</g>
			<path class="st14" d="M406.2,553c0,4.3,3.5,7.8,7.8,7.8h46.8c4.3,0,7.8-3.5,7.8-7.8l0,0c0-4.3-3.5-7.8-7.8-7.8H414
				C409.7,545.2,406.2,548.7,406.2,553L406.2,553z"/>
			<path class="st14" d="M411.6,357.5c0,3.6,2.9,6.5,6.5,6.5h38.7c3.6,0,6.5-2.9,6.5-6.5l0,0c0-3.6-2.9-6.5-6.5-6.5h-38.7
				C414.5,351,411.6,353.9,411.6,357.5L411.6,357.5z"/>
			<g>
				<path class="st14" d="M371.3,355.1c0,2.6,2.1,4.7,4.7,4.7h125.2c2.6,0,4.7-2.1,4.7-4.7l0,0c0-2.6-2.1-4.7-4.7-4.7H376
					C373.4,350.4,371.3,352.5,371.3,355.1L371.3,355.1z"/>
				<path class="st16" d="M373,353.9c0,1.2,1,2.2,2.2,2.2h126.9c1.2,0,2.2-1,2.2-2.2l0,0c0-1.2-1-2.2-2.2-2.2H375.3
					C374,351.7,373,352.6,373,353.9L373,353.9z"/>
			</g>
			<g>
				<path class="st14" d="M371.3,556.3c0,2.6,2.1,4.7,4.7,4.7h125.2c2.6,0,4.7-2.1,4.7-4.7l0,0c0-2.6-2.1-4.7-4.7-4.7H376
					C373.4,551.6,371.3,553.7,371.3,556.3L371.3,556.3z"/>
				<path class="st16" d="M373,555.1c0,1.2,1,2.2,2.2,2.2h126.9c1.2,0,2.2-1,2.2-2.2l0,0c0-1.2-1-2.2-2.2-2.2H375.3
					C374,552.8,373,553.8,373,555.1L373,555.1z"/>
			</g>
		</g>
	</g>
	<g>
		<path class="st17" d="M206.7,545.2C206.7,545.2,206.7,545.2,206.7,545.2l1.7,0.6c0,0,0,0,0,0.1c-1.4,4-3,7.1-3.5,6.9
			C204.5,552.6,205.3,549.2,206.7,545.2z"/>
		<path class="st18" d="M205.3,549.7l1.3,0.5c-0.8,1.6-1.4,2.6-1.7,2.5C204.7,552.6,204.9,551.5,205.3,549.7z"/>
		<path class="st14" d="M255,413.8c2.3,0.8,4.8-0.4,5.6-2.7l6.7-18.7c0.8-2.3-0.4-4.8-2.7-5.6l0,0c-2.3-0.8-4.8,0.4-5.6,2.7
			l-6.7,18.7C251.5,410.5,252.7,413,255,413.8L255,413.8z"/>
		<g>
			<path class="st14" d="M208,527.9l19.4-54l10.5,3.8l-19.4,54c-0.9,2.6-7.9,15.5-10.6,14.5l-1-0.4
				C204.3,544.9,207.1,530.5,208,527.9z"/>
			<path class="st19" d="M252.9,399.3c0.7-1.8,2.1-3.2,3.9-3.8l8.4,3c1,1.5,1.3,3.5,0.6,5.4L239,478.2l-12.9-4.6L252.9,399.3z"/>
			<path class="st16" d="M230.6,472.8c1.1,0.4,2.2-0.2,2.6-1.2l25.3-70.5c0.4-1.1-0.2-2.2-1.2-2.6l0,0c-1.1-0.4-2.2,0.2-2.6,1.2
				l-25.3,70.5C229,471.3,229.5,472.4,230.6,472.8L230.6,472.8z"/>
			<path class="st20" d="M210.1,531.7c0.9,0.3,1.8-0.1,2.1-1l19.3-53.6c0.3-0.9-0.1-1.8-1-2.1l0,0c-0.9-0.3-1.8,0.1-2.1,1
				l-19.3,53.6C208.8,530.5,209.2,531.4,210.1,531.7L210.1,531.7z"/>
		</g>
		<path class="st14" d="M231.1,449.5l16.8-46.8c0.8-2.1,2.8-3.3,4.9-3.2l0.1-0.2l12.9,4.6l-1.4,3.9l-12.6-4.5
			c-1.4,0.5-2.5,1.5-3,2.9l-14.7,40.9c0.8,0.4,1.2,1.3,0.9,2.2l-0.5,1.4c-0.3,0.9-1.3,1.4-2.3,1.1
			C231.3,451.4,230.8,450.4,231.1,449.5z"/>
	</g>
</g>
</svg>
