<?xml version="1.0" encoding="utf-8"?>
<!-- Generator: Adobe Illustrator 19.2.0, SVG Export Plug-In . SVG Version: 6.00 Build 0)  -->
<svg version="1.1" id="Layer_1" xmlns="http://www.w3.org/2000/svg" xmlns:xlink="http://www.w3.org/1999/xlink" x="0px" y="0px"
	 viewBox="0 0 865 668" style="enable-background:new 0 0 865 668;" xml:space="preserve">
<style type="text/css">
	.st0{fill:#1E2033;}
	.st1{fill:#3B3C53;}
	.st2{fill:#8DD3D6;}
	.st3{fill:#4B7574;}
	.st4{fill:#D8D7D3;}
	.st5{fill:#6BA2A2;}
	.st6{fill:#FFFFFF;}
	.st7{fill:#F2835F;}
	.st8{opacity:0.2;}
	.st9{fill:#385959;}
	.st10{fill:#F16124;}
	.st11{fill:#304344;}
	.st12{fill:#11191E;}
	.st13{fill:#BABABB;}
	.st14{fill:#F18164;}
	.st15{fill:#425657;}
	.st16{fill:#FFE07E;}
	.st17{fill:#ABDEEA;}
	.st18{fill:#6FADB0;}
	.st19{opacity:0.3;}
	.st20{fill:#7D6C3A;}
	.st21{fill:#37414B;}
	.st22{fill:#F38068;}
	.st23{fill:#A23822;}
	.st24{fill:#E54525;}
	.st25{fill:#233535;}
</style>
<g>
	<g>
		<path class="st0" d="M325.6,139.7v6.4c0,1.2,1,2.2,2.2,2.2h2.8c1.1,0,1.9,0.4,2.1,1.2l0,0c0.5,1.7,1.2,3.4,2,4.9l0,0
			c0,0,0.2,1.2-0.6,2l-2.1,2.1c-0.8,0.8-0.8,2.2,0,3.1l4.5,4.5c0.8,0.8,2.2,0.8,3.1,0l2-2c0.7-0.7,1.6-1,2.3-0.6l0,0
			c1.5,0.8,3.2,1.5,4.9,2l0,0c0,0,1,0.7,1,1.9v2.9c0,1.2,1,2.2,2.2,2.2h6.4c1.2,0,2.2-1,2.2-2.2v-2.8c0-1.1,0.4-1.9,1.2-2.1l0,0
			c1.7-0.5,3.4-1.2,4.9-2l0,0c0,0,1.2-0.2,2,0.6l2.1,2.1c0.8,0.8,2.2,0.8,3.1,0l4.5-4.5c0.8-0.8,0.8-2.2,0-3.1l-2-2
			c-0.7-0.7-1-1.6-0.6-2.3l0,0c0.8-1.5,1.5-3.2,2-4.9l0,0c0,0,0.7-1,1.9-1h2.9c1.2,0,2.2-1,2.2-2.2v-6.4c0-1.2-1-2.2-2.2-2.2l-2.8,0
			c-1.1,0-1.9-0.4-2.1-1.2l0,0c-0.5-1.7-1.2-3.4-2-4.9l0,0c0,0-0.2-1.2,0.6-2l2.1-2.1c0.8-0.8,0.8-2.2,0-3.1l-4.5-4.5
			c-0.8-0.8-2.2-0.8-3.1,0l-2,2c-0.7,0.7-1.6,1-2.3,0.6l0,0c-1.5-0.8-3.2-1.5-4.9-2l0,0c0,0-1-0.7-1-1.9v-2.9c0-1.2-1-2.2-2.2-2.2
			h-6.4c-1.2,0-2.2,1-2.2,2.2v2.8c0,1.1-0.4,1.9-1.2,2.1l0,0c-1.7,0.5-3.4,1.2-4.9,2l0,0c0,0-1.2,0.2-2-0.6l-2.1-2.1
			c-0.8-0.8-2.2-0.8-3.1,0l-4.5,4.5c-0.8,0.8-0.8,2.2,0,3.1l2,2c0.7,0.7,1,1.6,0.6,2.3l0,0c-0.8,1.5-1.5,3.2-2,4.9l0,0
			c0,0-0.7,1-1.9,1h-2.9C326.6,137.6,325.6,138.5,325.6,139.7z M335.1,142.9c0-11,9-20,20-20c11,0,20,9,20,20c0,11-9,20-20,20
			C344,163,335.1,154,335.1,142.9z M337.7,142.9c0,9.6,7.8,17.4,17.4,17.4c9.6,0,17.4-7.8,17.4-17.4c0-9.6-7.8-17.4-17.4-17.4
			C345.5,125.5,337.7,133.3,337.7,142.9z M343.3,142.9c0-6.5,5.3-11.8,11.8-11.8c6.5,0,11.8,5.3,11.8,11.8s-5.3,11.8-11.8,11.8
			C348.6,154.7,343.3,149.5,343.3,142.9z M379.2,152.3l0,8.5c0,1.6,1.3,2.9,2.9,2.9h3.7c1.4,0,2.5,0.6,2.8,1.5l0,0
			c0.7,2.3,1.6,4.5,2.7,6.5l0,0c0,0,0.3,1.6-0.8,2.7l-2.7,2.7c-1.1,1.1-1.1,2.9,0,4.1l6,6c1.1,1.1,2.9,1.1,4.1,0l2.6-2.6
			c1-1,2.1-1.3,3-0.9l0,0c2,1.1,4.2,2,6.5,2.7l0,0c0,0,1.3,0.9,1.3,2.5l0,3.9c0,1.6,1.3,2.9,2.9,2.9h8.5c1.6,0,2.9-1.3,2.9-2.9v-3.7
			c0-1.4,0.6-2.5,1.5-2.8l0,0c2.3-0.7,4.5-1.6,6.5-2.7l0,0c0,0,1.6-0.3,2.7,0.8l2.7,2.7c1.1,1.1,2.9,1.1,4.1,0l6-6
			c1.1-1.1,1.1-2.9,0-4.1l-2.6-2.6c-1-1-1.3-2.1-0.9-3l0,0c1.1-2,2-4.2,2.7-6.5l0,0c0,0,0.9-1.3,2.5-1.3h3.9c1.6,0,2.9-1.3,2.9-2.9
			l0-8.5c0-1.6-1.3-2.9-2.9-2.9h-3.7c-1.4,0-2.5-0.6-2.8-1.5l0,0c-0.7-2.3-1.6-4.5-2.7-6.5l0,0c0,0-0.3-1.6,0.8-2.7l2.7-2.7
			c1.1-1.1,1.1-2.9,0-4.1l-6-6c-1.1-1.1-2.9-1.1-4.1,0l-2.6,2.6c-1,1-2.1,1.3-3,0.9l0,0c-2-1.1-4.2-2-6.5-2.7l0,0
			c0,0-1.3-0.9-1.3-2.5v-3.9c0-1.6-1.3-2.9-2.9-2.9l-8.5,0c-1.6,0-2.9,1.3-2.9,2.9v3.7c0,1.4-0.6,2.5-1.5,2.8l0,0
			c-2.3,0.7-4.5,1.6-6.5,2.7l0,0c0,0-1.6,0.3-2.7-0.8l-2.7-2.7c-1.1-1.1-2.9-1.1-4.1,0l-6,6c-1.1,1.1-1.1,2.9,0,4.1l2.6,2.6
			c1,1,1.3,2.1,0.9,3l0,0c-1.1,2-2,4.2-2.7,6.5l0,0c0,0-0.9,1.3-2.5,1.3l-3.9,0C380.5,149.5,379.2,150.7,379.2,152.3z M391.7,156.6
			c0-14.6,11.9-26.5,26.5-26.5s26.5,11.9,26.5,26.5c0,14.6-11.9,26.5-26.5,26.5C403.6,183.1,391.7,171.2,391.7,156.6z M395.1,156.6
			c0,12.7,10.3,23.1,23.1,23.1c12.7,0,23.1-10.3,23.1-23.1c0-12.7-10.3-23.1-23.1-23.1C405.5,133.5,395.1,143.8,395.1,156.6z
			 M402.6,156.6c0-8.6,7-15.6,15.6-15.6c8.6,0,15.6,7,15.6,15.6c0,8.6-7,15.6-15.6,15.6C409.6,172.2,402.6,165.2,402.6,156.6z
			 M353.1,221.9l1.6,7.1c0.3,1.3,1.6,2.1,2.9,1.9l3.1-0.7c1.2-0.3,2.2,0,2.6,0.8l0,0c1,1.8,2.1,3.4,3.5,4.9l0,0c0,0,0.5,1.3-0.2,2.4
			l-1.8,2.8c-0.7,1.1-0.4,2.7,0.8,3.4l6.1,3.9c1.1,0.7,2.7,0.4,3.4-0.8l1.7-2.7c0.6-1,1.5-1.5,2.4-1.3l0,0c1.9,0.6,3.9,0.9,5.9,1
			l0,0c0,0,1.3,0.5,1.6,1.9l0.7,3.2c0.3,1.3,1.6,2.1,2.9,1.9l7.1-1.6c1.3-0.3,2.1-1.6,1.9-2.9l-0.7-3.1c-0.3-1.2,0-2.2,0.8-2.6l0,0
			c1.8-1,3.4-2.1,4.9-3.5l0,0c0,0,1.3-0.5,2.4,0.2l2.8,1.8c1.1,0.7,2.7,0.4,3.4-0.8l3.9-6.1c0.7-1.1,0.4-2.7-0.8-3.4l-2.7-1.7
			c-1-0.6-1.5-1.5-1.3-2.4l0,0c0.6-1.9,0.9-3.9,1-5.9l0,0c0,0,0.5-1.3,1.9-1.6l3.2-0.7c1.3-0.3,2.1-1.6,1.9-2.9l-1.6-7.1
			c-0.3-1.3-1.6-2.1-2.9-1.9l-3.1,0.7c-1.2,0.3-2.2,0-2.6-0.8l0,0c-1-1.8-2.1-3.4-3.5-4.9l0,0c0,0-0.5-1.3,0.2-2.4l1.8-2.8
			c0.7-1.1,0.4-2.7-0.8-3.4l-6.1-3.9c-1.1-0.7-2.7-0.4-3.4,0.8l-1.7,2.7c-0.6,1-1.5,1.5-2.4,1.3l0,0c-1.9-0.6-3.9-0.9-5.9-1l0,0
			c0,0-1.3-0.5-1.6-1.9l-0.7-3.2c-0.3-1.3-1.6-2.1-2.9-1.9l-7.1,1.6c-1.3,0.3-2.1,1.6-1.9,2.9l0.7,3.1c0.3,1.2,0,2.2-0.8,2.6l0,0
			c-1.8,1-3.4,2.1-4.9,3.5l0,0c0,0-1.3,0.5-2.4-0.2l-2.8-1.8c-1.1-0.7-2.7-0.4-3.4,0.8l-3.9,6.1c-0.7,1.1-0.4,2.7,0.8,3.4l2.7,1.7
			c1,0.6,1.5,1.5,1.3,2.4l0,0c-0.6,1.9-0.9,3.9-1,5.9l0,0c0,0-0.5,1.3-1.9,1.6l-3.2,0.7C353.6,219.3,352.8,220.6,353.1,221.9z
			 M364.3,223.1c-2.7-12.2,4.9-24.3,17.1-27.1c12.2-2.7,24.3,4.9,27.1,17.1c2.7,12.2-4.9,24.3-17.1,27.1S367.1,235.3,364.3,223.1z
			 M367.2,222.5c2.4,10.6,12.9,17.3,23.6,14.9c10.6-2.4,17.3-12.9,14.9-23.6c-2.4-10.6-12.9-17.3-23.6-14.9
			C371.5,201.3,364.8,211.8,367.2,222.5z M373.4,221.1c-1.6-7.2,2.9-14.3,10.1-16c7.2-1.6,14.3,2.9,16,10.1s-2.9,14.3-10.1,16
			C382.2,232.8,375,228.3,373.4,221.1z"/>
	</g>
	<g>
		<g>
			<rect x="404.1" y="205.1" class="st1" width="150" height="243.9"/>
			<g>
				<g>
					<g>
						<rect x="498" y="291.7" class="st2" width="39" height="4.2"/>
						<g>
							<rect x="481.8" y="298.2" class="st3" width="44.2" height="3.3"/>
							<rect x="456.2" y="298.2" class="st4" width="21.2" height="3.3"/>
							<rect x="501.3" y="303.8" class="st5" width="24.7" height="3.3"/>
							<rect x="487" y="303.8" class="st4" width="9.9" height="3.3"/>
							<rect x="455.8" y="303.7" class="st4" width="26.5" height="3.3"/>
							<rect x="433.5" y="303.7" class="st6" width="20.2" height="3.3"/>
							<rect x="506" y="315.1" class="st4" width="20.2" height="3.3"/>
							<rect x="483.4" y="315.1" class="st6" width="20.2" height="3.3"/>
							<rect x="464.7" y="315.1" class="st4" width="16.6" height="3.3"/>
							<rect x="493" y="309.3" class="st5" width="33" height="3.3"/>
							<rect x="447.2" y="309.3" class="st7" width="42" height="3.3"/>
						</g>
					</g>
					<g>
						<rect x="497.9" y="326.1" class="st2" width="39" height="4.2"/>
						<g>
							<rect x="481.8" y="332.6" class="st3" width="44.2" height="3.3"/>
							<rect x="456.2" y="332.6" class="st4" width="21.2" height="3.3"/>
							<rect x="501.3" y="338.2" class="st4" width="24.7" height="3.3"/>
							<rect x="487" y="338.1" class="st4" width="9.9" height="3.3"/>
							<rect x="455.8" y="338.1" class="st4" width="26.5" height="3.3"/>
							<rect x="433.4" y="338.1" class="st6" width="20.2" height="3.3"/>
							<rect x="493" y="343.7" class="st6" width="33" height="3.3"/>
						</g>
					</g>
					<g>
						<g>
							<rect x="521.7" y="234" class="st2" width="15.3" height="4.2"/>
							<rect x="491.8" y="234" class="st5" width="27" height="4.2"/>
							<g>
								<rect x="493.1" y="240.6" class="st3" width="33" height="3.3"/>
								<rect x="456.3" y="240.5" class="st4" width="33" height="3.3"/>
								<rect x="511" y="246.1" class="st5" width="15.1" height="3.3"/>
								<rect x="487.1" y="246.1" class="st4" width="18.6" height="3.3"/>
								<rect x="455.9" y="246.1" class="st4" width="29.1" height="3.3"/>
								<rect x="433.5" y="246" class="st6" width="20.2" height="3.3"/>
								<rect x="506.1" y="257.5" class="st4" width="20.2" height="3.3"/>
								<rect x="483.5" y="257.4" class="st6" width="20.2" height="3.3"/>
								<rect x="444.7" y="257.4" class="st4" width="36.6" height="3.3"/>
								<rect x="493.1" y="251.6" class="st5" width="33" height="3.3"/>
								<rect x="456.3" y="251.6" class="st7" width="33" height="3.3"/>
							</g>
						</g>
						<g>
							<rect x="493.1" y="264.5" class="st3" width="33" height="3.3"/>
							<rect x="456.3" y="264.4" class="st4" width="33" height="3.3"/>
							<rect x="511" y="270" class="st6" width="15.1" height="3.3"/>
							<rect x="487.1" y="270" class="st4" width="18.6" height="3.3"/>
							<rect x="455.9" y="270" class="st4" width="29.1" height="3.3"/>
							<rect x="433.5" y="270" class="st7" width="20.2" height="3.3"/>
							<rect x="506.1" y="281.4" class="st4" width="20.2" height="3.3"/>
							<rect x="483.5" y="281.4" class="st4" width="20.2" height="3.3"/>
							<rect x="444.7" y="281.3" class="st7" width="36.6" height="3.3"/>
							<rect x="493" y="275.5" class="st4" width="33" height="3.3"/>
							<rect x="456.2" y="275.5" class="st4" width="33" height="3.3"/>
						</g>
					</g>
				</g>
				<g>
					<g>
						<rect x="481.1" y="406.1" class="st2" width="39" height="4.2"/>
						<g>
							<rect x="465" y="412.6" class="st3" width="44.2" height="3.3"/>
							<rect x="439.4" y="412.6" class="st4" width="21.2" height="3.3"/>
							<rect x="484.5" y="418.2" class="st5" width="24.7" height="3.3"/>
							<rect x="470.2" y="418.1" class="st4" width="9.9" height="3.3"/>
							<rect x="439" y="418.1" class="st4" width="26.5" height="3.3"/>
							<rect x="416.6" y="418.1" class="st6" width="20.2" height="3.3"/>
							<rect x="489.2" y="429.5" class="st4" width="20.2" height="3.3"/>
							<rect x="466.6" y="429.5" class="st6" width="20.2" height="3.3"/>
							<rect x="447.8" y="429.5" class="st4" width="16.6" height="3.3"/>
							<rect x="476.2" y="423.7" class="st5" width="33" height="3.3"/>
							<rect x="430.4" y="423.6" class="st7" width="42" height="3.3"/>
						</g>
					</g>
					<g>
						<g>
							<g>
								<rect x="476.2" y="354.9" class="st3" width="33" height="3.3"/>
								<rect x="439.4" y="354.9" class="st4" width="33" height="3.3"/>
								<rect x="494.2" y="360.5" class="st5" width="15.1" height="3.3"/>
								<rect x="470.3" y="360.5" class="st4" width="18.6" height="3.3"/>
								<rect x="439" y="360.4" class="st4" width="29.1" height="3.3"/>
								<rect x="416.7" y="360.4" class="st6" width="20.2" height="3.3"/>
								<rect x="489.3" y="371.8" class="st4" width="20.2" height="3.3"/>
								<rect x="466.6" y="371.8" class="st6" width="20.2" height="3.3"/>
								<rect x="427.9" y="371.8" class="st4" width="36.6" height="3.3"/>
								<rect x="476.2" y="366" class="st5" width="33" height="3.3"/>
								<rect x="439.4" y="366" class="st7" width="33" height="3.3"/>
							</g>
						</g>
						<g>
							<rect x="476.2" y="378.8" class="st3" width="33" height="3.3"/>
							<rect x="439.4" y="378.8" class="st4" width="33" height="3.3"/>
							<rect x="494.2" y="384.4" class="st6" width="15.1" height="3.3"/>
							<rect x="470.2" y="384.4" class="st4" width="18.6" height="3.3"/>
							<rect x="439" y="384.3" class="st4" width="29.1" height="3.3"/>
							<rect x="416.7" y="384.3" class="st7" width="20.2" height="3.3"/>
							<rect x="489.2" y="395.7" class="st4" width="20.2" height="3.3"/>
							<rect x="466.6" y="395.7" class="st4" width="20.2" height="3.3"/>
							<rect x="427.8" y="395.7" class="st7" width="36.6" height="3.3"/>
							<rect x="476.2" y="389.9" class="st4" width="33" height="3.3"/>
							<rect x="439.4" y="389.9" class="st4" width="33" height="3.3"/>
						</g>
					</g>
				</g>
			</g>
			<rect x="404.2" y="205.1" class="st0" width="150" height="20.3"/>
			<rect x="404" y="439.7" class="st0" width="150" height="9.3"/>
		</g>
		<g class="st8">
			<polygon class="st6" points="554,449 554.2,205.1 404.2,205 			"/>
		</g>
	</g>
	<g>
		<g>
			<path class="st9" d="M745.3,400.5v6.4c0,1.2,1,2.2,2.2,2.2h2.8c1.1,0,1.9,0.4,2.1,1.2l0,0c0.5,1.7,1.2,3.4,2,4.9l0,0
				c0,0,0.2,1.2-0.6,2l-2.1,2.1c-0.8,0.8-0.8,2.2,0,3.1l4.5,4.5c0.8,0.8,2.2,0.8,3.1,0l2-2c0.7-0.7,1.6-1,2.3-0.6l0,0
				c1.5,0.8,3.2,1.5,4.9,2l0,0c0,0,1,0.7,1,1.9v2.9c0,1.2,1,2.2,2.2,2.2h6.4c1.2,0,2.2-1,2.2-2.2v-2.8c0-1.1,0.4-1.9,1.2-2.1l0,0
				c1.7-0.5,3.4-1.2,4.9-2l0,0c0,0,1.2-0.2,2,0.6l2.1,2.1c0.8,0.8,2.2,0.8,3.1,0l4.5-4.5c0.8-0.8,0.8-2.2,0-3.1l-2-2
				c-0.7-0.7-1-1.6-0.6-2.3l0,0c0.8-1.5,1.5-3.2,2-4.9l0,0c0,0,0.7-1,1.9-1h2.9c1.2,0,2.2-1,2.2-2.2v-6.4c0-1.2-1-2.2-2.2-2.2h-2.8
				c-1.1,0-1.9-0.4-2.1-1.2l0,0c-0.5-1.7-1.2-3.4-2-4.9l0,0c0,0-0.2-1.2,0.6-2l2.1-2.1c0.8-0.8,0.8-2.2,0-3.1l-4.5-4.5
				c-0.8-0.8-2.2-0.8-3.1,0l-2,2c-0.7,0.7-1.6,1-2.3,0.6l0,0c-1.5-0.8-3.2-1.5-4.9-2l0,0c0,0-1-0.7-1-1.9v-2.9c0-1.2-1-2.2-2.2-2.2
				h-6.4c-1.2,0-2.2,1-2.2,2.2v2.8c0,1.1-0.4,1.9-1.2,2.1l0,0c-1.7,0.5-3.4,1.2-4.9,2l0,0c0,0-1.2,0.2-2-0.6l-2.1-2.1
				c-0.8-0.8-2.2-0.8-3.1,0l-4.5,4.5c-0.8,0.8-0.8,2.2,0,3.1l2,2c0.7,0.7,1,1.6,0.6,2.3l0,0c-0.8,1.5-1.5,3.2-2,4.9l0,0
				c0,0-0.7,1-1.9,1h-2.9C746.3,398.4,745.3,399.3,745.3,400.5z M754.8,403.7c0-11,9-20,20-20c11,0,20,9,20,20s-9,20-20,20
				C763.8,423.7,754.8,414.8,754.8,403.7z M757.4,403.7c0,9.6,7.8,17.4,17.4,17.4c9.6,0,17.4-7.8,17.4-17.4
				c0-9.6-7.8-17.4-17.4-17.4C765.2,386.3,757.4,394.1,757.4,403.7z M763,403.7c0-6.5,5.3-11.8,11.8-11.8c6.5,0,11.8,5.3,11.8,11.8
				c0,6.5-5.3,11.8-11.8,11.8C768.3,415.5,763,410.2,763,403.7z"/>
		</g>
		<g>
			<path class="st9" d="M583.4,401.1v6.4c0,1.2,1,2.2,2.2,2.2h2.8c1.1,0,1.9,0.4,2.1,1.2l0,0c0.5,1.7,1.2,3.4,2,4.9l0,0
				c0,0,0.2,1.2-0.6,2l-2.1,2.1c-0.8,0.8-0.8,2.2,0,3.1l4.5,4.5c0.8,0.8,2.2,0.8,3.1,0l2-2c0.7-0.7,1.6-1,2.3-0.6l0,0
				c1.5,0.8,3.2,1.5,4.9,2l0,0c0,0,1,0.7,1,1.9v2.9c0,1.2,1,2.2,2.2,2.2h6.4c1.2,0,2.2-1,2.2-2.2v-2.8c0-1.1,0.4-1.9,1.2-2.1l0,0
				c1.7-0.5,3.4-1.2,4.9-2l0,0c0,0,1.2-0.2,2,0.6l2.1,2.1c0.8,0.8,2.2,0.8,3.1,0l4.5-4.5c0.8-0.8,0.8-2.2,0-3.1l-2-2
				c-0.7-0.7-1-1.6-0.6-2.3l0,0c0.8-1.5,1.5-3.2,2-4.9l0,0c0,0,0.7-1,1.9-1h2.9c1.2,0,2.2-1,2.2-2.2v-6.4c0-1.2-1-2.2-2.2-2.2h-2.8
				c-1.1,0-1.9-0.4-2.1-1.2l0,0c-0.5-1.7-1.2-3.4-2-4.9l0,0c0,0-0.2-1.2,0.6-2l2.1-2.1c0.8-0.8,0.8-2.2,0-3.1l-4.5-4.5
				c-0.8-0.8-2.2-0.8-3.1,0l-2,2c-0.7,0.7-1.6,1-2.3,0.6l0,0c-1.5-0.8-3.2-1.5-4.9-2l0,0c0,0-1-0.7-1-1.9V377c0-1.2-1-2.2-2.2-2.2
				h-6.4c-1.2,0-2.2,1-2.2,2.2v2.8c0,1.1-0.4,1.9-1.2,2.1l0,0c-1.7,0.5-3.4,1.2-4.9,2l0,0c0,0-1.2,0.2-2-0.6l-2.1-2.1
				c-0.8-0.8-2.2-0.8-3.1,0l-4.5,4.5c-0.8,0.8-0.8,2.2,0,3.1l2,2c0.7,0.7,1,1.6,0.6,2.3l0,0c-0.8,1.5-1.5,3.2-2,4.9l0,0
				c0,0-0.7,1-1.9,1l-2.9,0C584.3,398.9,583.4,399.9,583.4,401.1z M592.8,404.3c0-11,9-20,20-20c11,0,20,9,20,20c0,11-9,20-20,20
				S592.8,415.4,592.8,404.3z M595.4,404.3c0,9.6,7.8,17.4,17.4,17.4s17.4-7.8,17.4-17.4c0-9.6-7.8-17.4-17.4-17.4
				C603.2,386.9,595.4,394.7,595.4,404.3z M601,404.3c0-6.5,5.3-11.8,11.8-11.8c6.5,0,11.8,5.3,11.8,11.8c0,6.5-5.3,11.8-11.8,11.8
				S601,410.8,601,404.3z"/>
		</g>
		<path class="st10" d="M574,404c0,22.3,18.1,40.4,40.4,40.4H770h4.1h0.6v0c22-0.3,39.8-18.3,39.8-40.4c0-22.1-17.8-40-39.8-40.4v0
			h-0.6H770H614.4C592.1,363.6,574,381.7,574,404z M579.7,410.8c-0.4-2.2-0.7-4.5-0.7-6.8c0-2.1,0.2-4.1,0.5-6.1c0.3,0,0.7,0,1,0.1
			l3.2,1c1.3,0.4,2.7-0.3,3.1-1.6l2.2-7c0.4-1.3-0.3-2.7-1.6-3.1l-3-1c-0.2-0.1-0.4-0.2-0.6-0.2c2.7-4.6,6.4-8.5,10.9-11.5
			c0.1,0.1,0.3,0.3,0.4,0.5l1.6,2.9c0.7,1.2,2.2,1.6,3.4,1l6.4-3.6c1.2-0.7,1.6-2.2,1-3.4l-1.3-2.4c2.6-0.6,5.4-1,8.2-1h7.9
			c0.3,0.3,1,1,1,2v3.4c0,1.4,1.1,2.5,2.5,2.5h7.4c1.4,0,2.5-1.1,2.5-2.5v-3.2c0-1,0.3-1.8,0.9-2.2h11.7c0.3,0.3,1,1,1,2v3.4
			c0,1.4,1.1,2.5,2.5,2.5h7.4c1.4,0,2.5-1.1,2.5-2.5v-3.2c0-1,0.3-1.8,0.9-2.2h11.7c0.3,0.3,1,1,1,2v3.4c0,1.4,1.1,2.5,2.5,2.5h7.4
			c1.4,0,2.5-1.1,2.5-2.5v-3.2c0-1,0.3-1.8,0.9-2.2H700c0.3,0.3,1,1,1,2v3.4c0,1.4,1.1,2.5,2.5,2.5h7.4c1.4,0,2.5-1.1,2.5-2.5v-3.2
			c0-1,0.3-1.8,0.9-2.2H726c0.3,0.3,1,1,1,2v3.4c0,1.4,1.1,2.5,2.5,2.5h7.4c1.4,0,2.5-1.1,2.5-2.5v-3.2c0-1,0.3-1.8,0.9-2.2h11.7
			c0.3,0.3,1,1,1,2v3.4c0,1.4,1.1,2.5,2.5,2.5h7.4c1.4,0,2.5-1.1,2.5-2.5v-3.2c0-1,0.3-1.8,0.9-2.2h3.9h4.1c2.8,0,5.6,0.3,8.2,1
			l-1.3,2.4c-0.7,1.2-0.2,2.7,1,3.4l6.4,3.6c1.2,0.7,2.7,0.2,3.4-1l1.6-2.9c0.1-0.2,0.2-0.4,0.4-0.5c4.4,3,8.2,6.9,10.9,11.5
			c-0.2,0.1-0.4,0.2-0.6,0.2l-3,1c-1.3,0.4-2,1.8-1.6,3.1l2.2,7c0.4,1.3,1.8,2,3.1,1.6l3.2-1c0.4-0.1,0.7-0.1,1-0.1
			c0.3,2,0.5,4,0.5,6.1c0,2.3-0.2,4.6-0.7,6.8c-0.3,0-0.6,0-0.9-0.1l-3.2-1c-1.3-0.4-2.7,0.3-3.1,1.6l-2.2,7
			c-0.4,1.3,0.3,2.7,1.6,3.1l3,1c0.1,0,0.2,0.1,0.2,0.1c-2.5,4.1-5.8,7.6-9.7,10.4c-0.3-0.2-0.6-0.5-0.8-0.9l-1.6-2.9
			c-0.7-1.2-2.2-1.6-3.4-1l-6.4,3.6c-1.2,0.7-1.6,2.2-1,3.4l1.6,2.8c0.1,0.1,0.1,0.2,0.2,0.3c-2.8,0.7-5.8,1.1-8.9,1.1H770h-5.5
			c-0.2-0.4-0.3-0.9-0.3-1.4v-3.2c0-1.4-1.1-2.5-2.5-2.5h-7.4c-1.4,0-2.5,1.1-2.5,2.5v3.4c0,0.5-0.2,0.9-0.4,1.3h-12.9
			c-0.2-0.4-0.3-0.9-0.3-1.4v-3.2c0-1.4-1.1-2.5-2.5-2.5h-7.4c-1.4,0-2.5,1.1-2.5,2.5v3.4c0,0.5-0.2,0.9-0.4,1.3h-12.9
			c-0.2-0.4-0.3-0.9-0.3-1.4v-3.2c0-1.4-1.1-2.5-2.5-2.5h-7.4c-1.4,0-2.5,1.1-2.5,2.5v3.4c0,0.5-0.2,0.9-0.4,1.3h-12.9
			c-0.2-0.4-0.3-0.9-0.3-1.4v-3.2c0-1.4-1.1-2.5-2.5-2.5h-7.4c-1.4,0-2.5,1.1-2.5,2.5v3.4c0,0.5-0.2,0.9-0.4,1.3h-12.9
			c-0.2-0.4-0.3-0.9-0.3-1.4v-3.2c0-1.4-1.1-2.5-2.5-2.5h-7.4c-1.4,0-2.5,1.1-2.5,2.5v3.4c0,0.5-0.2,0.9-0.4,1.3h-12.9
			c-0.2-0.4-0.3-0.9-0.3-1.4v-3.2c0-1.4-1.1-2.5-2.5-2.5h-7.4c-1.4,0-2.5,1.1-2.5,2.5v3.4c0,0.5-0.2,0.9-0.4,1.3h-7.5
			c-3.1,0-6.1-0.4-8.9-1.1c0-0.1,0.1-0.2,0.2-0.3l1.6-2.8c0.7-1.2,0.2-2.7-1-3.4l-6.4-3.6c-1.2-0.7-2.7-0.2-3.4,1l-1.6,2.9
			c-0.2,0.4-0.5,0.7-0.8,0.9c-3.9-2.8-7.2-6.3-9.7-10.4c0.1,0,0.2-0.1,0.2-0.1l3-1c1.3-0.4,2-1.8,1.6-3.1l-2.2-7
			c-0.4-1.3-1.8-2-3.1-1.6l-3.2,1C580.2,410.8,579.9,410.8,579.7,410.8z"/>
	</g>
	<g>
		<g>
			<path class="st9" d="M587.6,487.6v6.4c0,1.2,1,2.2,2.2,2.2h2.8c1.1,0,1.9,0.4,2.1,1.2l0,0c0.5,1.7,1.2,3.4,2,4.9l0,0
				c0,0,0.2,1.2-0.6,2l-2.1,2.1c-0.8,0.8-0.8,2.2,0,3.1l4.5,4.5c0.8,0.8,2.2,0.8,3.1,0l2-2c0.7-0.7,1.6-1,2.3-0.6l0,0
				c1.5,0.8,3.2,1.5,4.9,2l0,0c0,0,1,0.7,1,1.9v2.9c0,1.2,1,2.2,2.2,2.2h6.4c1.2,0,2.2-1,2.2-2.2v-2.8c0-1.1,0.4-1.9,1.2-2.1l0,0
				c1.7-0.5,3.4-1.2,4.9-2l0,0c0,0,1.2-0.2,2,0.6l2.1,2.1c0.8,0.8,2.2,0.8,3.1,0l4.5-4.5c0.8-0.8,0.8-2.2,0-3.1l-2-2
				c-0.7-0.7-1-1.6-0.6-2.3l0,0c0.8-1.5,1.5-3.2,2-4.9l0,0c0,0,0.7-1,1.9-1h2.9c1.2,0,2.2-1,2.2-2.2l0-6.4c0-1.2-1-2.2-2.2-2.2h-2.8
				c-1.1,0-1.9-0.4-2.1-1.2l0,0c-0.5-1.7-1.2-3.4-2-4.9l0,0c0,0-0.2-1.2,0.6-2l2.1-2.1c0.8-0.8,0.8-2.2,0-3.1l-4.5-4.5
				c-0.8-0.8-2.2-0.8-3.1,0l-2,2c-0.7,0.7-1.6,1-2.3,0.6l0,0c-1.5-0.8-3.2-1.5-4.9-2l0,0c0,0-1-0.7-1-1.9v-2.9c0-1.2-1-2.2-2.2-2.2
				h-6.4c-1.2,0-2.2,1-2.2,2.2v2.8c0,1.1-0.4,1.9-1.2,2.1l0,0c-1.7,0.5-3.4,1.2-4.9,2l0,0c0,0-1.2,0.2-2-0.6l-2.1-2.1
				c-0.8-0.8-2.2-0.8-3.1,0l-4.5,4.5c-0.8,0.8-0.8,2.2,0,3.1l2,2c0.7,0.7,1,1.6,0.6,2.3l0,0c-0.8,1.5-1.5,3.2-2,4.9l0,0
				c0,0-0.7,1-1.9,1h-2.9C588.6,485.5,587.6,486.4,587.6,487.6z M597,490.9c0-11,9-20,20-20c11,0,20,9,20,20s-9,20-20,20
				C606,510.9,597,501.9,597,490.9z M599.6,490.9c0,9.6,7.8,17.4,17.4,17.4c9.6,0,17.4-7.8,17.4-17.4s-7.8-17.4-17.4-17.4
				C607.4,473.4,599.6,481.2,599.6,490.9z M605.3,490.9c0-6.5,5.3-11.8,11.8-11.8s11.8,5.3,11.8,11.8s-5.3,11.8-11.8,11.8
				S605.3,497.4,605.3,490.9z"/>
		</g>
		<g>
			<path class="st9" d="M425.6,488.2v6.4c0,1.2,1,2.2,2.2,2.2h2.8c1.1,0,1.9,0.4,2.1,1.2l0,0c0.5,1.7,1.2,3.4,2,4.9l0,0
				c0,0,0.2,1.2-0.6,2l-2.1,2.1c-0.8,0.8-0.8,2.2,0,3.1l4.5,4.5c0.8,0.8,2.2,0.8,3.1,0l2-2c0.7-0.7,1.6-1,2.3-0.6l0,0
				c1.5,0.8,3.2,1.5,4.9,2l0,0c0,0,1,0.7,1,1.9v2.9c0,1.2,1,2.2,2.2,2.2h6.4c1.2,0,2.2-1,2.2-2.2V516c0-1.1,0.4-1.9,1.2-2.1l0,0
				c1.7-0.5,3.4-1.2,4.9-2l0,0c0,0,1.2-0.2,2,0.6l2.1,2.1c0.8,0.8,2.2,0.8,3.1,0l4.5-4.5c0.8-0.8,0.8-2.2,0-3.1l-2-2
				c-0.7-0.7-1-1.6-0.6-2.3l0,0c0.8-1.5,1.5-3.2,2-4.9l0,0c0,0,0.7-1,1.9-1h2.9c1.2,0,2.2-1,2.2-2.2v-6.4c0-1.2-1-2.2-2.2-2.2h-2.8
				c-1.1,0-1.9-0.4-2.1-1.2l0,0c-0.5-1.7-1.2-3.4-2-4.9l0,0c0,0-0.2-1.2,0.6-2l2.1-2.1c0.8-0.8,0.8-2.2,0-3.1l-4.5-4.5
				c-0.8-0.8-2.2-0.8-3.1,0l-2,2c-0.7,0.7-1.6,1-2.3,0.6l0,0c-1.5-0.8-3.2-1.5-4.9-2l0,0c0,0-1-0.7-1-1.9v-2.9c0-1.2-1-2.2-2.2-2.2
				h-6.4c-1.2,0-2.2,1-2.2,2.2v2.8c0,1.1-0.4,1.9-1.2,2.1l0,0c-1.7,0.5-3.4,1.2-4.9,2l0,0c0,0-1.2,0.2-2-0.6l-2.1-2.1
				c-0.8-0.8-2.2-0.8-3.1,0l-4.5,4.5c-0.8,0.8-0.8,2.2,0,3.1l2,2c0.7,0.7,1,1.6,0.6,2.3l0,0c-0.8,1.5-1.5,3.2-2,4.9l0,0
				c0,0-0.7,1-1.9,1l-2.9,0C426.6,486.1,425.6,487,425.6,488.2z M435.1,491.4c0-11,9-20,20-20c11,0,20,9,20,20c0,11-9,20-20,20
				C444,511.4,435.1,502.5,435.1,491.4z M437.7,491.4c0,9.6,7.8,17.4,17.4,17.4c9.6,0,17.4-7.8,17.4-17.4c0-9.6-7.8-17.4-17.4-17.4
				C445.5,474,437.7,481.8,437.7,491.4z M443.3,491.4c0-6.5,5.3-11.8,11.8-11.8c6.5,0,11.8,5.3,11.8,11.8c0,6.5-5.3,11.8-11.8,11.8
				C448.6,503.2,443.3,497.9,443.3,491.4z"/>
		</g>
		<g>
			<path class="st11" d="M416.3,491.1c0,22.3,18.1,40.4,40.4,40.4h155.6h4.1h0.6v0c22-0.3,39.8-18.3,39.8-40.4
				c0-22.1-17.8-40-39.8-40.4v0h-0.6h-4.1H456.6C434.4,450.7,416.3,468.8,416.3,491.1z M421.9,497.9c-0.4-2.2-0.7-4.5-0.7-6.8
				c0-2.1,0.2-4.1,0.5-6.1c0.3,0,0.7,0,1,0.1l3.2,1c1.3,0.4,2.7-0.3,3.1-1.6l2.2-7c0.4-1.3-0.3-2.7-1.6-3.1l-3-1
				c-0.2-0.1-0.4-0.2-0.6-0.2c2.7-4.6,6.4-8.5,10.9-11.5c0.1,0.1,0.3,0.3,0.4,0.5l1.6,2.9c0.7,1.2,2.2,1.6,3.4,1l6.4-3.6
				c1.2-0.7,1.6-2.2,1-3.4l-1.3-2.4c2.6-0.6,5.4-1,8.2-1h7.9c0.3,0.3,1,1,1,2v3.4c0,1.4,1.1,2.5,2.5,2.5h7.4c1.4,0,2.5-1.1,2.5-2.5
				v-3.2c0-1,0.3-1.8,0.9-2.2h11.7c0.3,0.3,1,1,1,2v3.4c0,1.4,1.1,2.5,2.5,2.5h7.4c1.4,0,2.5-1.1,2.5-2.5v-3.2c0-1,0.3-1.8,0.9-2.2
				h11.7c0.3,0.3,1,1,1,2v3.4c0,1.4,1.1,2.5,2.5,2.5h7.4c1.4,0,2.5-1.1,2.5-2.5v-3.2c0-1,0.3-1.8,0.9-2.2h11.7c0.3,0.3,1,1,1,2v3.4
				c0,1.4,1.1,2.5,2.5,2.5h7.4c1.4,0,2.5-1.1,2.5-2.5v-3.2c0-1,0.3-1.8,0.9-2.2h11.7c0.3,0.3,1,1,1,2v3.4c0,1.4,1.1,2.5,2.5,2.5h7.4
				c1.4,0,2.5-1.1,2.5-2.5v-3.2c0-1,0.3-1.8,0.9-2.2h11.7c0.3,0.3,1,1,1,2v3.4c0,1.4,1.1,2.5,2.5,2.5h7.4c1.4,0,2.5-1.1,2.5-2.5
				v-3.2c0-1,0.3-1.8,0.9-2.2h3.9h4.1c2.8,0,5.6,0.3,8.2,1l-1.3,2.4c-0.7,1.2-0.2,2.7,1,3.4l6.4,3.6c1.2,0.7,2.7,0.2,3.4-1l1.6-2.9
				c0.1-0.2,0.2-0.4,0.4-0.5c4.4,3,8.2,6.9,10.9,11.5c-0.2,0.1-0.4,0.2-0.6,0.2l-3,1c-1.3,0.4-2,1.8-1.6,3.1l2.2,7
				c0.4,1.3,1.8,2,3.1,1.6l3.2-1c0.4-0.1,0.7-0.1,1-0.1c0.3,2,0.5,4,0.5,6.1c0,2.3-0.2,4.6-0.7,6.8c-0.3,0-0.6,0-0.9-0.1l-3.2-1
				c-1.3-0.4-2.7,0.3-3.1,1.6l-2.2,7c-0.4,1.3,0.3,2.7,1.6,3.1l3,1c0.1,0,0.2,0.1,0.2,0.1c-2.5,4.1-5.8,7.6-9.7,10.4
				c-0.3-0.2-0.6-0.5-0.8-0.9l-1.6-2.9c-0.7-1.2-2.2-1.6-3.4-1l-6.4,3.6c-1.2,0.7-1.6,2.2-1,3.4l1.6,2.8c0.1,0.1,0.1,0.2,0.2,0.3
				c-2.8,0.7-5.8,1.1-8.9,1.1h-9.6c-0.2-0.4-0.3-0.9-0.3-1.4v-3.2c0-1.4-1.1-2.5-2.5-2.5h-7.4c-1.4,0-2.5,1.1-2.5,2.5v3.4
				c0,0.5-0.2,0.9-0.4,1.3h-12.9c-0.2-0.4-0.3-0.9-0.3-1.4v-3.2c0-1.4-1.1-2.5-2.5-2.5h-7.4c-1.4,0-2.5,1.1-2.5,2.5v3.4
				c0,0.5-0.2,0.9-0.4,1.3h-12.9c-0.2-0.4-0.3-0.9-0.3-1.4v-3.2c0-1.4-1.1-2.5-2.5-2.5h-7.4c-1.4,0-2.5,1.1-2.5,2.5v3.4
				c0,0.5-0.2,0.9-0.4,1.3H529c-0.2-0.4-0.3-0.9-0.3-1.4v-3.2c0-1.4-1.1-2.5-2.5-2.5h-7.4c-1.4,0-2.5,1.1-2.5,2.5v3.4
				c0,0.5-0.2,0.9-0.4,1.3H503c-0.2-0.4-0.3-0.9-0.3-1.4v-3.2c0-1.4-1.1-2.5-2.5-2.5h-7.4c-1.4,0-2.5,1.1-2.5,2.5v3.4
				c0,0.5-0.2,0.9-0.4,1.3h-12.9c-0.2-0.4-0.3-0.9-0.3-1.4v-3.2c0-1.4-1.1-2.5-2.5-2.5H467c-1.4,0-2.5,1.1-2.5,2.5v3.4
				c0,0.5-0.2,0.9-0.4,1.3h-7.5c-3.1,0-6.1-0.4-8.9-1.1c0-0.1,0.1-0.2,0.2-0.3l1.6-2.8c0.7-1.2,0.2-2.7-1-3.4l-6.4-3.6
				c-1.2-0.7-2.7-0.2-3.4,1l-1.6,2.9c-0.2,0.4-0.5,0.7-0.8,0.9c-3.9-2.8-7.2-6.3-9.7-10.4c0.1,0,0.2-0.1,0.2-0.1l3-1
				c1.3-0.4,2-1.8,1.6-3.1l-2.2-7c-0.4-1.3-1.8-2-3.1-1.6l-3.2,1C422.5,497.9,422.2,497.9,421.9,497.9z"/>
		</g>
	</g>
	<g>
		<path class="st12" d="M57.3,492.8c0,9.9,8,18,18,18h220.7c9.9,0,18-8,18-18V203c0-9.9-8-18-18-18H75.3c-9.9,0-18,8-18,18V492.8z"
			/>
		<g>
			<g>
				<g>
					<path class="st1" d="M50.5,151.6V551c0,13.6,11.1,24.7,24.7,24.7h220.7c13.6,0,24.7-11.1,24.7-24.7V151.6
						c0-13.6-11.1-24.7-24.7-24.7H75.3C61.6,126.9,50.5,138,50.5,151.6z M57.3,203c0-9.9,8-18,18-18h220.7c9.9,0,18,8,18,18v289.8
						c0,9.9-8,18-18,18H75.3c-9.9,0-18-8-18-18V203z"/>
				</g>
				<g>
					<path class="st13" d="M185.6,520.6c12.6,0,22.8,10.2,22.8,22.8c0,12.6-10.2,22.8-22.8,22.8c-12.6,0-22.8-10.2-22.8-22.8
						C162.8,530.8,173,520.6,185.6,520.6z M148.3,155.8c0,1.5,1.2,2.8,2.8,2.8h69c1.5,0,2.8-1.2,2.8-2.8l0,0c0-1.5-1.2-2.8-2.8-2.8
						h-69C149.6,153,148.3,154.3,148.3,155.8L148.3,155.8z"/>
				</g>
				<path class="st6" d="M185.6,561c9.7,0,17.6-7.9,17.6-17.6c0-9.7-7.9-17.6-17.6-17.6c-9.7,0-17.6,7.9-17.6,17.6
					C168,553.1,175.9,561,185.6,561z"/>
			</g>
			<g>
				<rect x="191.9" y="402.5" class="st14" width="94.3" height="94.3"/>
				<rect x="85.4" y="402.5" class="st15" width="94.3" height="94.3"/>
				<rect x="191.9" y="298.9" class="st16" width="94.3" height="94.3"/>
				<rect x="85.4" y="298.9" class="st17" width="94.3" height="94.3"/>
				<rect x="191.9" y="195.3" class="st18" width="94.3" height="94.3"/>
				<rect x="85.4" y="195.3" class="st10" width="94.3" height="94.3"/>
			</g>
			<g class="st19">
				<path class="st6" d="M312.8,561.7c2-3.3,3.1-7,3.1-11V151.4c0-11.6-9.4-21-21-21H74.2c-5.3,0-10.4,2-14.3,5.6L312.8,561.7z"/>
			</g>
		</g>
	</g>
	<g>
		<polygon class="st20" points="613.7,362 613.7,362 804,362 804,362 804,333.4 804,333.4 613.7,333.4 613.7,333.4 		"/>
		<rect x="649.9" y="337.5" class="st6" width="149" height="19.7"/>
		<path class="st6" d="M617.4,359c0.7,0.7,1.8,0.8,2.5,0.1l6.8-6.3c0.4-0.4,0.6-0.9,0.6-1.4l-0.2-0.2l1.2-1.1
			c0.2-0.2,0.3-0.4,0.3-0.6c3.1,2.8,7.8,2.8,10.9-0.1c3.3-3,3.5-8.2,0.4-11.4c-3-3.3-8.2-3.5-11.4-0.4c-3.1,2.9-3.4,7.7-0.9,10.9
			c-0.2,0-0.4,0.1-0.6,0.2l-1.2,1.1l-0.2-0.2c-0.5-0.1-1,0.1-1.4,0.5l-6.8,6.3C616.7,357.1,616.7,358.2,617.4,359z M629.1,348.1
			c-2.5-2.7-2.4-7,0.4-9.6c2.7-2.5,7-2.4,9.6,0.4c2.5,2.7,2.4,7-0.4,9.6S631.6,350.8,629.1,348.1z"/>
	</g>
	<g>
		<rect x="682.8" y="304.9" class="st10" width="92.7" height="28"/>
		<rect x="703.1" y="315.5" class="st6" width="55" height="8.8"/>
	</g>
	<g>
		<path class="st21" d="M235.9,348.5c0,0.3,0.2,0.5,0.5,0.5h105.2c0.3,0,0.5-0.2,0.5-0.5v-75.8c0-0.3-0.2-0.5-0.5-0.5H236.4
			c-0.3,0-0.5,0.2-0.5,0.5V348.5z"/>
		<rect x="237.8" y="273.6" class="st16" width="102.5" height="23.9"/>
		<g>
			<rect x="256.4" y="302" class="st22" width="64.9" height="13.3"/>
			<rect x="257.3" y="302.8" class="st6" width="63.5" height="11.6"/>
		</g>
		<g>
			<rect x="256.4" y="319.3" class="st22" width="64.9" height="13.3"/>
			<rect x="257.3" y="320.2" class="st6" width="63.5" height="11.6"/>
		</g>
		<circle class="st6" cx="326.7" cy="285.3" r="10.1"/>
		<rect x="269.8" y="276.7" class="st6" width="44.5" height="6.8"/>
		<rect x="284.8" y="286.5" class="st6" width="26.2" height="5.1"/>
		<g>
			<rect x="267.9" y="336.3" class="st22" width="42.1" height="9.8"/>
			<g>
				<rect x="291.7" y="337.9" class="st6" width="4.9" height="6.4"/>
				<rect x="285.6" y="337.9" class="st6" width="4.9" height="6.4"/>
				<rect x="282.1" y="337.9" class="st6" width="2.2" height="6.4"/>
			</g>
		</g>
		<g class="st19">
			<path class="st6" d="M341.6,349c0.3,0,0.5-0.2,0.5-0.5v-75.8c0-0.3-0.2-0.5-0.5-0.5H236.4c-0.3,0-0.5,0.2-0.5,0.5L341.6,349z"/>
		</g>
	</g>
	<g>
		<g>
			<g>
				<circle class="st18" cx="277.4" cy="117.9" r="14.8"/>
				<circle class="st21" cx="277.4" cy="117.9" r="11.3"/>
			</g>
			<g>
				<circle class="st18" cx="185.7" cy="117.9" r="14.8"/>
				<circle class="st21" cx="185.7" cy="117.9" r="11.3"/>
			</g>
			<g>
				<circle class="st18" cx="185.7" cy="543.1" r="14.8"/>
				<circle class="st22" cx="185.7" cy="543.1" r="13.2"/>
			</g>
			<path class="st22" d="M185.7,113.3c1.4,0,2.7,0.6,3.5,1.7h84.6c0.8-1,2.1-1.7,3.5-1.7c2.5,0,4.6,2.1,4.6,4.6s-2.1,4.6-4.6,4.6
				c-1.5,0-2.9-0.7-3.7-1.9h-84.3c-0.8,1.1-2.2,1.9-3.7,1.9c-2.5,0-4.6-2.1-4.6-4.6S183.2,113.3,185.7,113.3z"/>
			<path class="st22" d="M185.6,104.8c0,0,64,0.3,91.5,0.3c8.4,0,13.3,5.7,13.3,12.8c0,23.6-1.2,62.2-1.2,62.2s-3.1-0.5-2.4-0.5
				c0,0,2.1-13.1,2.1-61.7c0-6.2-5.1-11.3-11.3-11.3c-24.9,0-91.7,0-91.7,0c-6.2,0-11.3,5.1-11.3,11.3c0,0.2,0,425,0,425.2h-1.8
				c0-0.3,0-425.1,0-425.4C172.6,110.7,177.7,104.8,185.6,104.8z"/>
			<circle class="st21" cx="185.7" cy="543.1" r="7.5"/>
		</g>
		<g>
			<g>
				<path class="st21" d="M241.2,218.3l45.1-14.6l46.2,14.6l-38.9-38.9c-3.7-3.7-9.7-3.7-13.5,0L241.2,218.3z M282.3,184.6
					c0-2.6,2.1-4.7,4.7-4.7c2.6,0,4.7,2.1,4.7,4.7c0,2.6-2.1,4.7-4.7,4.7C284.4,189.2,282.3,187.1,282.3,184.6z"/>
			</g>
			<g>
				<g>
					<path class="st23" d="M291.5,189.1c38.9,15.2,80.5,53.8,71.4,77.1c-3.2,8.1-10.8,13.8-21.6,17l1-2.5c2-1.6,3.4-3.6,4.3-5.8
						c6.4-16.5-28.5-48.5-64.2-62.5C265.8,205.9,276.3,183.1,291.5,189.1z"/>
					<path class="st24" d="M346.5,279.2c7.3-3.2,12.3-7.9,14.6-13.7c3.9-9.9-2.4-24.3-17.3-39.5c-14.2-14.5-34-27.6-53-35.1
						c-6.6-2.6-12.1,1.2-14.1,6.2c-1,2.5-1,5.2-0.1,7.5c1,2.6,3.3,4.7,6.5,5.9c35.5,13.9,72.6,46.6,65.4,65
						C348,276.9,347.3,278.1,346.5,279.2z"/>
				</g>
				<g>
					<path class="st10" d="M281.4,189.2c14.9-6.8,26.6,15.4,10.4,22.8c-34.9,16-68,49.9-60.7,66c0.9,2,2.3,3.7,4.1,5.1l1.3,2.8
						c-10.7-2.7-18.5-7.9-22.1-15.7C204,247.4,243.4,206.6,281.4,189.2z"/>
					<path class="st22" d="M231.5,282.2c-0.9-1.1-1.6-2.2-2.2-3.5c-8.2-18,27-52.7,61.6-68.6c3.2-1.4,5.3-3.6,6.2-6.3
						c0.8-2.3,0.6-5-0.5-7.5c-2.3-4.9-7.9-8.4-14.4-5.4c-18.6,8.5-37.6,22.7-51,38c-14,16-19.5,30.7-15,40.4
						C218.8,275,224,279.4,231.5,282.2z"/>
				</g>
				<circle class="st18" cx="286.5" cy="200.8" r="10"/>
				<circle class="st21" cx="286.5" cy="200.8" r="8.9"/>
			</g>
		</g>
	</g>
	<g>
		<g>
			<g>
				<path class="st9" d="M354.9,361.2h-18.7c-2,0-3.5,1.6-3.5,3.5v152.8c0,2,1.6,3.5,3.5,3.5h18.7c2,0,3.5-1.6,3.5-3.5V500
					c31.5-1.2,56.6-27.1,56.6-58.8c0-31.8-25.1-57.6-56.6-58.8v-17.6C358.5,362.8,356.9,361.2,354.9,361.2z M358.5,474.5v-66.7
					c17.4,1.2,31.2,15.7,31.2,33.4S375.9,473.4,358.5,474.5z"/>
			</g>
			<path class="st11" d="M358.2,476.1c18.3-1.4,32.6-16.7,32.6-34.9c0-18.3-14.3-33.5-32.6-34.9v-16.8c13.3,0.7,25.6,6.3,34.9,15.8
				c9.4,9.7,14.6,22.5,14.6,36c0,13.5-5.2,26.3-14.6,36c-9.3,9.5-21.6,15.1-34.9,15.8V476.1z"/>
			<path class="st11" d="M338.8,521.1h-2.6c-2,0-3.5-1.6-3.5-3.5V364.7c0-2,1.6-3.5,3.5-3.5h2.6V521.1z"/>
			<path class="st11" d="M350.5,361.2h4.4c2,0,3.5,1.6,3.5,3.5v152.8c0,2-1.6,3.5-3.5,3.5h-4.4V361.2z"/>
		</g>
		<rect x="409.5" y="440.9" class="st6" width="5.6" height="0.7"/>
		
			<rect x="411" y="448" transform="matrix(0.1736 -0.9848 0.9848 0.1736 -103.9646 777.6794)" class="st6" width="0.7" height="5.6"/>
		
			<rect x="408.5" y="457.3" transform="matrix(0.342 -0.9397 0.9397 0.342 -163.2966 686.9415)" class="st6" width="0.7" height="5.6"/>
		<rect x="404.4" y="466" transform="matrix(0.5 -0.866 0.866 0.5 -203.6043 584.8745)" class="st6" width="0.7" height="5.6"/>
		
			<rect x="398.8" y="473.8" transform="matrix(0.6428 -0.766 0.766 0.6428 -222.5273 476.008)" class="st6" width="0.7" height="5.6"/>
		
			<rect x="392" y="480.6" transform="matrix(0.7661 -0.6427 0.6427 0.7661 -218.924 365.2333)" class="st6" width="0.7" height="5.6"/>
		
			<rect x="384.1" y="486.1" transform="matrix(0.8661 -0.4999 0.4999 0.8661 -192.9057 257.6323)" class="st6" width="0.7" height="5.6"/>
		
			<rect x="375.3" y="490.1" transform="matrix(0.9397 -0.342 0.342 0.9397 -145.9172 158.2017)" class="st6" width="0.7" height="5.6"/>
		
			<rect x="366" y="492.6" transform="matrix(0.9848 -0.1736 0.1736 0.9848 -80.4159 71.1092)" class="st6" width="0.7" height="5.6"/>
		
			<rect x="408.6" y="431.3" transform="matrix(0.9848 -0.1736 0.1736 0.9848 -68.6745 77.9557)" class="st6" width="5.6" height="0.7"/>
		
			<rect x="406.1" y="422" transform="matrix(0.9397 -0.342 0.342 0.9397 -119.7776 165.2675)" class="st6" width="5.6" height="0.7"/>
		<rect x="401.9" y="413.3" transform="matrix(0.866 -0.5 0.5 0.866 -152.6039 257.8)" class="st6" width="5.6" height="0.7"/>
		
			<rect x="396.4" y="405.5" transform="matrix(0.766 -0.6428 0.6428 0.766 -167.4517 351.5468)" class="st6" width="5.6" height="0.7"/>
		
			<rect x="389.5" y="398.7" transform="matrix(0.6428 -0.766 0.766 0.6428 -165.5241 443.0515)" class="st6" width="5.6" height="0.7"/>
		<rect x="381.6" y="393.2" transform="matrix(0.5 -0.866 0.866 0.5 -148.6081 529.6823)" class="st6" width="5.6" height="0.7"/>
		
			<rect x="372.9" y="389.2" transform="matrix(0.342 -0.9397 0.9397 0.342 -118.8357 609.3256)" class="st6" width="5.6" height="0.7"/>
		
			<rect x="363.6" y="386.7" transform="matrix(0.1736 -0.9848 0.9848 0.1736 -78.4243 680.6949)" class="st6" width="5.6" height="0.7"/>
		<g>
			<rect x="332.6" y="514.8" class="st6" width="5.5" height="0.7"/>
			<rect x="332.6" y="505" class="st6" width="5.5" height="0.7"/>
			<rect x="332.6" y="495.2" class="st6" width="5.5" height="0.7"/>
			<rect x="332.6" y="485.4" class="st6" width="5.5" height="0.7"/>
			<rect x="332.6" y="475.6" class="st6" width="5.5" height="0.7"/>
			<rect x="332.6" y="465.8" class="st6" width="5.5" height="0.7"/>
			<rect x="332.6" y="456" class="st6" width="5.5" height="0.7"/>
			<rect x="332.6" y="446.2" class="st6" width="5.5" height="0.7"/>
			<rect x="332.6" y="436.4" class="st6" width="5.5" height="0.7"/>
			<rect x="332.6" y="426.6" class="st6" width="5.5" height="0.7"/>
			<rect x="332.6" y="416.8" class="st6" width="5.5" height="0.7"/>
			<rect x="332.6" y="407" class="st6" width="5.5" height="0.7"/>
			<rect x="332.6" y="397.2" class="st6" width="5.5" height="0.7"/>
			<rect x="332.6" y="387.4" class="st6" width="5.5" height="0.7"/>
			<rect x="332.6" y="377.6" class="st6" width="5.5" height="0.7"/>
			<rect x="332.6" y="367.8" class="st6" width="5.5" height="0.7"/>
		</g>
		<g>
			<rect x="352.7" y="514.8" class="st6" width="5.5" height="0.7"/>
			<rect x="352.7" y="505" class="st6" width="5.5" height="0.7"/>
			<rect x="352.7" y="495.2" class="st6" width="5.5" height="0.7"/>
			<rect x="352.7" y="485.4" class="st6" width="5.5" height="0.7"/>
			<rect x="352.7" y="475.6" class="st6" width="5.5" height="0.7"/>
			<rect x="352.7" y="465.8" class="st6" width="5.5" height="0.7"/>
			<rect x="352.7" y="456" class="st6" width="5.5" height="0.7"/>
			<rect x="352.7" y="446.2" class="st6" width="5.5" height="0.7"/>
			<rect x="352.7" y="436.4" class="st6" width="5.5" height="0.7"/>
			<rect x="352.7" y="426.6" class="st6" width="5.5" height="0.7"/>
			<rect x="352.7" y="416.8" class="st6" width="5.5" height="0.7"/>
			<rect x="352.7" y="407" class="st6" width="5.5" height="0.7"/>
			<rect x="352.7" y="397.2" class="st6" width="5.5" height="0.7"/>
			<rect x="352.7" y="387.4" class="st6" width="5.5" height="0.7"/>
			<rect x="352.7" y="377.6" class="st6" width="5.5" height="0.7"/>
			<rect x="352.7" y="367.8" class="st6" width="5.5" height="0.7"/>
		</g>
	</g>
	<path class="st6" d="M105.3,482.2c2,1.8,5.1,1.5,6.8-0.5l16.3-18.7c1-1.1,1.3-2.6,1.1-3.9l-0.5-0.5l2.9-3.4c0.4-0.5,0.6-1,0.6-1.6
		c9,6.6,21.7,5.2,29.2-3.3c7.9-9.1,6.9-22.8-2.1-30.7c-9.1-7.9-22.8-6.9-30.7,2.1c-7.5,8.6-7,21.5,0.9,29.5
		c-0.6,0.1-1.1,0.3-1.5,0.8l-2.9,3.4l-0.5-0.5c-1.4,0-2.7,0.5-3.7,1.7l-16.3,18.7C103.1,477.4,103.3,480.4,105.3,482.2z
		 M133.4,449.7c-7.6-6.6-8.4-18.1-1.8-25.6c6.6-7.6,18.1-8.4,25.6-1.8c7.6,6.6,8.4,18.1,1.8,25.6C152.4,455.5,141,456.3,133.4,449.7
		z"/>
	<g>
		<path class="st9" d="M635.7,132.7l0.7-0.7c5.9-5.9,5.9-15.5,0-21.4l-15-15c10.4-2.8,22-0.1,30.1,8.1c8.6,8.6,11.1,21.1,7.5,32
			l64.1,64.1c10.9-3.6,23.3-1.1,32,7.5c8.2,8.2,10.8,19.7,8.1,30.1l-15-15c-5.9-5.9-15.5-5.9-21.4,0l-0.7,0.7
			c-5.9,5.9-5.9,15.5,0,21.4l15,15c-10.4,2.8-22,0.1-30.1-8.1c-8.6-8.6-11.1-21.1-7.5-32l-64.1-64.1c-10.9,3.6-23.3,1.1-32-7.5
			c-8.2-8.2-10.8-19.7-8.1-30.1l15,15C620.2,138.6,629.8,138.6,635.7,132.7z"/>
		<path class="st11" d="M635.7,132.7l90.5,90.5c-5.9,5.9-5.9,15.5,0,21.4l15,15c-10.4,2.8-22,0.1-30.1-8.1
			c-8.6-8.6-11.1-21.1-7.5-32l-64.1-64.1c-10.9,3.6-23.3,1.1-32-7.5c-8.2-8.2-10.8-19.7-8.1-30.1l15,15
			C620.2,138.6,629.8,138.6,635.7,132.7z"/>
		<path class="st25" d="M648.6,145.5c-1.7,1.7-1.7,4.4,0,6l58.6,58.6c1.7,1.7,4.4,1.7,6,0l0,0c1.7-1.7,1.7-4.4,0-6l-58.6-58.6
			C653,143.9,650.3,143.9,648.6,145.5L648.6,145.5z"/>
	</g>
	<g>
		<path class="st25" d="M738.3,115.7l-49.8,49.8c-1.7-0.1-3.4,0.5-4.6,1.8l-9.7,9.7c-2.2-0.6-4.3-0.4-5.6,0.9L638.4,208
			c-1.5,1.5-1.6,4.1-0.6,6.6l7.2,7.2c2.6,1.1,5.1,0.9,6.6-0.6l30.1-30.1c1.3-1.3,1.6-3.4,0.9-5.6l9.7-9.7c1.3-1.3,1.9-3,1.8-4.6
			l49.8-49.8c3.6,1.4,7.8,0.6,10.7-2.3l12.7-17.2l-9.6-9.6L740.5,105C737.6,107.9,736.9,112.1,738.3,115.7z"/>
		<path class="st9" d="M762.3,96.8l-4.5-4.5L740.5,105c-2.9,2.9-3.6,7.1-2.3,10.7l-49.8,49.8c-1.7-0.1-3.4,0.5-4.6,1.8l-9.7,9.7
			c-2.2-0.6-4.3-0.4-5.6,0.9L638.4,208c-1.5,1.5-1.6,4.1-0.6,6.6l3.3,3.3L762.3,96.8z"/>
		<path class="st23" d="M677.7,195.2L664.4,182c-2.6-0.1-5.3,0.9-7.3,2.9l-55.4,55.4c-3.9,3.9-3.9,10.2,0,14.1l3.4,3.4
			c3.9,3.9,10.2,3.9,14.1,0l55.4-55.4C676.7,200.5,677.7,197.8,677.7,195.2z"/>
		<path class="st24" d="M672.8,190.4l-6.5-6.5c-3.2-0.9-6.8-0.1-9.4,2.4L604.2,239c-3.7,3.7-3.7,9.7,0,13.5s9.7,3.7,13.5,0
			l52.7-52.7C672.9,197.2,673.7,193.6,672.8,190.4z"/>
		<path class="st22" d="M607.1,247.5c-1.1,1.1-3,1.1-4.1,0l0,0c-1.1-1.1-1.1-3,0-4.1l57.8-57.8c1.1-1.1,3-1.1,4.1,0l0,0
			c1.1,1.1,1.1,3,0,4.1L607.1,247.5z"/>
	</g>
</g>
</svg>
