<?xml version="1.0" encoding="utf-8"?>
<!-- Generator: Adobe Illustrator 19.2.0, SVG Export Plug-In . SVG Version: 6.00 Build 0)  -->
<svg version="1.1" id="Layer_1" xmlns="http://www.w3.org/2000/svg" xmlns:xlink="http://www.w3.org/1999/xlink" x="0px" y="0px"
	 viewBox="0 0 500 900" style="enable-background:new 0 0 500 900;" xml:space="preserve">
<style type="text/css">
	.st0{fill:#FFDBA8;}
	.st1{fill:#FCD99F;}
	.st2{fill:#F2BB78;}
	.st3{fill:#7EA5AE;}
	.st4{fill:#D2D3D4;}
	.st5{fill:#FFFFFF;}
	.st6{fill:#8D4920;}
	.st7{fill:#427B91;}
	.st8{fill:#95979A;}
	.st9{fill:#5B7387;}
	.st10{fill:#888A8C;}
	.st11{fill:#9CC1E6;}
	.st12{fill:#089FB9;}
	.st13{fill:#91C7D4;}
	.st14{fill:#414E56;}
	.st15{fill:#8C949B;}
	.st16{fill:#010101;}
	.st17{fill:#313B42;}
	.st18{fill:#5EB8BC;}
	.st19{fill:#FED6B7;}
	.st20{fill:#DCB7A2;}
</style>
<g>
	<path class="st0" d="M200.8,158.3c0.3,7.9,2.3,14.2,4.5,14.1c2.2-0.1,3.7-6.5,3.4-14.4c-0.3-7.9-2.3-14.2-4.5-14.1
		C202,143.9,200.5,150.4,200.8,158.3z"/>
	<path class="st0" d="M279.3,158.3c-0.3,7.9-2.3,14.2-4.5,14.1c-2.2-0.1-3.7-6.5-3.4-14.4c0.3-7.9,2.4-14.2,4.5-14.1
		C278.1,143.9,279.6,150.4,279.3,158.3z"/>
	<rect x="218.1" y="191.9" class="st1" width="43.9" height="35"/>
	<path class="st2" d="M218.1,194.1c6.2,8,13.8,12.6,21.9,12.6c8.2,0,15.7-4.7,21.9-12.6V192h-43.9V194.1z"/>
	<path class="st0" d="M275.4,156c0,25.3-15.8,45.9-35.3,45.9c-19.5,0-35.3-20.5-35.3-45.9c0-13.2,1.7-31.6,8.5-39.9
		c6.3-7.7,17.4-5.9,26.7-5.9c9,0,18.6,0,24.9,7.2C272.2,125.7,275.4,142.4,275.4,156z"/>
	<path class="st3" d="M318.5,248.6c-1.1-4.4-4.1-8.1-8.2-10.1l-47.6-23.2c-5.6,4.9-13.6,8-22.6,8c-9,0-17.1-3.1-22.6-8l-47,23.3
		c-4,2-7,5.6-8.1,10l-5.2,20.3c-1,4-0.4,8.3,1.8,11.8c2.2,3.5,5.7,6,9.8,6.9c13.4,3,36.2,6.3,71.2,6.3c35.3,0,58.4-3.4,71.8-6.4
		c4-0.9,7.5-3.4,9.7-6.9c2.2-3.5,2.9-7.8,1.9-11.8L318.5,248.6z"/>
	<polygon class="st4" points="262.7,215.3 272.3,240.3 255,254 258.2,272.4 240.4,280.2 	"/>
	<polygon class="st4" points="217.5,215.2 208.4,240.3 225.7,254 222.5,272.4 240.4,280.2 	"/>
	<path class="st5" d="M217.5,215.2c0,0,20.5,17.7,45.2,0l-22.4,64.9L217.5,215.2z"/>
	<path class="st6" d="M275.4,108.9c-5.4-9.4-22.2-15.9-33-15.9c-10.8,0-32.2,5.1-37.6,14.5c-5.4,9.4-4.2,39.8,0.1,44.8l7-3.4
		c0,0-3.9-19.7,3.7-30l6.2,7.1l41.8-7.5l4.8,9.4c5.8,11.2,1,20.6,1,20.6l5.9,3.7C279.7,147.3,280.8,118.2,275.4,108.9z"/>
	<polygon class="st7" points="248.2,222.1 240.8,223.1 233.1,222.4 239.8,231.8 233.1,261.6 240.4,282.1 248,261.6 241.7,231.8 	"/>
	<g>
		<path class="st8" d="M288.3,149.2l0.1-1c0.3-2.8-1.6-5.3-4.5-6.4c0.2-1.9,2.8-23.6-10.1-38.4c-7.6-8.8-19.1-13.3-34-13.3
			c-14.5,0-25.6,4.4-33,13c-12.9,14.8-10.3,36.8-10,38.8c-2.9,1-4.8,3.6-4.5,6.4l0.1,1c-1.8,0.5-3,2-2.8,3.7l1.1,10.8
			c0.2,1.6,1.6,2.9,3.5,3l0.1,0.5c0.3,3.4,3.8,5.8,7.8,5.4c4-0.4,6.9-3.5,6.5-6.8l-1.9-19c-0.3-2.8-2.8-5-5.9-5.3l0.1,0
			c0-0.2-2.9-21.9,9.1-35.7c6.7-7.7,16.7-11.5,30-11.5c13.7,0,24.1,4,31,11.9c12,13.8,9.2,35.2,9.1,35.4l0.1,0
			c-3.1,0.4-5.6,2.5-5.9,5.3l-1.9,19c-0.2,2.2,0.9,4.3,2.9,5.5c-0.8,1.5-2.5,4.1-5.5,6.7c-6.1,5.3-15,8.3-25.8,8.8l0.2,4
			c14.9-0.6,23.7-5.7,28.4-9.9c3.7-3.3,5.7-6.5,6.5-8.2c3.9,0.3,7.2-2.1,7.6-5.4l0.1-0.5c1.8-0.2,3.3-1.4,3.5-3l1.1-10.8
			C291.3,151.3,290.1,149.8,288.3,149.2z"/>
		<circle class="st9" cx="243.9" cy="188.2" r="4.3"/>
	</g>
</g>
<g>
	<g>
		<path class="st10" d="M151.1,55.9L142,65l6.7,11.1l12.3-3.9c1,0.6,2,1.2,3,1.7l3.3,12.5l12.9-0.2l2.7-12.6c1-0.5,2-1.1,3-1.8
			l12.5,3.3l6.3-11.3l-9.6-8.7c0-0.6,0-1.1,0-1.7c0-0.6,0-1.2-0.1-1.7l9.1-9.1l-6.7-11.1l-12.3,3.9c-1-0.6-2-1.2-3-1.7l-3.3-12.5
			L166,21.3l-2.7,12.6c-1,0.5-2,1.1-3,1.8l-12.5-3.3l-6.3,11.3l9.6,8.7c0,0.6,0,1.1,0,1.7C151,54.7,151.1,55.3,151.1,55.9z M159,54
			c-0.1-7.8,6.1-14.3,13.9-14.4c7.8-0.1,14.3,6.1,14.4,13.9c0.1,7.8-6.1,14.3-13.9,14.4C165.6,68,159.1,61.8,159,54z"/>
		
			<ellipse transform="matrix(0.9998 -1.837473e-002 1.837473e-002 0.9998 -0.9579 3.1863)" class="st10" cx="172.9" cy="53.7" rx="6" ry="6"/>
	</g>
	<g>
		<path class="st10" d="M123.5,94.5l-6.2,6.2l4.5,7.5l8.4-2.7c0.7,0.4,1.3,0.8,2.1,1.1l2.3,8.5l8.8-0.2l1.9-8.6
			c0.7-0.4,1.4-0.8,2-1.2l8.5,2.3l4.3-7.7l-6.5-5.9c0-0.4,0-0.8,0-1.2c0-0.4,0-0.8-0.1-1.2l6.2-6.2l-4.5-7.5l-8.3,2.7
			c-0.7-0.4-1.3-0.8-2.1-1.1l-2.3-8.5l-8.8,0.2l-1.9,8.6c-0.7,0.4-1.4,0.8-2,1.2l-8.5-2.3l-4.3,7.7l6.5,5.9c0,0.4,0,0.8,0,1.2
			C123.4,93.7,123.5,94.1,123.5,94.5z M128.8,93.2c-0.1-5.3,4.1-9.7,9.4-9.8c5.3-0.1,9.7,4.1,9.8,9.4c0.1,5.3-4.1,9.7-9.4,9.8
			C133.3,102.7,128.9,98.5,128.8,93.2z"/>
		
			<ellipse transform="matrix(0.9998 -1.838853e-002 1.838853e-002 0.9998 -1.6869 2.5585)" class="st10" cx="138.3" cy="93" rx="4.1" ry="4.1"/>
	</g>
</g>
<g>
	<path class="st11" d="M340.3,307.5c0.5-1.5,0.8-3.2,0.8-4.9c0-8.9-7.2-16.1-16.1-16.1c-3.4,0-6.5,1-9.1,2.8
		c-2.6-5.4-8.1-9.1-14.5-9.1c-8.9,0-16.1,7.2-16.1,16.1c0,0,0,0.1,0,0.1c-0.6-0.1-1.3-0.1-2-0.1c-7.9,0-14.5,5.8-15.9,13.3
		c-2.3,2-3.7,4.9-3.7,8.1c0,5.9,4.8,10.8,10.8,10.8c0.5,0,1,0,1.4-0.1h5.6c0.6,0.1,1.2,0.1,1.8,0.1c0.6,0,1.2,0,1.8-0.1h51.3
		c0,0,0.1,0,0.1,0c0.1,0,0.2,0,0.3,0c5.9,0,10.8-4.8,10.8-10.8C347.5,312.9,344.5,308.9,340.3,307.5z"/>
	<path class="st12" d="M330.8,308.6c0.4-1.1,0.5-2.3,0.5-3.5c0-6.4-5.2-11.5-11.5-11.5c-2.4,0-4.6,0.7-6.5,2
		c-1.9-3.9-5.8-6.5-10.4-6.5c-6.4,0-11.5,5.2-11.5,11.5c0,0,0,0.1,0,0.1c-0.5-0.1-0.9-0.1-1.4-0.1c-5.7,0-10.4,4.1-11.4,9.5
		c-1.6,1.4-2.7,3.5-2.7,5.8c0,4.3,3.5,7.7,7.7,7.7c0.3,0,0.7,0,1-0.1h4c0.4,0,0.8,0.1,1.3,0.1c0.4,0,0.8,0,1.3-0.1H328
		c0,0,0,0,0.1,0c0.1,0,0.1,0,0.2,0c4.3,0,7.7-3.5,7.7-7.7C336,312.5,333.8,309.6,330.8,308.6z"/>
</g>
<g>
	<g>
		<circle class="st12" cx="303.6" cy="35" r="35"/>
	</g>
	<g>
		<circle class="st13" cx="303.6" cy="35" r="28.7"/>
	</g>
	<g>
		<path class="st12" d="M303.6,36.9c-1.4,0-2.6-1.1-2.6-2.6V9.2c0-1.4,1.1-2.6,2.6-2.6c1.4,0,2.6,1.1,2.6,2.6v25.2
			C306.1,35.8,305,36.9,303.6,36.9z"/>
	</g>
	<g>
		<path class="st12" d="M290.6,48.1c-0.7,0-1.5-0.3-2-1c-0.9-1.1-0.7-2.7,0.4-3.6l12.4-10c1.1-0.9,2.7-0.7,3.6,0.4
			c0.9,1.1,0.7,2.7-0.4,3.6l-12.4,10C291.7,47.9,291.1,48.1,290.6,48.1z"/>
	</g>
</g>
<polygon class="st12" points="184.9,442.7 161.6,472 169.5,472 169.5,505.3 201,505.3 201,472 208.3,472 "/>
<polygon class="st12" points="306.5,391.2 329.9,361.9 322,361.9 322,328.6 290.5,328.6 290.5,361.9 283.2,361.9 "/>
<g>
	<path class="st11" d="M361.9,106.7h-45.1c-5.5,0-9.9,4.4-9.9,9.9V148c0,2.6,1,5,2.7,6.8l-2.7,15.9l11.3-12.8h43.7
		c5.5,0,9.9-4.4,9.9-9.9v-31.4C371.8,111.1,367.4,106.7,361.9,106.7z"/>
	<rect x="316.7" y="116.3" class="st5" width="46" height="4.7"/>
	<rect x="316.7" y="126.3" class="st5" width="46" height="4.7"/>
	<rect x="316.7" y="136.4" class="st5" width="46" height="4.7"/>
	<rect x="316.7" y="146.5" class="st5" width="46" height="4.7"/>
</g>
<path class="st14" d="M366.8,743.4l-229,0c-4,0-6.6-3.2-5.9-7.1l14.4-77.7c0.7-3.9,4.5-7.1,8.5-7.1h193.7c4,0,7.8,3.2,8.6,7
	l15.5,77.8C373.4,740.3,370.8,743.4,366.8,743.4z"/>
<rect x="158.5" y="709.5" class="st15" width="188.1" height="9"/>
<path class="st16" d="M372.6,736.1H132l-0.1,0.4c-0.7,5.4,1.9,9.7,5.9,9.7h229c4,0,6.5-4.3,5.8-9.7L372.6,736.1z"/>
<g>
	<g>
		<polygon class="st15" points="175.1,694.6 165.9,694.6 166.6,685.3 174.5,685.3 		"/>
		<polygon class="st15" points="186.8,694.6 177.6,694.6 178.2,685.3 186.2,685.3 		"/>
		<polygon class="st15" points="198.5,694.6 189.3,694.6 189.9,685.3 197.9,685.3 		"/>
		<polygon class="st15" points="210.2,694.6 200.9,694.6 201.6,685.3 209.5,685.3 		"/>
		<polygon class="st15" points="221.9,694.6 212.6,694.6 213.3,685.3 221.2,685.3 		"/>
		<polygon class="st15" points="233.5,694.6 224.3,694.6 225,685.3 232.9,685.3 		"/>
		<polygon class="st15" points="245.2,694.6 236,694.6 236.7,685.3 244.6,685.3 		"/>
		<polygon class="st15" points="256.9,694.6 247.7,694.6 248.4,685.3 256.3,685.3 		"/>
		<polygon class="st15" points="268.6,694.6 259.4,694.6 260,685.3 268,685.3 		"/>
		<polygon class="st15" points="280.3,694.6 271,694.6 271.7,685.3 279.6,685.3 		"/>
		<polygon class="st15" points="292,694.6 282.7,694.6 283.4,685.3 291.3,685.3 		"/>
		<polygon class="st15" points="303.6,694.6 294.4,694.6 295.1,685.3 303,685.3 		"/>
		<polygon class="st15" points="315.3,694.6 306.1,694.6 306.8,685.3 314.7,685.3 		"/>
		<polygon class="st15" points="327,694.6 317.8,694.6 318.5,685.3 326.4,685.3 		"/>
		<polygon class="st15" points="338.7,694.6 329.5,694.6 330.1,685.3 338.1,685.3 		"/>
	</g>
</g>
<g>
	<g>
		<polygon class="st15" points="173.4,707 163.9,707 164.6,697.5 172.7,697.5 		"/>
		<polygon class="st15" points="185.3,707 175.9,707 176.6,697.5 184.7,697.5 		"/>
		<polygon class="st15" points="197.3,707 187.9,707 188.6,697.5 196.7,697.5 		"/>
		<polygon class="st15" points="209.3,707 199.9,707 200.6,697.5 208.7,697.5 		"/>
		<polygon class="st15" points="221.3,707 211.8,707 212.5,697.5 220.7,697.5 		"/>
		<polygon class="st15" points="233.3,707 223.8,707 224.5,697.5 232.7,697.5 		"/>
		<polygon class="st15" points="245.3,707 235.8,707 236.5,697.5 244.7,697.5 		"/>
		<polygon class="st15" points="257.3,707 247.8,707 248.5,697.5 256.6,697.5 		"/>
		<polygon class="st15" points="269.3,707 259.8,707 260.5,697.5 268.6,697.5 		"/>
		<polygon class="st15" points="281.3,707 271.8,707 272.5,697.5 280.6,697.5 		"/>
		<polygon class="st15" points="293.3,707 283.8,707 284.5,697.5 292.6,697.5 		"/>
		<polygon class="st15" points="305.2,707 295.8,707 296.5,697.5 304.6,697.5 		"/>
		<polygon class="st15" points="317.2,707 307.8,707 308.5,697.5 316.6,697.5 		"/>
		<polygon class="st15" points="329.2,707 319.7,707 320.4,697.5 328.6,697.5 		"/>
		<polygon class="st15" points="341.2,707 331.7,707 332.4,697.5 340.6,697.5 		"/>
	</g>
</g>
<polygon class="st17" points="146,660.6 144.3,669.6 359.3,669.6 357.5,660.6 "/>
<path class="st14" d="M139.8,653.9V534.3c0-3.7,2.9-6.7,6.4-6.7h212.1c3.6,0,6.4,3,6.4,6.7v119.7c0,3.7-2.9,6.7-6.4,6.7H146.2
	C142.7,660.6,139.8,657.6,139.8,653.9z"/>
<rect x="148.8" y="539.5" class="st18" width="206.9" height="103.6"/>
<g>
	<path class="st19" d="M302.7,725.6c-1,1.3-5.4,7.6-4.2,10.1c4.2,8.5,21,25,21,25c2.6,3.9,12.7,12,16.9,10l21.9-10.4
		c4.4-2.2,2.2-16.8,0.6-20.2l-0.5-1L348,717.3l-4.6-9.7c-1.1-2.2-4.3-2.8-7.2-1.4c-1.7,0.9-3,2.2-3.5,3.7c-1.1-2.2-4.3-2.8-7.2-1.3
		c-2.4,1.2-3.9,3.4-3.7,5.4l-0.2-0.4c-1.1-2.2-4.3-2.8-7.2-1.4c-1.9,0.9-3.1,2.5-3.6,4C310.7,716.2,302.3,716.9,302.7,725.6z"/>
	<path class="st5" d="M366,747.8c0,0-18.5,8.4-23.4,10.8c-4.9,2.4-22.9,11.8-22.9,11.8l11.6,23.8l28-10.4
		c6.1-4.6,11.7-9.7,16.8-15.1L366,747.8z"/>
	<path class="st14" d="M372.2,757.6c0,0-19.3,8.7-24.3,11.1c-1.9,0.9-5.7,2.8-9.7,4.9c-0.8,0.4-1.6,0.7-2.4,1.1
		c-6,3.1-11.8,6.1-11.8,6.1L369.2,902h40.5h17L372.2,757.6z"/>
	<path class="st19" d="M313.7,733.4c3.4,1.6,4.8,5.7,3.1,9l0,0c-1.6,3.4-5.7,4.8-9.1,3.1l-18-8.7c-3.4-1.6-4.8-5.7-3.1-9l0,0
		c1.6-3.4,5.7-4.8,9.1-3.1L313.7,733.4z"/>
	<path class="st19" d="M317.1,724.3l-12.5-14.8c-0.5-0.6-1.2-1.2-1.9-1.5l-11.8-8.4c-2.4-1.7-6-0.7-8.1,2.2
		c-2.1,2.9-1.9,6.7,0.5,8.4l12,8.5l11.9,14c2.3,2.8,6.5,3.1,9.2,0.8C319,731.2,319.4,727.1,317.1,724.3z"/>
	<path class="st19" d="M325.7,715.6l-12.6-14.8c-0.5-0.6-1.2-1.2-1.9-1.5l-11.8-8.4c-2.4-1.7-6-0.7-8.1,2.2
		c-2.1,2.9-1.9,6.7,0.5,8.4l12,8.5l11.9,14c2.3,2.8,6.5,3.1,9.2,0.8C327.6,722.5,328,718.4,325.7,715.6z"/>
	<path class="st19" d="M333.6,710.4l-12.6-14.8c-0.5-0.6-1.2-1.2-1.9-1.5l-11.8-8.4c-2.4-1.7-6-0.7-8.1,2.2
		c-2.1,2.9-1.9,6.7,0.5,8.4l12,8.5l11.9,14c2.3,2.8,6.5,3.1,9.2,0.8C335.6,717.3,336,713.2,333.6,710.4z"/>
	<path class="st19" d="M342.6,706.6l-12.6-14.8c-0.5-0.6-1.2-1.2-1.9-1.5l-11.8-8.4c-2.4-1.7-6-0.7-8.1,2.2
		c-2.1,2.9-1.9,6.7,0.5,8.4l12,8.5l11.9,14c2.3,2.8,6.5,3.1,9.2,0.8C344.6,713.5,345,709.4,342.6,706.6z"/>
	<path class="st20" d="M305.3,709c0.7,0.4,1.4,0.9,2,1.6l8.1,9.5h1.8l-8.9-10.5c-0.5-0.6-1.2-1.2-1.9-1.5l-11.8-8.4
		c-1.3-0.9-2.9-1-4.5-0.5c1,0,1.9,0.3,2.7,0.9L305.3,709z"/>
	<path class="st20" d="M313.3,700c0.7,0.4,1.4,0.9,2,1.6l8.1,9.5h1.8l-8.9-10.5c-0.5-0.6-1.2-1.2-1.9-1.5l-11.8-8.4
		c-1.3-0.9-2.9-1-4.5-0.5c1,0,1.9,0.3,2.7,0.9L313.3,700z"/>
	<path class="st20" d="M322.6,695.5c0.7,0.4,1.4,0.9,2,1.6l8.1,9.5h1.8l-8.9-10.5c-0.5-0.6-1.2-1.2-1.9-1.5l-11.8-8.4
		c-1.3-0.9-2.9-1-4.5-0.5c1,0,1.9,0.3,2.7,0.9L322.6,695.5z"/>
	<path class="st20" d="M303.4,727.6c-0.1-0.1-1.4-0.8-1.5-0.8l-0.3,0.4l-0.2,0.3l6.2,6.3l1.8-0.1L303.4,727.6z"/>
</g>
<g>
	<path class="st19" d="M201.4,725.6c1,1.3,5.4,7.6,4.2,10.1c-4.2,8.5-21,25-21,25c-2.6,3.9-12.7,12-16.9,10l-21.9-10.4
		c-4.4-2.2-2.2-16.8-0.6-20.2l0.5-1l10.4-21.8l4.6-9.7c1.1-2.2,4.3-2.8,7.2-1.4c1.7,0.9,3,2.2,3.5,3.7c1.1-2.2,4.3-2.8,7.2-1.3
		c2.4,1.2,3.9,3.4,3.7,5.4l0.2-0.4c1.1-2.2,4.3-2.8,7.2-1.4c1.9,0.9,3.1,2.5,3.6,4C193.4,716.2,201.8,716.9,201.4,725.6z"/>
	<path class="st5" d="M138,747.8c0,0,18.5,8.4,23.4,10.8c4.9,2.4,22.9,11.8,22.9,11.8l-11.6,23.8l-28-10.4
		c-6.1-4.6-11.7-9.7-16.8-15.2L138,747.8z"/>
	<path class="st14" d="M131.9,757.6c0,0,19.3,8.7,24.3,11.1c1.9,0.9,5.7,2.8,9.7,4.9c0.8,0.4,1.6,0.7,2.4,1.1
		c6,3.1,11.8,6.1,11.8,6.1L131.9,902H105H73.5L131.9,757.6z"/>
	<path class="st19" d="M190.4,733.4c-3.4,1.6-4.8,5.7-3.1,9l0,0c1.6,3.4,5.7,4.8,9.1,3.1l18-8.7c3.4-1.6,4.8-5.7,3.1-9l0,0
		c-1.6-3.4-5.7-4.8-9.1-3.1L190.4,733.4z"/>
	<path class="st19" d="M187,724.3l12.5-14.8c0.5-0.6,1.2-1.2,1.9-1.5l11.8-8.4c2.4-1.7,6-0.7,8.1,2.2c2.1,2.9,1.9,6.7-0.5,8.4
		l-12,8.5l-11.9,14c-2.3,2.8-6.5,3.1-9.2,0.8C185,731.2,184.7,727.1,187,724.3z"/>
	<path class="st19" d="M178.4,715.6l12.6-14.8c0.5-0.6,1.2-1.2,1.9-1.5l11.8-8.4c2.4-1.7,6-0.7,8.1,2.2c2.1,2.9,1.9,6.7-0.5,8.4
		l-12,8.5l-11.9,14c-2.3,2.8-6.5,3.1-9.3,0.8C176.4,722.5,176.1,718.4,178.4,715.6z"/>
	<path class="st19" d="M170.4,710.4l12.6-14.8c0.5-0.6,1.2-1.2,1.9-1.5l11.8-8.4c2.4-1.7,6-0.7,8.1,2.2c2.1,2.9,1.9,6.7-0.5,8.4
		l-12,8.5l-11.9,14c-2.3,2.8-6.5,3.1-9.2,0.8C168.4,717.3,168.1,713.2,170.4,710.4z"/>
	<path class="st19" d="M161.4,706.6l12.5-14.8c0.5-0.6,1.2-1.2,1.9-1.5l11.8-8.4c2.4-1.7,6-0.7,8.1,2.2c2.1,2.9,1.9,6.7-0.5,8.4
		l-12,8.5l-11.9,14c-2.3,2.8-6.5,3.1-9.2,0.8C159.4,713.5,159.1,709.4,161.4,706.6z"/>
	<path class="st20" d="M198.7,709c-0.7,0.4-1.4,0.9-2,1.6l-8.1,9.5h-1.8l8.9-10.5c0.5-0.6,1.2-1.2,1.9-1.5l11.8-8.4
		c1.3-0.9,2.9-1,4.5-0.5c-1,0-1.9,0.3-2.7,0.9L198.7,709z"/>
	<path class="st20" d="M190.8,700c-0.7,0.4-1.4,0.9-2,1.6l-8.1,9.5H179l8.9-10.5c0.5-0.6,1.2-1.2,1.9-1.5l11.8-8.4
		c1.3-0.9,2.9-1,4.5-0.5c-1,0-1.9,0.3-2.7,0.9L190.8,700z"/>
	<path class="st20" d="M181.5,695.5c-0.7,0.4-1.4,0.9-2,1.6l-8.1,9.5h-1.8l8.9-10.5c0.5-0.6,1.2-1.2,1.9-1.5l11.8-8.4
		c1.3-0.9,2.9-1,4.5-0.5c-1,0-1.9,0.3-2.7,0.9L181.5,695.5z"/>
	<path class="st20" d="M200.7,727.6c0.1-0.1,1.4-0.8,1.5-0.8l0.3,0.4l0.2,0.3l-6.2,6.3l-1.8-0.1L200.7,727.6z"/>
</g>
<g>
	<g>
		<polygon class="st15" points="175.6,682.3 166.5,682.3 167.2,673.3 175,673.3 		"/>
		<polygon class="st15" points="187.1,682.3 178,682.3 178.7,673.3 186.4,673.3 		"/>
		<polygon class="st15" points="198.5,682.3 189.5,682.3 190.1,673.3 197.9,673.3 		"/>
		<polygon class="st15" points="210,682.3 200.9,682.3 201.6,673.3 209.4,673.3 		"/>
		<polygon class="st15" points="221.5,682.3 212.4,682.3 213.1,673.3 220.8,673.3 		"/>
		<polygon class="st15" points="232.9,682.3 223.9,682.3 224.5,673.3 232.3,673.3 		"/>
		<polygon class="st15" points="244.4,682.3 235.3,682.3 236,673.3 243.8,673.3 		"/>
		<polygon class="st15" points="255.9,682.3 246.8,682.3 247.5,673.3 255.2,673.3 		"/>
		<polygon class="st15" points="267.3,682.3 258.3,682.3 258.9,673.3 266.7,673.3 		"/>
		<polygon class="st15" points="278.8,682.3 269.7,682.3 270.4,673.3 278.2,673.3 		"/>
		<polygon class="st15" points="290.3,682.3 281.2,682.3 281.9,673.3 289.6,673.3 		"/>
		<polygon class="st15" points="301.7,682.3 292.7,682.3 293.3,673.3 301.1,673.3 		"/>
		<polygon class="st15" points="313.2,682.3 304.1,682.3 304.8,673.3 312.6,673.3 		"/>
		<polygon class="st15" points="324.7,682.3 315.6,682.3 316.3,673.3 324,673.3 		"/>
		<polygon class="st15" points="336.1,682.3 327.1,682.3 327.7,673.3 335.5,673.3 		"/>
	</g>
</g>
<polygon class="st15" points="280.6,733.8 225.8,733.8 228.1,721.7 278,721.7 "/>
<circle class="st14" cx="176.1" cy="772.9" r="2.5"/>
<circle class="st14" cx="329.2" cy="772.9" r="2.5"/>
<g>
	<path class="st5" d="M221.9,554.1v30.2h-8.2v-13h-9v13h-8.2v-30.2h8.2v11.2h9v-11.2H221.9z"/>
	<path class="st5" d="M248.3,578.1l0.4,5.9c-2.9,0.3-7.8,0.5-15,0.5c-2.1,0-3.7-0.6-5-1.8c-1.3-1.2-1.9-2.7-1.9-4.7v-17.5
		c0-2,0.6-3.5,1.9-4.7c1.3-1.2,2.9-1.8,5-1.8c7.1,0,12.1,0.2,15,0.5l-0.4,5.9H237c-1.3,0-1.9,0.6-1.9,1.9v3.7h11.6v5.6h-11.6v4.6
		c0,1.3,0.6,1.9,1.9,1.9H248.3z"/>
	<path class="st5" d="M260.9,554.1v21.7c0,1.3,0.7,1.9,2.1,1.9h10.2l0.4,6.2c-2.9,0.3-7.5,0.5-13.9,0.5c-2.2,0-4-0.6-5.2-1.8
		c-1.2-1.2-1.8-2.8-1.8-4.8v-23.7H260.9z"/>
	<path class="st5" d="M276.7,584.3v-30.2c2.9-0.3,6.9-0.4,12.2-0.4c4.5,0,7.7,0.7,9.3,2.1c1.7,1.4,2.5,4.1,2.5,8
		c0,3.9-0.8,6.5-2.3,7.9c-1.6,1.4-4.4,2.1-8.4,2.1c-1.5,0-3.2-0.1-5.1-0.3v10.8H276.7z M284.9,567.9h3.8c1.5,0,2.5-0.3,3-0.8
		c0.5-0.6,0.8-1.6,0.8-3.2c0-1.6-0.3-2.7-0.8-3.3c-0.5-0.6-1.5-0.8-3-0.8h-3.8V567.9z"/>
</g>
<g>
	<path class="st5" d="M318.1,564.9l-0.8,9.7H311l-0.8-9.7v-10.9h7.9V564.9z M313.3,576.9h1.8c1,0,1.7,0.2,2.1,0.6
		c0.4,0.4,0.6,1.1,0.6,2.2v1.9c0,1-0.2,1.8-0.6,2.2c-0.4,0.4-1.1,0.6-2.1,0.6h-1.8c-1,0-1.7-0.2-2.1-0.6c-0.4-0.4-0.6-1.1-0.6-2.2
		v-1.9c0-1.1,0.2-1.8,0.6-2.2C311.5,577.1,312.2,576.9,313.3,576.9z"/>
</g>
<rect x="179.2" y="591.4" class="st5" width="150.2" height="5.4"/>
<rect x="179.5" y="625.4" class="st5" width="150.2" height="5.4"/>
<rect x="187.2" y="602.3" class="st5" width="134.2" height="5.4"/>
<rect x="197.8" y="614.2" class="st5" width="112.9" height="5.4"/>
<path class="st18" d="M126.7,213.6c0.1-0.1,0.1-0.1,0.2-0.2c4.4-4.4,7.1-10.5,7.1-17.2c0-3.5-0.7-6.8-2-9.8c0,0,0-0.1-0.1-0.1
	c-3.3-7.5-10.3-13-18.6-14.3c0,0,0,0,0,0c-1.2-0.2-2.5-0.3-3.8-0.3l0,0l0,0l0,0c-6.7,0-12.8,2.7-17.2,7.1c-0.1,0.1-0.2,0.1-0.2,0.2
	c-2,2.1-3.7,4.5-4.9,7.2c0,0.1-0.1,0.1-0.1,0.2c-1.3,3-2,6.3-2,9.7c0,0,0,0,0,0c0,0,0,0,0,0c0,6.7,2.7,12.7,7,17.2
	c0.1,0.1,0.1,0.2,0.2,0.2c3.8,3.8,8.9,6.3,14.6,6.9c0.2,0.1,0.4,0.1,0.7,0.1c0.1,0,0.3,0,0.4-0.1c0.5,0,1.1,0.1,1.6,0.1l0,0l0,0l0,0
	c1.3,0,2.6-0.1,3.8-0.3c0,0,0,0,0,0C118.5,219.6,123.2,217.1,126.7,213.6z M111.1,217.3V214h3.6c-0.8,1.1-1.7,2.2-2.6,3.3
	C111.8,217.3,111.5,217.3,111.1,217.3z M89.7,188.7h7.9c-0.5,1.9-0.9,3.8-1,5.9h-8.2C88.5,192.5,89,190.5,89.7,188.7z M94,181.7h6.2
	c-0.6,1.1-1.1,2.4-1.6,3.7h-7.4C92.1,184,93,182.8,94,181.7z M112.2,175.2c0.5,0.6,1.4,1.7,2.5,3.2h-3.5V175
	C111.5,175.1,111.8,175.1,112.2,175.2z M117.3,176.5c1.3,0.5,2.6,1.2,3.7,1.9h-2.5C118.1,177.7,117.7,177.1,117.3,176.5z
	 M129.4,203.5h-6.1c0.4-1.9,0.7-3.8,0.7-5.6h6.6C130.5,199.8,130.1,201.7,129.4,203.5z M125,210.7h-4.3c0.7-1.3,1.2-2.6,1.7-3.9h5.5
	C127.1,208.2,126.1,209.5,125,210.7z M103.4,210.7c-0.7-1.3-1.4-2.6-1.9-3.9h6.3v3.9H103.4z M107.9,214v3c-0.9-1-1.6-2-2.3-3H107.9z
	 M107.9,178.4h-1.9c0.7-1.1,1.4-1.9,1.9-2.5V178.4z M107.9,181.7v3.7h-5.8c0.6-1.3,1.2-2.6,1.8-3.7H107.9z M107.9,188.7v5.9h-8.1
	c0.2-2.1,0.6-4.1,1.1-5.9H107.9z M107.9,197.8v5.6h-7.4c-0.5-1.9-0.8-3.8-0.8-5.6H107.9z M120.8,197.8c-0.1,1.9-0.4,3.8-0.9,5.6
	h-8.8v-5.6H120.8z M111.1,206.8h7.7c-0.5,1.3-1.2,2.6-1.9,3.9h-5.8V206.8z M130.6,194.5H124c-0.2-2.1-0.5-4-1-5.9h6.3
	C130,190.5,130.5,192.5,130.6,194.5z M120.7,194.5h-9.6v-5.9h8.5C120.2,190.6,120.6,192.6,120.7,194.5z M111.1,185.4v-3.7h5.6
	c0.6,1.1,1.2,2.3,1.8,3.7H111.1z M102.1,178.4H98c1.8-1.2,3.8-2.1,5.9-2.7C103.3,176.5,102.7,177.4,102.1,178.4z M96.4,197.8
	c0,1.8,0.3,3.7,0.7,5.6h-7.5c-0.6-1.8-1.1-3.7-1.2-5.6H96.4z M98,206.8c0.4,1.3,1,2.6,1.7,3.9H94c-1.1-1.2-2.1-2.5-2.9-3.9H98z
	 M101.5,214c0.5,0.8,1.1,1.6,1.7,2.5c-1.9-0.6-3.7-1.4-5.3-2.5H101.5z M118.8,214h2.3c-1.1,0.7-2.3,1.3-3.5,1.8
	C117.9,215.2,118.4,214.6,118.8,214z M127.7,185.4h-5.8c-0.5-1.3-1-2.5-1.6-3.7h4.6C126,182.8,126.9,184,127.7,185.4z"/>
<g>
	<g>
		<path class="st3" d="M220.8,374.9h-71.7c-1.3,0-1.4,0.5-0.3,1.2l34.2,20.6c1.1,0.7,2.9,0.7,4,0l34.2-20.6
			C222.2,375.5,222.1,374.9,220.8,374.9z"/>
		<path class="st18" d="M149.1,375.1h71.7c1.3,0,1.4-0.5,0.3-1.2l-34.2-20.6c-1.1-0.7-2.9-0.7-4,0l-34.2,20.6
			C147.7,374.6,147.8,375.1,149.1,375.1z"/>
		<rect x="158.4" y="343.1" class="st3" width="50.7" height="59.8"/>
		<path class="st3" d="M149.1,419.3h71.7c1.3,0,1.4-0.5,0.3-1.2l-34.2-20.6c-1.1-0.7-2.9-0.7-4,0l-34.2,20.6
			C147.7,418.8,147.8,419.3,149.1,419.3z"/>
		<path class="st18" d="M186.9,398.5l34.2,20.6c1.1,0.7,2,0.2,2-1.1v-41.4c0-1.3-0.9-1.8-2-1.1l-34.2,20.6
			C185.8,396.7,185.8,397.8,186.9,398.5z"/>
		<path class="st18" d="M146.8,376.3v41.4c0,1.3,0.9,1.8,2,1.1l34.2-20.6c1.1-0.7,1.1-1.7,0-2.4l-34.2-20.6
			C147.7,374.5,146.8,375,146.8,376.3z"/>
		<g>
			<g>
				<path class="st5" d="M177.4,403c0-2.3,0.8-4.1,2.4-5.6c1.6-1.5,3.6-2.2,6-2.2c2,0,3.7,0.5,4.9,1.6c1.3,1.1,1.9,2.5,1.9,4.1
					c0,1.6-0.6,3-1.9,4c-1.3,1-2.8,1.6-4.5,1.6c-0.6,0-0.8-0.2-0.8-0.7c0-0.1,0-0.2,0-0.4c0-0.1,0-0.3,0.1-0.3l0.1-0.1
					c-0.9,1-1.8,1.5-2.7,1.5c-0.6,0-1-0.2-1.3-0.6c-0.3-0.4-0.4-0.9-0.4-1.6c0-1.6,0.5-2.9,1.6-4.1c1.1-1.1,2.3-1.7,3.7-1.7
					c1.1,0,2.1,0.2,3,0.7l-1.5,5.9c1-0.2,1.7-0.8,2.3-1.5c0.6-0.8,0.9-1.7,0.9-2.8c0-1.3-0.5-2.3-1.5-3.2c-1-0.8-2.2-1.2-3.7-1.2
					c-1.1,0-2.1,0.3-3.1,0.8c-0.9,0.5-1.7,1.3-2.3,2.3c-0.6,1-0.9,2.2-0.9,3.6c0,1.9,0.6,3.4,1.8,4.4c1.2,1.1,2.7,1.6,4.5,1.6
					c1.2,0,2.3-0.2,3.4-0.7l0.4,0.8c-1.2,0.7-2.7,1.1-4.3,1.1c-2.4,0-4.3-0.6-5.7-1.9C178.1,407.1,177.4,405.3,177.4,403z
					 M183.5,404.3c0,0.5,0.1,0.7,0.4,0.7c0.3,0,0.7-0.2,1.1-0.7c0.4-0.5,0.8-1,1.1-1.6l0.8-3.3c-0.1,0-0.2,0-0.4,0
					c-0.5,0-1,0.3-1.5,0.8c-0.5,0.5-0.8,1.2-1.1,1.9C183.6,402.8,183.5,403.6,183.5,404.3z"/>
			</g>
		</g>
	</g>
	<g>
		<path class="st5" d="M173.1,359.7l-0.3-6.1c0.2,0,0.8-0.2,1.8-0.4c1-0.2,1.6-0.3,1.8-0.4c0.2,0,0.8-0.1,1.6-0.2
			c0.8-0.1,1.6-0.2,2.1-0.2c0.6,0,1.4-0.1,2.3-0.1c1,0,2,0,3.1,0c3.8,0,6.6,0.6,8.5,1.9c1.8,1.3,2.8,3.3,2.8,5.9
			c0,1.4-0.3,2.6-0.9,3.8c-0.6,1.2-1.3,2.2-2.1,3c-0.8,0.9-1.7,1.8-2.6,2.6c-0.9,0.9-1.7,2-2.4,3.3c-0.7,1.3-1.1,2.7-1.2,4.3h-7.3
			c-0.1-2,0.2-3.8,0.8-5.6c0.6-1.7,1.4-3.1,2.2-4.1c0.8-1,1.6-2,2.4-3c0.8-1,1.2-1.8,1.3-2.5c0.1-0.8-0.1-1.5-0.7-1.8
			c-0.6-0.4-1.6-0.6-3-0.6C181.3,359.6,177.8,359.6,173.1,359.7z M183.1,379.7h2.1c1.2,0,2.1,0.2,2.5,0.7c0.5,0.5,0.7,1.3,0.7,2.5
			v2.2c0,1.2-0.2,2.1-0.7,2.5c-0.5,0.5-1.3,0.7-2.5,0.7h-2.1c-1.2,0-2.1-0.2-2.5-0.7c-0.5-0.5-0.7-1.3-0.7-2.5v-2.2
			c0-1.2,0.2-2.1,0.7-2.5C181,380,181.9,379.7,183.1,379.7z"/>
	</g>
</g>
<g>
	<path class="st3" d="M341.2,426.8h-71.7c-1.3,0-1.4,0.5-0.3,1.2l34.2,20.6c1.1,0.7,2.9,0.7,4,0l34.2-20.6
		C342.6,427.3,342.5,426.8,341.2,426.8z"/>
	<path class="st18" d="M269.6,427h71.7c1.3,0,1.4-0.5,0.3-1.2l-34.2-20.6c-1.1-0.7-2.9-0.7-4,0l-34.2,20.6
		C268.1,426.5,268.3,427,269.6,427z"/>
	<rect x="278.9" y="395" class="st3" width="50.7" height="59.8"/>
	<path class="st3" d="M269.6,471.2h71.7c1.3,0,1.4-0.5,0.3-1.2l-34.2-20.6c-1.1-0.7-2.9-0.7-4,0L269.2,470
		C268.1,470.7,268.3,471.2,269.6,471.2z"/>
	<path class="st18" d="M307.4,450.4l34.2,20.6c1.1,0.7,2,0.2,2-1.1v-41.4c0-1.3-0.9-1.8-2-1.1l-34.2,20.6
		C306.3,448.6,306.3,449.7,307.4,450.4z"/>
	<path class="st18" d="M267.2,428.1v41.4c0,1.3,0.9,1.8,2,1.1l34.2-20.6c1.1-0.7,1.1-1.7,0-2.4L269.2,427
		C268.1,426.3,267.2,426.8,267.2,428.1z"/>
	<g>
		<g>
			<path class="st5" d="M297.8,452.8c0-2.3,0.8-4.1,2.4-5.6c1.6-1.5,3.6-2.2,6-2.2c2,0,3.7,0.5,4.9,1.6c1.3,1.1,1.9,2.5,1.9,4.1
				c0,1.6-0.6,3-1.9,4c-1.3,1-2.8,1.6-4.5,1.6c-0.6,0-0.8-0.2-0.8-0.7c0-0.1,0-0.2,0-0.4c0-0.1,0-0.3,0.1-0.3l0.1-0.1
				c-0.9,1-1.8,1.5-2.7,1.5c-0.6,0-1-0.2-1.3-0.6c-0.3-0.4-0.4-0.9-0.4-1.6c0-1.6,0.5-2.9,1.6-4.1c1.1-1.1,2.3-1.7,3.7-1.7
				c1.1,0,2.1,0.2,3,0.7l-1.5,5.9c1-0.2,1.7-0.8,2.3-1.5c0.6-0.8,0.9-1.7,0.9-2.8c0-1.3-0.5-2.3-1.5-3.2c-1-0.8-2.2-1.2-3.7-1.2
				c-1.1,0-2.1,0.3-3.1,0.8c-0.9,0.5-1.7,1.3-2.3,2.3c-0.6,1-0.9,2.2-0.9,3.6c0,1.9,0.6,3.4,1.8,4.4c1.2,1.1,2.7,1.6,4.5,1.6
				c1.2,0,2.3-0.2,3.4-0.7l0.4,0.8c-1.2,0.7-2.7,1.1-4.3,1.1c-2.4,0-4.3-0.6-5.7-1.9C298.5,456.9,297.8,455.1,297.8,452.8z
				 M303.9,454.1c0,0.5,0.1,0.7,0.4,0.7c0.3,0,0.7-0.2,1.1-0.7c0.4-0.5,0.8-1,1.1-1.6l0.8-3.3c-0.1,0-0.2,0-0.4,0
				c-0.5,0-1,0.3-1.5,0.8c-0.5,0.5-0.8,1.2-1.1,1.9C304.1,452.6,303.9,453.4,303.9,454.1z"/>
		</g>
	</g>
	<rect x="282.4" y="399.8" class="st5" width="43.6" height="1.6"/>
	<rect x="282.4" y="404.1" class="st5" width="43.6" height="1.6"/>
	<rect x="282.4" y="408.4" class="st5" width="43.6" height="1.6"/>
	<rect x="282.4" y="412.8" class="st5" width="43.6" height="1.6"/>
	<rect x="282.4" y="417.1" class="st5" width="43.6" height="1.6"/>
	<rect x="282.4" y="421.4" class="st5" width="43.6" height="1.6"/>
	<rect x="282.4" y="425.8" class="st5" width="43.6" height="1.6"/>
	<rect x="282.4" y="430.1" class="st5" width="43.6" height="1.6"/>
	<rect x="304.2" y="433.9" class="st5" width="21.8" height="1.6"/>
</g>
</svg>
